<svg viewBox="0 0 80 56" fill="none" xmlns="http://www.w3.org/2000/svg">
<g >
<path d="M35.8879 10.2857C30.9034 13.0794 26.4797 16.0635 22.6168 19.2381C18.7539 22.4127 15.9502 25.5238 14.2056 28.5714C14.4548 28.5714 14.704 28.5079 14.9533 28.381C15.2025 28.381 15.3894 28.3175 15.514 28.1905C15.8878 28.0635 16.2617 28 16.6355 28C16.8847 28 17.2586 28 17.757 28C21.6199 28 24.8598 29.2064 27.4766 31.6191C29.9688 34.1587 31.215 37.4603 31.215 41.5238C31.215 45.8413 29.7819 49.3333 26.9159 52C24.0498 54.6667 20.4361 56 16.0748 56C11.4642 56 7.66354 54.3492 4.67289 51.0476C1.55763 47.873 -6.55257e-06 43.6825 -6.09741e-06 38.4762C-5.68667e-06 33.7778 1.2461 29.0159 3.73831 24.1905C6.23052 19.4921 9.71963 15.0476 14.2056 10.8571C18.567 6.66667 23.5514 3.04762 29.1589 3.18472e-06L35.8879 10.2857ZM80 10.2857C75.0156 13.0794 70.5919 16.0635 66.729 19.2381C62.866 22.4127 60.0623 25.5238 58.3178 28.5714C58.567 28.5714 58.8162 28.5079 59.0654 28.381C59.3146 28.381 59.5016 28.3175 59.6262 28.1905C60 28.0635 60.3738 28 60.7477 28C60.9969 28 61.3707 28 61.8692 28C65.7321 28 68.972 29.2064 71.5888 31.6191C74.081 34.1587 75.3271 37.4603 75.3271 41.5238C75.3271 45.8413 73.8941 49.3333 71.028 52C68.162 54.6667 64.5483 56 60.1869 56C55.5763 56 51.7757 54.3492 48.785 51.0476C45.6698 47.873 44.1121 43.6825 44.1121 38.4762C44.1122 33.7778 45.3583 29.0159 47.8505 24.1905C50.3427 19.4921 53.8318 15.0476 58.3178 10.8572C62.6791 6.66668 67.6636 3.04763 73.271 7.04113e-06L80 10.2857Z" fill="#060619"/>
</g>
</svg>
