<svg xmlns="http://www.w3.org/2000/svg" width="122" height="122" fill="none"><path stroke="#FFEF9E" stroke-linejoin="round" stroke-width="1.5" d="M1 1h120v35.12M1 1v84.829M1 1l59.956 59.956M121 121H1V85.877M121 121 61.044 61.044M121 121V36.175M61 61l.044.044M61 61l-.044-.044M61 61a35.004 35.004 0 0 1 10.133 21.484M61 61c-7.72-7.72-18.14-11.099-28.222-10.133M1 85.829c.006-8.987 3.438-17.972 10.294-24.83a35.003 35.003 0 0 1 21.484-10.133M1 85.83v.048m0-.048v.048m0 0c.006 8.987 3.438 17.972 10.294 24.829 13.726 13.725 35.98 13.725 49.706 0 7.72-7.721 11.099-18.14 10.133-28.222M121 36.175c-.007 8.986-3.439 17.97-10.294 24.825-13.711 13.711-35.932 13.726-49.662.044M121 36.175v-.056m0 .056v-.056M61.044 61.044l-.088-.088m.088.088a35.003 35.003 0 0 1 10.09 21.44M121 36.119c-.007-8.985-3.439-17.969-10.294-24.825C96.98-2.43 74.726-2.43 61 11.294c-13.711 13.712-13.726 35.933-.044 49.662m0 0c-7.716-7.69-18.115-11.053-28.178-10.09"/><path stroke="#FFEF9E" stroke-linecap="round" stroke-linejoin="round" stroke-width="1.5" d="M121.24 1H1l60.076 59.956c-13.71-13.73-13.695-35.95.044-49.662 13.753-13.725 36.052-13.725 49.805 0 6.87 6.856 10.308 15.84 10.315 24.825V1ZM121.24 36.175c-.007 8.986-3.445 17.97-10.315 24.825-13.738 13.711-36.004 13.726-49.76.044L121.24 121V36.175Z"/><path stroke="#FFEF9E" stroke-linecap="round" stroke-linejoin="round" stroke-width="1.5" d="M11.315 110.706c13.753 13.725 36.052 13.725 49.805 0 7.736-7.721 11.12-18.14 10.154-28.222A34.975 34.975 0 0 0 61.12 61c-7.736-7.72-18.176-11.099-28.278-10.133A35.103 35.103 0 0 0 11.315 61C4.445 67.857 1.006 76.842 1 85.829v.048c.006 8.987 3.444 17.972 10.315 24.829Z"/></svg>