<svg xmlns="http://www.w3.org/2000/svg" width="123" height="122" fill="none"><path stroke="#BEB6F2" stroke-linejoin="round" stroke-width="1.5" d="M1.667 1h120v120h-120z"/><path stroke="#BEB6F2" stroke-linejoin="round" stroke-width="1.5" d="M61.667 5.32c-14.998 0-27.156 12.173-27.156 27.19a27.09 27.09 0 0 0 3.581 13.503M61.667 5.32c14.997 0 27.155 12.173 27.155 27.19 0 4.914-1.303 9.525-3.58 13.503M61.666 5.32 85.24 46.013M61.667 5.32 38.092 46.013m79.932 56.588c-7.499 13.004-24.106 17.46-37.095 9.952a27.047 27.047 0 0 1-9.944-9.952m47.039 0c7.499-13.005 3.049-29.633-9.939-37.142a27.007 27.007 0 0 0-13.69-3.647m23.629 40.789h-47.04m47.04 0-23.63-40.788M5.31 102.6c7.5 13.004 24.107 17.46 37.095 9.952a27.047 27.047 0 0 0 9.945-9.952m-47.04 0c-7.498-13.005-3.048-29.633 9.94-37.142a27.004 27.004 0 0 1 13.69-3.647M5.31 102.602l23.63-40.788M5.31 102.6h47.04M85.24 46.013C80.56 54.19 71.755 59.7 61.667 59.7c-10.089 0-18.893-5.509-23.575-13.686m47.15 0 9.152 15.8m-56.302-15.8-9.153 15.8m65.455 0c-9.336.047-18.4 4.918-23.404 13.598-5.025 8.714-4.684 19.056-.005 27.19m0 0H52.349m0 0c4.679-8.134 5.02-18.476-.005-27.19-5.005-8.68-14.069-13.551-23.405-13.599"/><path stroke="#BEB6F2" stroke-linejoin="round" stroke-width="1.5" d="M52.35 102.601c4.678-8.134 5.019-18.476-.006-27.19-5.005-8.68-14.068-13.551-23.404-13.599L5.31 102.602h47.04ZM94.395 61.813c-9.337.047-18.4 4.918-23.405 13.598-5.024 8.714-4.684 19.056-.005 27.19h47.04l-23.63-40.788ZM85.242 46.013 61.667 5.32 38.092 46.013C42.776 54.19 51.579 59.7 61.668 59.7c10.089 0 18.893-5.509 23.575-13.686Z"/></svg>