<svg xmlns="http://www.w3.org/2000/svg" width="123" height="122" fill="none"><path stroke="#FFA69E" stroke-linejoin="round" stroke-width="1.5" d="M121.333 61c0 33.137-26.863 60-60 60s-60-26.863-60-60m120 0c0-33.137-26.863-60-60-60s-60 26.863-60 60m120 0c0 8.085-26.863 14.64-60 14.64s-60-6.555-60-14.64m120 0c0-4.337-7.73-8.234-20.012-10.915M1.333 61c0-4.474 8.227-8.48 21.191-11.166M102.853 61c0 3.579-18.589 6.48-41.52 6.48-22.93 0-40.32-2.901-40.32-6.48m81.84 0c0-3.579-18.589-6.48-41.52-6.48-22.93 0-40.32 2.901-40.32 6.48m81.84 0c0-3.8-.535-7.458-1.532-10.915M21.013 61c0-3.892.526-7.635 1.511-11.166m0 0C27.261 32.861 42.625 20.8 61.334 20.8c18.8 0 35.053 12.18 39.987 29.285"/><path stroke="#FFA69E" stroke-linejoin="round" stroke-width="1.5" d="M61.333 67.48c22.931 0 41.52-2.901 41.52-6.48 0-3.579-18.589-6.48-41.52-6.48-22.93 0-40.32 2.901-40.32 6.48 0 3.579 17.39 6.48 40.32 6.48Z" clip-rule="evenodd"/><path stroke="#FFA69E" stroke-linejoin="round" stroke-width="1.5" d="M21.013 61c0-3.579 17.39-6.48 40.32-6.48 22.931 0 41.52 2.901 41.52 6.48 0-3.8-.535-7.458-1.532-10.915C96.387 32.98 80.133 20.8 61.333 20.8c-18.708 0-34.072 12.061-38.81 29.035A41.477 41.477 0 0 0 21.014 61Z"/><path stroke="#FFA69E" stroke-linejoin="round" stroke-width="1.5" d="M61.333 75.64c33.137 0 60-6.555 60-14.64 0-4.337-7.73-8.234-20.012-10.915A39.314 39.314 0 0 1 102.853 61c0 3.579-18.589 6.48-41.52 6.48-22.93 0-40.32-2.901-40.32-6.48 0-3.892.526-7.635 1.511-11.166C9.56 52.52 1.334 56.526 1.334 61c0 8.085 26.862 14.64 60 14.64Z"/><path stroke="#FFA69E" stroke-linejoin="round" stroke-width="1.5" d="M61.333 121c33.137 0 60-26.863 60-60 0 8.085-26.863 14.64-60 14.64s-60-6.555-60-14.64c0 33.137 26.863 60 60 60Z" clip-rule="evenodd"/><path stroke="#FFA69E" stroke-linejoin="round" stroke-width="1.5" d="M1.333 1h120v120h-120z"/></svg>