<svg viewBox="0 0 32 32" fill="none" xmlns="http://www.w3.org/2000/svg">
	<path fill-rule="evenodd" clip-rule="evenodd" d="M0 0V32H32V0H0ZM31.4 0.6H25.6786L31.4 3.8183V0.6ZM31.4 4.5067L24.4547 0.6H24.3V31.4H31.4V4.5067ZM23.7 31.3419V24.6389L12.6126 15.2369L8.6834 18.293L23.7 31.3419ZM8.2007 18.6684L6.10293 20.3H0.6V31.4H22.8522L8.2007 18.6684ZM0.6 19.7H5.89707L23.7 5.85327V0.6H17.7334L0.6 14.4019V19.7ZM0.6 13.6314L16.777 0.6H0.6V13.6314ZM23.7 6.61339L13.0965 14.8606L23.7 23.8523V6.61339Z" fill="currentColor" />
</svg>
