<svg viewBox="0 0 32 32" fill="none" xmlns="http://www.w3.org/2000/svg">
	<path fill-rule="evenodd" clip-rule="evenodd" d="M0 0V32H32V0H0ZM31.4 0.6H17.0243L20.3 3.87574V11.7H28.1243L31.4 14.9757V0.6ZM31.4 15.8243L27.8757 12.3H20.3V19.7H27.8757L31.4 16.1757V15.8243ZM31.4 17.0243L28.1243 20.3H20.3V28.1243L17.0243 31.4H31.4V17.0243ZM16.1757 31.4L19.7 27.8757V20.3H12.3V27.8757L15.8243 31.4H16.1757ZM14.9757 31.4L11.7 28.1243V20.3H3.87574L0.6 17.0243V31.4H14.9757ZM0.6 16.1757L4.12426 19.7H11.7V12.3H4.12426L0.6 15.8243V16.1757ZM0.6 14.9757L3.87574 11.7H11.7V3.87574L14.9757 0.6H0.6V14.9757ZM15.8243 0.6L12.3 4.12426V11.7H19.7V4.12426L16.1757 0.6H15.8243ZM19.7 12.3H12.3V19.7H19.7V12.3Z" fill="currentColor" />
</svg>
