<svg viewBox="0 0 32 32" fill="none" xmlns="http://www.w3.org/2000/svg">
	<path fill-rule="evenodd" clip-rule="evenodd" d="M32 32V0H0V32H32ZM0.6 31.4H13.7V18.3H0.6V31.4ZM0.724263 17.7H13.8757L23.2757 8.3H10.1243L0.724263 17.7ZM10.1787 7.7H23.8757L30.9757 0.6H6.33194L10.1787 7.7ZM5.63656 0.6H0.6V16.9757L5.63656 11.9392V0.6ZM6.23656 11.3392L9.62961 7.94613L6.23656 1.68348V11.3392ZM31.4 1.02426L24.3 8.12426V21.7H31.4V1.02426ZM31.4 22.3H24.3V31.4H31.4V22.3ZM23.7 31.4V22.7243L15.0243 31.4H23.7ZM14.3 31.2757L23.7 21.8757V8.72426L14.3 18.1243V31.2757Z" fill="currentColor" />
</svg>
