<svg viewBox="0 0 32 32" fill="none" xmlns="http://www.w3.org/2000/svg">
	<path fill-rule="evenodd" clip-rule="evenodd" d="M32 0V32H0V0H32ZM0.6 0.6V6.17574L10 15.5757L15.5757 10L6.17574 0.6H0.6ZM7.02426 0.6L16 9.57574L24.9757 0.6H7.02426ZM25.8243 0.6L16.4243 10L22 15.5757L31.4 6.17574V0.6H25.8243ZM31.4 7.02426L22.4243 16L31.4 24.9757V7.02426ZM31.4 25.8243L22 16.4243L16.4243 22L25.8243 31.4H31.4V25.8243ZM24.9757 31.4L16 22.4243L7.02426 31.4H24.9757ZM6.17574 31.4L15.5757 22L10 16.4243L0.6 25.8243V31.4H6.17574ZM0.6 24.9757L9.57574 16L0.6 7.02426V24.9757ZM10.4243 16L16 21.5757L21.5757 16L16 10.4243L10.4243 16Z" fill="currentColor" />
</svg>
