<svg viewBox="0 0 32 32" fill="none" xmlns="http://www.w3.org/2000/svg">
	<path fill-rule="evenodd" clip-rule="evenodd" d="M7.7 0.6H7.0193L7.7 1.28488V0.6ZM8.3 1.88857V0.6H23.7V2.32689L16.1236 9.76031L8.3 1.88857ZM7.7 2.13602L6.17336 0.6H0.6V6.01267L7.7 13.0853V2.13602ZM8.3 13.683V2.73971L15.6953 10.1805L10.1983 15.5739L8.3 13.683ZM7.7 13.9322L0.6 6.85957V24.991L7.7 18.025V13.9322ZM8.3 17.4363V14.5298L9.76994 15.9941L8.3 17.4363ZM8.3 18.2769V29.2601L15.6565 21.8579L10.1951 16.4176L8.3 18.2769ZM7.7 18.8656V29.8639L6.17334 31.4H0.6V25.8316L7.7 18.8656ZM0 32V0H32V32H0ZM31.4 31.4H26.0857L24.3 29.6212V18.8381L31.4 25.9818V31.4ZM23.7 18.2344V29.0235L16.5045 21.8558L21.9017 16.4251L23.7 18.2344ZM24.3 17.987L31.4 25.1306V6.86775L24.3 14.0119V17.987ZM23.7 14.6156V17.3833L22.3247 15.9995L23.7 14.6156ZM24.3 13.1607L31.4 6.01658V0.6H26.3168L24.3 2.57877V13.1607ZM23.7 3.16745V13.7644L21.9017 15.5739L16.5466 10.1859L23.7 3.16745ZM16.1183 10.6061L10.6234 15.9974L16.0794 21.4324L21.4787 15.9995L16.1183 10.6061ZM24.3 1.73821L25.4601 0.6H24.3V1.73821ZM16.0816 22.2814L23.7 29.8704V31.4H8.3V30.1113L16.0816 22.2814ZM7.7 30.715L7.01925 31.4H7.7V30.715ZM24.3 31.4H25.2355L24.3 30.4681V31.4Z" fill="currentColor" />
</svg>
