<svg viewBox="0 0 16 16" fill="none" xmlns="http://www.w3.org/2000/svg">
	<path fill-rule="evenodd" clip-rule="evenodd" d="M3.80389 1.31365C2.42856 1.31365 1.31365 2.42858 1.31365 3.8039V12.1961C1.31365 13.5714 2.42857 14.6864 3.80389 14.6864H12.1961C13.5714 14.6864 14.6864 13.5714 14.6864 12.1961V3.8039C14.6864 2.42858 13.5714 1.31365 12.1961 1.31365H3.80389ZM0 3.8039C0 1.70307 1.70306 0 3.80389 0H12.1961C14.2969 0 16 1.70307 16 3.8039V12.1961C16 14.2969 14.2969 16 12.1961 16H3.80389C1.70305 16 0 14.2969 0 12.1961V3.8039ZM12.2457 4.10924C12.4396 4.10924 12.5967 3.95202 12.5967 3.75819C12.5967 3.56436 12.4396 3.40714 12.2457 3.40714C12.0518 3.40714 11.8946 3.56436 11.8946 3.75819C11.8946 3.95201 12.0518 4.10924 12.2457 4.10924ZM11.2831 3.75819C11.2831 3.22661 11.7139 2.79559 12.2457 2.79559C12.7774 2.79559 13.2083 3.22661 13.2083 3.75819C13.2083 4.28976 12.7774 4.72079 12.2457 4.72079C11.7139 4.72079 11.2831 4.28977 11.2831 3.75819ZM5.33016 5.33002C6.03825 4.62193 6.99863 4.22413 8.00001 4.22413C9.0014 4.22413 9.96178 4.62193 10.6699 5.33002C11.378 6.03811 11.7758 6.99849 11.7758 7.99988C11.7758 9.00127 11.378 9.96165 10.6699 10.6697C9.96178 11.3778 9.0014 11.7756 8.00001 11.7756C6.99863 11.7756 6.03825 11.3778 5.33016 10.6697C4.62207 9.96165 4.22427 9.00127 4.22427 7.99988C4.22427 6.99849 4.62207 6.03811 5.33016 5.33002ZM8.00001 5.53778C7.34703 5.53778 6.72078 5.79718 6.25905 6.25891C5.79732 6.72064 5.53792 7.34689 5.53792 7.99988C5.53792 8.65287 5.79732 9.27911 6.25905 9.74085C6.72078 10.2026 7.34703 10.462 8.00001 10.462C8.653 10.462 9.27925 10.2026 9.74098 9.74085C10.2027 9.27911 10.4621 8.65287 10.4621 7.99988C10.4621 7.34689 10.2027 6.72064 9.74098 6.25891C9.27925 5.79718 8.653 5.53778 8.00001 5.53778Z" fill="currentColor" />
</svg>
