<svg viewBox="0 0 32 32" fill="none" xmlns="http://www.w3.org/2000/svg">
	<path fill-rule="evenodd" clip-rule="evenodd" d="M28.3 8.12426L8.12426 28.3H4.12426L1.02426 31.4H20.1757L23.7 27.8757V23.8757L27.8757 19.7H31.4V1.02426L28.3 4.12426V8.12426ZM27.8757 3.7H23.8757L3.7 23.8757V27.8757L0.6 30.9757V15.8243L2.12426 14.3H6.12426L14.3 6.12426V2.12426L15.8243 0.6H30.9757L27.8757 3.7ZM32 0V32H0V0H32ZM14.9757 0.6H6.32426L0.6 6.32426V14.9757L1.7 13.8757V9.87574L9.87574 1.7H13.8757L14.9757 0.6ZM13.7 2.3H10.1243L2.3 10.1243V13.7H5.87574L13.7 5.87574V2.3ZM0.6 5.47574L5.47574 0.6H0.6V5.47574ZM21.0243 31.4H31.4V25.0243L28.1243 28.3H24.1243L21.0243 31.4ZM24.3 27.7H27.8757L31.4 24.1757V20.3H28.1243L24.3 24.1243V27.7ZM4.3 27.7H7.87574L27.7 7.87574V4.3H24.1243L4.3 24.1243V27.7Z" fill="currentColor" />
</svg>
