<svg viewBox="0 0 16 16" fill="none" xmlns="http://www.w3.org/2000/svg">
	<path fill-rule="evenodd" clip-rule="evenodd" d="M1.81818 3.63636C2.30039 3.63636 2.76286 3.44481 3.10383 3.10383C3.44481 2.76286 3.63636 2.30039 3.63636 1.81818C3.63636 1.33597 3.44481 0.873508 3.10383 0.532533C2.76286 0.191558 2.30039 0 1.81818 0C1.33597 0 0.873508 0.191558 0.532533 0.532533C0.191558 0.873508 0 1.33597 0 1.81818C0 2.30039 0.191558 2.76286 0.532533 3.10383C0.873508 3.44481 1.33597 3.63636 1.81818 3.63636ZM3.63636 16V5.09091H0V16H3.63636ZM5.09091 5.09091H8.36364V6.50618C8.88436 5.82182 9.99709 5.09091 12 5.09091C15.1491 5.09091 16 8.23273 16 10.1818V16H12.3636V10.1818C12.3636 9.45455 12 8 10.5455 8C9.51273 8 8.78545 8.73309 8.36364 9.41891V16H5.09091V5.09091Z" fill="currentColor" />
</svg>
