<svg  viewBox="0 0 16 16" fill="none" xmlns="http://www.w3.org/2000/svg">
<g>
<path fill-rule="evenodd" clip-rule="evenodd" d="M11.5102 4.48967L8.40281 12.924L6.62716 9.37268L3.07586 7.59703L11.5102 4.48967ZM5.59048 7.73631L7.37252 8.62732L8.26353 10.4094L9.82282 6.17704L5.59048 7.73631Z" fill="currentColor"/>
<path fill-rule="evenodd" clip-rule="evenodd" d="M2.46084 2.461C3.92987 0.991967 5.92231 0.166668 7.99984 0.166668C10.0774 0.166668 12.0698 0.991966 13.5389 2.461C15.0079 3.93004 15.8332 5.92248 15.8332 8C15.8332 10.0775 15.0079 12.07 13.5389 13.539C12.0698 15.0081 10.0774 15.8333 7.99984 15.8333C5.92231 15.8333 3.92987 15.0081 2.46084 13.539C0.991802 12.07 0.166504 10.0775 0.166504 8C0.166504 5.92247 0.991803 3.93004 2.46084 2.461ZM7.99984 1.16667C6.18753 1.16667 4.44944 1.88661 3.16794 3.16811C1.88644 4.44961 1.1665 6.18769 1.1665 8C1.1665 9.81233 1.88645 11.5504 3.16794 12.8319C4.44944 14.1134 6.18752 14.8333 7.99984 14.8333C9.81217 14.8333 11.5503 14.1134 12.8318 12.8319C14.1132 11.5504 14.8332 9.81233 14.8332 8C14.8332 6.18769 14.1132 4.4496 12.8318 3.16811C11.5503 1.88661 9.81216 1.16667 7.99984 1.16667Z" fill="currentColor"/>
</g>
</svg>
