<svg viewBox="0 0 32 32" fill="none" xmlns="http://www.w3.org/2000/svg">
	<path fill-rule="evenodd" clip-rule="evenodd" d="M0 0V32H32V0H0ZM31.4 0.6H25.0243L31.4 6.97574V0.6ZM31.4 7.82426L24.3 0.724263V23.7H31.4V7.82426ZM31.4 24.3H24.15L18.825 31.4H31.4V24.3ZM18.075 31.4L23.4 24.3H0.6V31.4H18.075ZM0.724263 23.7H23.2757L17.7 18.1243V16.3H8.12426L0.724263 23.7ZM18.3 16.3V17.8757L23.7 23.2757V16.3H18.3ZM23.7 15.7H18.3V0.6H23.7V15.7ZM17.7 0.6V15.7H7.87574L0.6 22.9757V0.6H17.7Z" fill="currentColor" />
</svg>
