<svg  viewBox="0 0 16 16" fill="none" xmlns="http://www.w3.org/2000/svg">
<g >
<path fill-rule="evenodd" clip-rule="evenodd" d="M2.19743 0.263271L0 0.526542C0.1378 3.01446 0.839205 5.47697 2.10421 7.70643C2.8175 8.96355 3.71 10.1466 4.78173 11.2183C5.85338 12.29 7.03645 13.1825 8.29357 13.8958C10.523 15.1608 12.9855 15.8622 15.4735 16L15.7367 13.8026L14.6171 13.6684L14.484 14.7795C12.5275 14.5355 10.6103 13.9138 8.85007 12.915C7.68029 12.2513 6.57841 11.4203 5.57914 10.4209C4.57979 9.42164 3.74872 8.31972 3.085 7.14994C2.08625 5.38974 1.46449 3.47253 1.22052 1.51604L2.33158 1.38292L2.19743 0.263271Z" fill="currentColor"/>
<path fill-rule="evenodd" clip-rule="evenodd" d="M2.10421 7.70643L5.94232 5.4157L4.39502 0L2.19743 0.263271L2.33158 1.38292L3.5748 1.23399L4.61985 4.89177L2.12094 6.38323L2.10421 7.70643Z" fill="currentColor"/>
<path fill-rule="evenodd" clip-rule="evenodd" d="M15.7367 13.8026L16.0001 11.6051L10.5844 10.0578L8.29357 13.8958L9.61685 13.8792L11.1083 11.3803L14.7662 12.4254L14.6171 13.6684L15.7367 13.8026Z" fill="currentColor"/>
</g>

</svg>
