<svg viewBox="0 0 32 32" fill="none" xmlns="http://www.w3.org/2000/svg">
	<path fill-rule="evenodd" clip-rule="evenodd" d="M32 32V0H0V32H32ZM11.8243 31.4H12.1757L31.4 12.1757V1.02426L22.3 10.1243V16.1243L9.42426 29L11.8243 31.4ZM9 29.4243L10.9757 31.4H7.02426L9 29.4243ZM9 28.5757L21.7 15.8757V10.7243L6.42426 26L9 28.5757ZM6 25.5757L21.2757 10.3H16.1243L3.42426 23L6 25.5757ZM3 23.4243L8.57574 29L6.17574 31.4H0.6V25.8243L3 23.4243ZM3 22.5757L15.8757 9.7H21.8757L30.9757 0.6H19.8243L0.6 19.8243V20.1757L3 22.5757ZM0.6 21.0243L2.57574 23L0.6 24.9757V21.0243ZM0.6 18.9757L18.9757 0.6H0.6V18.9757ZM31.4 13.0243L13.0243 31.4H31.4V13.0243Z" fill="currentColor" />
</svg>
