<svg  viewBox="0 0 16 16" fill="none" xmlns="http://www.w3.org/2000/svg">
<g>
<path fill-rule="evenodd" clip-rule="evenodd" d="M2.19669 12.8033C0.79018 11.3968 0 9.48915 0 7.5C0 5.51088 0.790178 3.60322 2.1967 2.1967C3.60322 0.790181 5.51088 0 7.5 0C9.48915 0 11.3968 0.79018 12.8033 2.19669C14.2098 3.60321 15 5.51087 15 7.5C15 9.48916 14.2098 11.3968 12.8033 12.8033C11.3968 14.2098 9.48916 15 7.5 15C5.51087 15 3.60321 14.2098 2.19669 12.8033ZM2.88843 12.1116C4.1115 13.3346 5.77033 14.0217 7.5 14.0217C9.2297 14.0217 10.8885 13.3346 12.1116 12.1116C13.3346 10.8885 14.0217 9.2297 14.0217 7.5C14.0217 5.77033 13.3346 4.1115 12.1116 2.88843C10.8885 1.66537 9.2297 0.978261 7.5 0.978261C5.77033 0.978261 4.1115 1.66537 2.88843 2.88843C1.66537 4.1115 0.978261 5.77033 0.978261 7.5C0.978261 9.2297 1.66537 10.8885 2.88843 12.1116Z" fill="currentColor"/>
<path fill-rule="evenodd" clip-rule="evenodd" d="M14.7445 15.4516L11.7445 12.4516L12.4516 11.7445L15.4516 14.7445L14.7445 15.4516Z" fill="currentColor"/>
</g>

</svg>
