<svg  viewBox="0 0 32 32" fill="none" xmlns="http://www.w3.org/2000/svg">
<g>

<path d="M4 0.232067L4.2057 0.0136951L3.99376 -0.185954L3.78787 0.0199352L4 0.232067ZM8 4H8.3V3.87045L8.2057 3.78163L8 4ZM4 26L3.78787 26.2121L4 26.4243L4.21213 26.2121L4 26ZM12 4L12.2121 3.78787L12 3.57574L11.7879 3.78787L12 4ZM12 32L11.7879 32.2121L12 32.4243L12.2121 32.2121L12 32ZM16 28L16.2121 28.2121L16.3 28.1243V28H16ZM8 28H7.7V28.1243L7.78787 28.2121L8 28ZM16 4L15.7943 3.78163L15.7 3.87045V4H16ZM20 0.232067L20.2057 0.0136951L20 -0.180073L19.7943 0.0136951L20 0.232067ZM24 4H24.3V3.87045L24.2057 3.78163L24 4ZM20 26L19.7879 26.2121L20 26.4243L20.2121 26.2121L20 26ZM28 4L28.2121 3.78787L28 3.57574L27.7879 3.78787L28 4ZM28 31.709L27.796 31.929L28.0079 32.1254L28.2121 31.9211L28 31.709ZM24 28H23.7V28.1309L23.796 28.22L24 28ZM0.444199 4.21213L4.21213 0.444199L3.78787 0.0199352L0.0199352 3.78787L0.444199 4.21213ZM3.7943 0.450439L7.7943 4.21837L8.2057 3.78163L4.2057 0.0136951L3.7943 0.450439ZM7.78787 21.7879L3.78787 25.7879L4.21213 26.2121L8.21213 22.2121L7.78787 21.7879ZM4.21213 25.7879L0.212132 21.7879L-0.212132 22.2121L3.78787 26.2121L4.21213 25.7879ZM7.7 4V8H8.3V4H7.7ZM7.7 8V22H8.3V8H7.7ZM8.21213 8.21213L12.2121 4.21213L11.7879 3.78787L7.78787 7.78787L8.21213 8.21213ZM11.7879 4.21213L15.7879 8.21213L16.2121 7.78787L12.2121 3.78787L11.7879 4.21213ZM15.7879 27.7879L11.7879 31.7879L12.2121 32.2121L16.2121 28.2121L15.7879 27.7879ZM7.78787 28.2121L11.7879 32.2121L12.2121 31.7879L8.21213 27.7879L7.78787 28.2121ZM8.3 28V22H7.7V28H8.3ZM16.3 8V4H15.7V8H16.3ZM16.2057 4.21837L20.2057 0.450439L19.7943 0.0136951L15.7943 3.78163L16.2057 4.21837ZM19.7943 0.450439L23.7943 4.21837L24.2057 3.78163L20.2057 0.0136951L19.7943 0.450439ZM23.7879 21.7879L19.7879 25.7879L20.2121 26.2121L24.2121 22.2121L23.7879 21.7879ZM15.7 8V22H16.3V8H15.7ZM15.7 22V28H16.3V22H15.7ZM20.2121 25.7879L16.2121 21.7879L15.7879 22.2121L19.7879 26.2121L20.2121 25.7879ZM23.7 4V8H24.3V4H23.7ZM23.7 8V22H24.3V8H23.7ZM24.2121 8.21213L28.2121 4.21213L27.7879 3.78787L23.7879 7.78787L24.2121 8.21213ZM27.7879 4.21213L31.7879 8.21213L32.2121 7.78787L28.2121 3.78787L27.7879 4.21213ZM31.4969 27.7879L27.7879 31.4969L28.2121 31.9211L31.9211 28.2121L31.4969 27.7879ZM28.204 31.489L24.204 27.78L23.796 28.22L27.796 31.929L28.204 31.489ZM24.3 28V22H23.7V28H24.3ZM0 0V-0.6H-0.6V0H0ZM32 0H32.6V-0.6H32V0ZM0 32H-0.6V32.6H0V32ZM32 32V32.6H32.6V32H32ZM0 0.6H32V-0.6H0V0.6ZM0.6 32V22H-0.6V32H0.6ZM0.6 22V0H-0.6V22H0.6ZM32 31.4H12V32.6H32V31.4ZM12 31.4H0V32.6H12V31.4ZM31.4 0V8H32.6V0H31.4ZM31.4 8V32H32.6V8H31.4Z" fill="currentColor" />
</g>

</svg>
