<svg  viewBox="0 0 32 32" fill="none" xmlns="http://www.w3.org/2000/svg">
<g>
<path d="M7.88553 23.7218H8.18553V23.597L8.09692 23.509L7.88553 23.7218ZM7.88553 32L7.67415 32.2129L8.18553 32.7207V32H7.88553ZM13.9686 7.83731L14.18 7.62444L14.0922 7.53731H13.9686V7.83731ZM24.1074 23.9455L24.3188 23.7327V23.7327L24.1074 23.9455ZM26.1352 19.9187H26.4352V19.7938L26.3465 19.7058L26.1352 19.9187ZM20.0521 25.9591L19.8407 26.172L19.9285 26.2591H20.0521V25.9591ZM7.88553 13.8778H7.58553V14.0026L7.67415 14.0906L7.88553 13.8778ZM26.1352 0.503389L26.3367 0.281194L25.8352 -0.173809V0.503389H26.1352ZM26.1352 8H25.8352V8.12227L25.9206 8.2097L26.1352 8ZM-0.211385 16.1044L7.67415 23.9347L8.09692 23.509L0.211385 15.6787L-0.211385 16.1044ZM7.58553 23.7218V32H8.18553V23.7218H7.58553ZM8.09692 31.7871L0.211385 23.9568L-0.211385 24.3826L7.67415 32.2129L8.09692 31.7871ZM-0.21148 0.212782L7.67405 8.05009L8.09701 7.62453L0.21148 -0.212782L-0.21148 0.212782ZM7.88553 8.13731H13.9686V7.53731H7.88553V8.13731ZM7.67415 8.05019L23.896 24.1584L24.3188 23.7327L8.09692 7.62444L7.67415 8.05019ZM13.7572 8.05019L25.9238 20.1315L26.3465 19.7058L14.18 7.62444L13.7572 8.05019ZM23.896 24.1584L25.9238 26.172L26.3465 25.7462L24.3188 23.7327L23.896 24.1584ZM25.9199 26.1681L31.7848 32.209L32.2152 31.791L26.3504 25.7501L25.9199 26.1681ZM25.8352 19.9187V25.9591H26.4352V19.9187H25.8352ZM26.1352 25.6591H20.0521V26.2591H26.1352V25.6591ZM20.2635 25.7462L8.09692 13.6649L7.67415 14.0906L19.8407 26.172L20.2635 25.7462ZM8.18553 13.8778V7.83731H7.58553V13.8778H8.18553ZM32.2016 5.60156L26.3367 0.281194L25.9336 0.725584L31.7984 6.04595L32.2016 5.60156ZM25.8352 0.503389V8H26.4352V0.503389H25.8352ZM25.9206 8.2097L31.7855 14.2097L32.2145 13.7903L26.3497 7.7903L25.9206 8.2097ZM7.88553 32V31.4V32ZM0 0V-0.6H-0.6V0H0ZM32 32V32.6H32.6V32H32ZM32 0H32.6V-0.6H32V0ZM0 32H-0.6V32.6H1.45128e-07L0 32ZM0.6 24.1697V15.8915H-0.6V24.1697H0.6ZM32.6 14V5.82376H31.4V14H32.6ZM32.6 5.82376V0H31.4V5.82376H32.6ZM32 -0.6H0V0.6H32V-0.6ZM-0.6 0V15.8915H0.6V0H-0.6ZM-0.6 24.1697V32H0.6V24.1697H-0.6ZM1.45128e-07 32.6H7.88553V31.4L-1.45128e-07 31.4L1.45128e-07 32.6ZM7.88553 32.6H32V31.4L7.88553 31.4V32.6ZM32.6 32V14H31.4V32H32.6Z" fill="currentColor"/>
</g>
</svg>
