<svg  viewBox="0 0 32 32" fill="none" xmlns="http://www.w3.org/2000/svg">
<g>

<path d="M32 16L32.2121 16.2121L32.4243 16L32.2121 15.7879L32 16ZM20 16L20.2121 16.2121L20.4268 15.9974L20.2096 15.7853L20 16ZM14 16L14.2121 16.2121L14.4243 16L14.2121 15.7879L14 16ZM15.7879 0.212132L31.7879 16.2121L32.2121 15.7879L16.2121 -0.212132L15.7879 0.212132ZM32 15.7H26V16.3H32V15.7ZM26.2121 15.7879L10.2121 -0.212132L9.78787 0.212132L25.7879 16.2121L26.2121 15.7879ZM25.7879 15.7879L9.78787 31.7879L10.2121 32.2121L26.2121 16.2121L25.7879 15.7879ZM16.2121 32.2121L32.2121 16.2121L31.7879 15.7879L15.7879 31.7879L16.2121 32.2121ZM3.39975 0.214675L19.7904 16.2147L20.2096 15.7853L3.81887 -0.214675L3.39975 0.214675ZM19.7879 15.7879L3.78787 31.7879L4.21213 32.2121L20.2121 16.2121L19.7879 15.7879ZM0.212132 30.2121L14.2121 16.2121L13.7879 15.7879L-0.212132 29.7879L0.212132 30.2121ZM14.2121 15.7879L0.212132 1.78787L-0.212132 2.21213L13.7879 16.2121L14.2121 15.7879ZM32 0H32.6V-0.6H32V0ZM32 32V32.6H32.6V32H32ZM0 32H-0.6V32.6H0V32ZM0 0V-0.6H-0.6V0H0ZM31.4 0V16H32.6V0H31.4ZM31.4 16V32H32.6V16H31.4ZM10 0.6H16V-0.6H10V0.6ZM16 31.4H10V32.6H16V31.4ZM16 0.6H24V-0.6H16V0.6ZM24 0.6H32V-0.6H24V0.6ZM32 31.4H28V32.6H32V31.4ZM28 31.4H24V32.6H28V31.4ZM24 31.4H16V32.6H24V31.4ZM3.60931 0.6H10V-0.6H3.60931V0.6ZM10 31.4H4V32.6H10V31.4ZM4 31.4H2V32.6H4V31.4ZM2 31.4H0V32.6H2V31.4ZM0 0.6H2V-0.6H0V0.6ZM2 0.6H3.60931V-0.6H2V0.6ZM0.6 32V30H-0.6V32H0.6ZM0.6 30V2H-0.6V30H0.6ZM0.6 2V0H-0.6V2H0.6Z" fill="currentColor" />
</g>

</svg>
