<svg viewBox="0 0 32 32" fill="none" xmlns="http://www.w3.org/2000/svg">
	<path fill-rule="evenodd" clip-rule="evenodd" d="M0 0V32H32V0H0ZM31.4 0.6H17.8708L31.4 7.36459V0.6ZM31.4 8.03541L24.3 4.48541V27.8146L31.4 31.3646V8.03541ZM23.7 27.5146V4.18541L16.5292 0.6H16.3V23.8146L23.7 27.5146ZM15.7 23.8146V0.6H15.4708L8.3 4.18541V27.5146L15.7 23.8146ZM7.7 27.8146V4.48541L0.6 8.03541V31.3646L7.7 27.8146ZM0.6 7.36459L14.1292 0.6H0.6V7.36459ZM8.00254 28.3341L1.87082 31.4H14.3744L8.00254 28.3341ZM17.8708 31.4H30.1292L24 28.3354L17.8708 31.4ZM23.3292 28L16.5292 31.4H16.3V24.4854L23.3292 28ZM15.7 31.372V24.4854L8.68117 27.9948L15.7 31.372Z" fill="currentColor" />
</svg>
