<svg viewBox="0 0 32 32" fill="none" xmlns="http://www.w3.org/2000/svg">
	<path fill-rule="evenodd" clip-rule="evenodd" d="M0 32H32V0H0V32ZM0.6 0.6V3.43689L7.69223 0.6H0.6ZM9.30777 0.6L0.830336 3.99098L16 9.6796L31.1515 3.99779L22.2323 0.6H9.30777ZM23.9177 0.6L31.4 3.4504V0.6H23.9177ZM31.4 4.5454L16.3 10.2079V13.5671L31.4 7.9046V4.5454ZM31.4 8.5454L26.9384 10.2185L31.4 11.5579V8.5454ZM30.8958 12.033L26.0106 10.5664L16.3 14.2079V17.5655L30.8958 12.033ZM15.7 17.5671V14.2079L5.98815 10.566L0.949351 12.0356L15.7 17.5671ZM5.05065 10.2144L0.6 8.5454V11.5125L5.05065 10.2144ZM0.6 12.5454V15.9046L15.7 21.5671V18.2079L0.6 12.5454ZM15.7 22.2079L5.98815 18.566L0.949351 20.0356L15.7 25.5671V22.2079ZM15.7 26.2079L0.6 20.5454V23.9046L15.7 29.5671V26.2079ZM16.3 29.5671V26.2071L31.4 20.4835V23.9046L16.3 29.5671ZM31.4 24.5454L16 30.3204L0.6 24.5454V31.4H31.4V24.5454ZM31.4 19.5579V16.5454L26.9384 18.2185L31.4 19.5579ZM26.0106 18.5664L16.3 22.2079V25.5655L30.8958 20.033L26.0106 18.5664ZM16.3 21.5671V18.2071L31.4 12.4835V15.9046L16.3 21.5671ZM0.6 19.5125L5.05065 18.2144L0.6 16.5454V19.5125ZM0.6 7.9046L15.7 13.5671V10.2079L0.6 4.5454V7.9046Z" fill="currentColor" />
</svg>
