<svg viewBox="0 0 16 16" fill="none" xmlns="http://www.w3.org/2000/svg">
	<path fill-rule="evenodd" clip-rule="evenodd" d="M15.2716 0.214449C15.3357 0.274138 15.3874 0.34588 15.4238 0.425573C15.4602 0.505267 15.4805 0.591351 15.4836 0.678903C15.4867 0.766454 15.4725 0.853758 15.4419 0.935823C15.4112 1.01789 15.3647 1.0931 15.3049 1.15717L9.88058 6.9742L15.8676 14.9214C15.9421 15.0204 15.9875 15.1382 15.9987 15.2615C16.01 15.3849 15.9866 15.5089 15.9313 15.6198C15.876 15.7306 15.7909 15.8238 15.6855 15.889C15.5802 15.9542 15.4588 15.9887 15.3349 15.9888H11.6827C11.5794 15.9888 11.4775 15.9649 11.3851 15.9188C11.2927 15.8728 11.2122 15.8059 11.15 15.7234L6.9364 10.1317L1.6734 15.7768C1.61369 15.8408 1.54195 15.8925 1.46228 15.9288C1.3826 15.9651 1.29655 15.9854 1.20904 15.9884C1.12153 15.9915 1.03428 15.9773 0.952257 15.9466C0.870236 15.916 0.795057 15.8695 0.731012 15.8098C0.666966 15.75 0.615309 15.6783 0.57899 15.5986C0.54267 15.5189 0.522399 15.4329 0.519335 15.3454C0.51627 15.2579 0.530472 15.1706 0.561129 15.0886C0.591786 15.0066 0.638298 14.9314 0.69801 14.8674L6.12235 9.05033L0.135308 1.10317C0.0608945 1.00421 0.0155081 0.886485 0.00423453 0.763183C-0.00703906 0.639881 0.0162455 0.515876 0.0714792 0.405063C0.126713 0.29425 0.211713 0.201006 0.316956 0.135781C0.422199 0.0705555 0.543525 0.0359253 0.667341 0.0357708H4.32024C4.4234 0.0358219 4.52515 0.0598137 4.61747 0.105858C4.70979 0.151903 4.79016 0.218743 4.85227 0.301121L9.06586 5.8928L14.3282 0.247784C14.3879 0.183658 14.4596 0.131925 14.5393 0.0955408C14.619 0.0591571 14.7051 0.0388364 14.7926 0.0357405C14.8802 0.0326447 14.9675 0.0468342 15.0496 0.0774981C15.1316 0.108162 15.2068 0.154699 15.2709 0.214449H15.2716ZM8.5045 7.36423C8.4857 7.34248 8.46833 7.31955 8.45249 7.29556L3.98755 1.36852H2.00409L12.0147 14.656H13.9982L8.5045 7.36423Z" fill="currentColor" />
</svg>
