<svg viewBox="0 0 16 16" fill="none" xmlns="http://www.w3.org/2000/svg">
<path fill-rule="evenodd" clip-rule="evenodd" d="M9.83299 3.2222C12.4716 3.2222 14.6108 5.36129 14.6108 8C14.6108 10.6387 12.4716 12.7778 9.83299 12.7778V11.7778C11.9194 11.7778 13.6108 10.0864 13.6108 8C13.6108 5.91358 11.9193 4.2222 9.83299 4.2222V3.2222Z" fill="currentColor"/>
<path fill-rule="evenodd" clip-rule="evenodd" d="M9.83299 5.66665C11.1216 5.66665 12.1663 6.7113 12.1663 8C12.1663 9.28863 11.1216 10.3333 9.83299 10.3333V9.33333C10.5693 9.33333 11.1663 8.73635 11.1663 8C11.1663 7.2636 10.5693 6.66665 9.83299 6.66665V5.66665Z" fill="currentColor"/>
<path fill-rule="evenodd" clip-rule="evenodd" d="M8.49984 1.5284V14.4716L3.56183 10.9444H1.38867V5.05555H3.56183L8.49984 1.5284ZM7.49984 3.47159L3.8823 6.05555H2.38867V9.94444H3.8823L7.49984 12.5284V3.47159Z" fill="currentColor"/>
</svg>
