<svg  viewBox="0 0 16 16" fill="none" xmlns="http://www.w3.org/2000/svg">
<g>
<path fill-rule="evenodd" clip-rule="evenodd" d="M15.3332 8.5H0.666504V7.5H15.3332V8.5Z" fill="currentColor"/>
<path fill-rule="evenodd" clip-rule="evenodd" d="M5.19853 8L7.7918 0.868461L6.85201 0.52672L4.13447 8L6.85201 15.4733L7.7918 15.1315L5.19853 8Z" fill="currentColor"/>
<path fill-rule="evenodd" clip-rule="evenodd" d="M9.1476 0.526717L11.8652 8L9.1476 15.4733L8.20781 15.1315L10.8011 8L8.20781 0.868465L9.1476 0.526717Z" fill="currentColor"/>
<path fill-rule="evenodd" clip-rule="evenodd" d="M7.99984 1.16666C6.18752 1.16666 4.44944 1.8866 3.16794 3.1681C1.88644 4.4496 1.1665 6.18769 1.1665 8C1.1665 9.81231 1.88644 11.5504 3.16794 12.8319C4.44944 14.1134 6.18752 14.8333 7.99984 14.8333C9.81215 14.8333 11.5502 14.1134 12.8317 12.8319C14.1132 11.5504 14.8332 9.81231 14.8332 8C14.8332 6.18769 14.1132 4.4496 12.8317 3.1681C11.5502 1.8866 9.81215 1.16666 7.99984 1.16666ZM2.46083 2.46099C3.92987 0.99196 5.92231 0.166664 7.99984 0.166664C10.0774 0.166664 12.0698 0.99196 13.5388 2.46099C15.0079 3.93003 15.8332 5.92247 15.8332 8C15.8332 10.0775 15.0079 12.07 13.5388 13.539C12.0698 15.008 10.0774 15.8333 7.99984 15.8333C5.92231 15.8333 3.92987 15.008 2.46083 13.539C0.991799 12.07 0.166504 10.0775 0.166504 8C0.166504 5.92247 0.991799 3.93003 2.46083 2.46099Z" fill="currentColor"/>
</g>

</svg>
