{
    "asset" : {
        "generator" : "Khronos glTF Blender I/O v3.4.50",
        "version" : "2.0"
    },
    "scene" : 0,
    "scenes" : [
        {
            "name" : "Scene",
            "nodes" : [
                0
            ]
        }
    ],
    "nodes" : [
        {
            "mesh" : 0,
            "name" : "Curve.007",
            "scale" : [
                88.52886962890625,
                88.52886962890625,
                88.52886962890625
            ],
            "translation" : [
                0.9435617923736572,
                -0.07693952322006226,
                0.4574429392814636
            ]
        }
    ],
    "materials" : [
        {
            "doubleSided" : true,
            "name" : "SVGMat.001",
            "pbrMetallicRoughness" : {
                "baseColorFactor" : [
                    0,
                    0,
                    0,
                    1
                ],
                "metallicFactor" : 0,
                "roughnessFactor" : 0.4000000059604645
            }
        }
    ],
    "meshes" : [
        {
            "name" : "Curve.008",
            "primitives" : [
                {
                    "attributes" : {
                        "POSITION" : 0,
                        "TEXCOORD_0" : 1,
                        "NORMAL" : 2
                    },
                    "indices" : 3,
                    "material" : 0
                }
            ]
        }
    ],
    "accessors" : [
        {
            "bufferView" : 0,
            "componentType" : 5126,
            "count" : 11176,
            "max" : [
                -0.0027252831496298313,
                0.003051137551665306,
                0.0009033327223733068
            ],
            "min" : [
                -0.017356473952531815,
                0.0010111373849213123,
                -0.010423403233289719
            ],
            "type" : "VEC3"
        },
        {
            "bufferView" : 1,
            "componentType" : 5126,
            "count" : 11176,
            "type" : "VEC2"
        },
        {
            "bufferView" : 2,
            "componentType" : 5126,
            "count" : 11176,
            "type" : "VEC3"
        },
        {
            "bufferView" : 3,
            "componentType" : 5123,
            "count" : 47460,
            "type" : "SCALAR"
        }
    ],
    "bufferViews" : [
        {
            "buffer" : 0,
            "byteLength" : 134112,
            "byteOffset" : 0,
            "target" : 34962
        },
        {
            "buffer" : 0,
            "byteLength" : 89408,
            "byteOffset" : 134112,
            "target" : 34962
        },
        {
            "buffer" : 0,
            "byteLength" : 134112,
            "byteOffset" : 223520,
            "target" : 34962
        },
        {
            "buffer" : 0,
            "byteLength" : 94920,
            "byteOffset" : 357632,
            "target" : 34963
        }
    ],
    "buffers" : [
        {
            "byteLength" : 452552,
            "uri" : "data:application/octet-stream;base64,"
        }
    ]
}
