<svg xmlns="http://www.w3.org/2000/svg" width="736" height="575" fill="none"><g clip-path="url(#a)"><path fill="#FCFAF8" d="M0 0h736v575H0z"/><path fill="#464645" fill-rule="evenodd" d="m137.613 541.988 186.562 23.425L795.916 409.31l.157.475-471.849 156.138-186.489-23.415-15.672 10.454-31.703-2.991-59.894-88.741-14.626 37.894-12.835-5.316 19.278-49.946.003-.01 7.05-20.781.001-.004L174.57 18.584l12.951 5.006-52.715 146.815 10.633 39.959 11.086 4.777 26.609-45.29.431.253-26.833 45.671-11.713-5.048-10.736-40.343 52.603-146.503-12.019-4.646L29.807 423.236l-7.051 20.786-.003.01-19.106 49.501 11.912 4.933 14.786-38.31 60.298 89.339 31.291 2.952 15.679-10.459Zm-68.166-64.325 43.145 61.253-14.989-1.965-34.826-51.599 6.67-7.689Zm10.045-7.91L43.1 424.335l70.135-195.331 37.465-4.091-80.346 190.95 20.879 62.091-11.71-8.18-.03-.021Zm46.271 31.713 13.664 27.541 183.269 22.577 464.366-153.662.157.475-464.473 153.697-183.647-22.624-13.727-27.667-17.2-12.015-24.37-73.879 79.159-186.435 11.136-17.706.004-.007 17.943-30.541.431.253-17.951 30.555-11.118 17.678-79.07 186.225 24.259 73.542 17.168 11.993Zm-55.944-85.622 80.09-190.342-36.311 3.965L43.664 424.24l36.174 45.144 10.436 7.291-20.455-60.831ZM38.17 438.661l23.807 29.711-6.634 5.966-19.484-28.867 2.31-6.81Zm-1.758 6.736 19.024 28.185 5.855-5.266-22.941-28.63-1.938 5.711Zm75.113 92.874-42.12-59.798-6 6.916 34.486 51.095 13.634 1.787Zm-15.873-40.147.697-.69 20.377 13.783 12.98 21.048-7.959 5.454-26.095-39.595ZM129.28 200.23l-4.739-3.457 2.193-6.108 2.546 9.565Zm-11.103 14.267 2.004-5.581 5.139 3.748-7.143 1.833ZM96.07 497.848l25.816 39.171 7.145-4.897-12.674-20.551-20.287-13.723Zm32.363-298.854-1.77-6.652-1.525 4.248 3.295 2.404Zm-9.467 14.785 5.203-1.335-3.743-2.731-1.46 4.066Z" clip-rule="evenodd"/><path fill="#6A6A69" fill-rule="evenodd" d="m678.858 26.488-1.297 11.422-1.445-.164 1.297-11.423 1.445.165Zm-4.698 1.198-1.297 11.422-1.444-.164 1.296-11.423 1.445.165Zm-4.698 1.198-1.296 11.422-1.445-.164 1.296-11.423 1.445.165Zm-4.697 1.198-1.297 11.422-1.445-.164 1.297-11.423 1.445.165Zm-4.698 1.198-1.297 11.422-1.445-.164 1.297-11.422 1.445.164Zm-4.698 1.198-1.296 11.423-1.445-.165 1.296-11.422 1.445.164Zm-4.697 1.198L649.375 45.1l-1.445-.165 1.297-11.422 1.445.164Zm-4.698 1.198-1.297 11.423-1.445-.165 1.297-11.422 1.445.164Zm-4.698 1.198-1.296 11.423-1.445-.165 1.296-11.422 1.445.164Zm-4.697 1.198-1.297 11.423-1.445-.165 1.297-11.422 1.445.164Zm-4.698 1.198-1.297 11.423-1.445-.165 1.297-11.422 1.445.164Zm-4.698 1.198-1.296 11.423-1.445-.165 1.296-11.422 1.445.164Zm-4.697 1.199-1.297 11.422-1.445-.164 1.297-11.423 1.445.165Zm-4.698 1.198-1.297 11.422-1.445-.164 1.297-11.423 1.445.165Zm-4.698 1.198-1.296 11.422-1.445-.164 1.296-11.423 1.445.165Zm-4.698 1.198-1.296 11.422-1.445-.164 1.297-11.423 1.444.165Zm-4.697 1.198-1.297 11.422-1.445-.164 1.297-11.423 1.445.165Zm-4.698 1.198L597.7 58.277l-1.445-.164 1.297-11.423 1.445.165Zm-4.698 1.198-1.296 11.422-1.445-.164 1.296-11.423 1.445.165Zm-4.697 1.198-1.297 11.422-1.445-.164 1.297-11.423 1.445.165Zm-4.698 1.198-1.297 11.422-1.445-.164 1.297-11.422 1.445.164Zm-4.698 1.198L578.91 63.07l-1.445-.164 1.296-11.422 1.445.164Zm-4.697 1.198-1.297 11.422-1.445-.164 1.297-11.422 1.445.164Zm-4.698 1.198-1.297 11.423-1.445-.165 1.297-11.422 1.445.164Zm-4.698 1.198-1.296 11.423-1.445-.165 1.296-11.422 1.445.164Zm-4.697 1.198-1.297 11.423-1.445-.165 1.297-11.422 1.445.164Zm-4.698 1.198-1.297 11.423-1.445-.165 1.297-11.422 1.445.164Zm-4.698 1.199-1.296 11.422-1.445-.165 1.296-11.422 1.445.165Zm-4.697 1.197-1.297 11.423-1.445-.165 1.297-11.422 1.445.164Zm-4.698 1.199-1.297 11.422-1.445-.165 1.297-11.422 1.445.165Zm-4.698 1.198-1.296 11.422-1.445-.165 1.296-11.422 1.445.165Zm-4.697 1.198-1.297 11.422-1.445-.165 1.297-11.422 1.445.165Zm-4.698 1.198-1.297 11.422-1.445-.164 1.297-11.423 1.445.165Zm-4.698 1.198-1.297 11.422-1.445-.164 1.297-11.423 1.445.165Zm-4.697 1.198-1.297 11.422-1.445-.164 1.297-11.423 1.445.165Zm-4.698 1.198-1.297 11.422-1.445-.164 1.297-11.423 1.445.165Zm-4.698 1.198-1.297 11.422-1.445-.164 1.297-11.423 1.445.165Zm-4.697 1.198-1.297 11.422-1.445-.164 1.297-11.423 1.445.165Zm-4.698 1.198-1.297 11.422-1.445-.164 1.297-11.422 1.445.164Zm-4.698 1.198-1.297 11.422-1.445-.164 1.297-11.422 1.445.164Zm-4.698 1.198-1.296 11.423-1.445-.165 1.296-11.422 1.445.164Zm-4.697 1.198-1.297 11.423-1.445-.165 1.297-11.422 1.445.164Zm-4.698 1.198-1.297 11.423-1.445-.165 1.297-11.422 1.445.164Zm-4.698 1.198-1.296 11.423-1.445-.165 1.296-11.422 1.445.164Zm-4.697 1.198-1.297 11.423-1.445-.165 1.297-11.422 1.445.164Zm-4.698 1.198-1.297 11.423-1.445-.165 1.297-11.422 1.445.164Zm-4.698 1.198-1.296 11.423-1.445-.165 1.296-11.422 1.445.165Zm-4.697 1.199-1.297 11.422-1.445-.165 1.297-11.422 1.445.165Zm-4.698 1.198-1.297 11.422-1.445-.165 1.297-11.422 1.445.165Zm-4.698 1.198-1.296 11.422-1.445-.164 1.296-11.423 1.445.165Zm-4.697 1.198-1.297 11.422-1.445-.164 1.297-11.423 1.445.165Zm-4.698 1.198-1.297 11.422-1.445-.164 1.297-11.423 1.445.165Zm-4.698 1.198-1.296 11.422-1.445-.164 1.296-11.423 1.445.165Zm-4.698 1.198-1.296 11.422-1.445-.164 1.297-11.423 1.444.165Zm-4.697 1.198-1.297 11.422-1.445-.164 1.297-11.423 1.445.165Zm-4.698 1.198-1.297 11.422-1.444-.164 1.296-11.422 1.445.164Zm-4.698 1.198-1.296 11.423-1.445-.165 1.296-11.422 1.445.164Zm-4.697 1.198-1.297 11.423-1.445-.165 1.297-11.422 1.445.164Zm-4.698 1.198-1.296 11.423-1.445-.165 1.296-11.422 1.445.164Zm-4.698 1.198-1.296 11.423-1.445-.165 1.296-11.422 1.445.164Zm-4.697 1.198-1.297 11.423-1.445-.165 1.297-11.422 1.445.164Zm-4.698 1.198-1.297 11.423-1.445-.165 1.297-11.422 1.445.164Zm-4.698 1.198-1.296 11.423-1.445-.165 1.296-11.422 1.445.164Zm-4.697 1.199-1.297 11.422-1.445-.165 1.297-11.422 1.445.165Zm-4.698 1.198-1.297 11.422-1.445-.165 1.297-11.422 1.445.165Zm-4.698 1.198-1.296 11.422-1.445-.165 1.296-11.422 1.445.165Zm-4.697 1.198-1.297 11.422-1.445-.164 1.297-11.423 1.445.165Zm-4.698 1.198-1.297 11.422-1.445-.164 1.297-11.423 1.445.165Zm-4.698 1.198-1.296 11.422-1.445-.164 1.296-11.423 1.445.165Zm-4.697 1.198-1.297 11.422-1.445-.164 1.297-11.423 1.445.165Zm-4.698 1.198-1.297 11.422-1.445-.164 1.297-11.423 1.445.165Zm-4.698 1.198-1.296 11.422-1.445-.164 1.296-11.423 1.445.165Zm-4.697 1.198-1.297 11.422-1.445-.164 1.297-11.423 1.445.165Zm-4.698 1.198-1.297 11.422-1.445-.164 1.297-11.423 1.445.165Zm-4.698 1.198-1.296 11.423-1.445-.165 1.296-11.422 1.445.164Zm-4.698 1.198-1.296 11.423-1.445-.165 1.296-11.422 1.445.164Zm-4.697 1.198-1.297 11.423-1.445-.165 1.297-11.422 1.445.164Zm-4.698 1.198-1.297 11.423-1.445-.165 1.297-11.422 1.445.164Zm-4.698 1.198-1.296 11.423-1.445-.165 1.296-11.422 1.445.164Zm-4.697 1.198-1.297 11.423-1.445-.165 1.297-11.422 1.445.164Zm-4.698 1.198-1.297 11.423-1.445-.165 1.297-11.422 1.445.164Zm-4.698 1.199-1.296 11.422-1.445-.165 1.296-11.422 1.445.165Zm-4.697 1.198-1.297 11.422-1.445-.165 1.297-11.422 1.445.165Zm-4.698 1.198-1.297 11.422-1.445-.165 1.297-11.422 1.445.165Zm-4.698 1.198-1.296 11.422-1.445-.164 1.296-11.423 1.445.165Zm-4.697 1.198-1.297 11.422-1.445-.164 1.297-11.423 1.445.165Zm-4.698 1.198-1.297 11.422-1.445-.164 1.297-11.423 1.445.165Zm-4.698 1.198-1.296 11.422-1.445-.164 1.296-11.423 1.445.165Zm-4.697 1.198-1.297 11.422-1.445-.164 1.297-11.423 1.445.165Zm-4.698 1.198-1.297 11.422-1.445-.164 1.297-11.423 1.445.165Zm-4.698 1.198-1.296 11.422-1.445-.164 1.296-11.423 1.445.165Zm-4.697 1.198-1.297 11.422-1.445-.164 1.297-11.422 1.445.164Zm-4.698 1.198-1.297 11.423-1.445-.165 1.297-11.422 1.445.164Zm-4.698 1.198-1.297 11.423-1.445-.165 1.297-11.422 1.445.164Zm-4.697 1.198-1.297 11.423-1.445-.165 1.297-11.422 1.445.164Zm-4.698 1.198-1.297 11.423-1.445-.165 1.297-11.422 1.445.164Zm-4.698 1.198-1.296 11.423-1.445-.165 1.296-11.422 1.445.164Zm-4.697 1.198-1.297 11.423-1.445-.165 1.297-11.422 1.445.164Zm-4.698 1.198-1.297 11.423-1.445-.165 1.297-11.422 1.445.164Zm-4.698 1.199-1.297 11.422-1.445-.165 1.297-11.422 1.445.165Zm-4.698 1.198-1.296 11.422-1.445-.165 1.297-11.422 1.444.165Zm-4.697 1.198-1.297 11.422-1.445-.164 1.297-11.423 1.445.165Zm-4.698 1.198-1.297 11.422-1.445-.164 1.297-11.423 1.445.165Zm-4.698 1.198L193.7 161.31l-1.445-.164 1.296-11.423 1.445.165Zm-4.697 1.198-1.297 11.422-1.445-.164 1.297-11.423 1.445.165Zm-4.698 1.198-1.297 11.422-1.445-.164 1.297-11.423 1.445.165Zm-4.698 1.198-1.296 11.422-1.445-.164 1.296-11.423 1.445.165Zm-4.697 1.198-1.297 11.422-1.445-.164 1.297-11.423 1.445.165Zm-4.698 1.198-1.297 11.422-1.445-.164 1.297-11.423 1.445.165Zm-4.698 1.198-1.296 11.422-1.445-.164 1.296-11.422 1.445.164Zm-4.697 1.198-1.297 11.423-1.445-.165 1.297-11.422 1.445.164Zm-4.698 1.198-1.297 11.423-1.445-.165 1.297-11.422 1.445.164Zm-4.698 1.198-1.296 11.423-1.445-.165 1.296-11.422 1.445.164Zm-4.698 1.198-1.296 11.423-1.445-.165 1.296-11.422 1.445.164Zm-4.697 1.198-1.297 11.423-1.445-.165 1.297-11.422 1.445.164Zm-4.698 1.198-1.296 11.423-1.445-.165 1.296-11.422 1.445.164Zm-4.698 1.199-1.296 11.422-1.445-.165 1.296-11.422 1.445.165Zm-4.697 1.198-1.297 11.422-1.445-.165 1.297-11.422 1.445.165Zm-4.698 1.198-1.296 11.422-1.445-.165 1.296-11.422 1.445.165Zm-4.698 1.198-1.296 11.422-1.445-.164 1.296-11.423 1.445.165Zm-4.697 1.198-1.297 11.422-1.445-.164 1.297-11.423 1.445.165Zm-4.698 1.198-1.297 11.422-1.445-.164 1.297-11.423 1.445.165Zm-4.698 1.198-1.296 11.422-1.445-.164 1.296-11.423 1.445.165Zm-4.697 1.198-1.297 11.422-1.445-.164 1.297-11.423 1.445.165Zm-4.698 1.198-1.297 11.422-1.445-.164 1.297-11.423 1.445.165Zm-4.698 1.198-1.296 11.422-1.445-.164 1.296-11.423 1.445.165Zm-4.697 1.198-1.297 11.422-1.445-.164 1.297-11.422 1.445.164Zm-4.698 1.198-1.297 11.423-1.445-.165 1.297-11.422 1.445.164Zm-4.698 1.198-1.296 11.423-1.445-.165 1.296-11.422 1.445.164Zm-4.697 1.198L71.56 192.46l-1.445-.165 1.297-11.422 1.445.164Zm-4.698 1.198-1.297 11.423-1.445-.165 1.297-11.422 1.445.164Zm-4.698 1.198-1.297 11.423-1.445-.165 1.297-11.422 1.445.164Zm-4.697 1.198-1.297 11.423-1.445-.165 1.297-11.422 1.445.164Zm-4.698 1.198-1.297 11.423-1.445-.165 1.297-11.422 1.445.164Zm-4.698 1.199-1.297 11.422-1.444-.165 1.296-11.422 1.445.165Zm-4.698 1.198-1.296 11.422-1.445-.165 1.296-11.422 1.445.165Zm-4.697 1.198-1.297 11.422-1.445-.165 1.297-11.422 1.445.165Zm-4.698 1.198-1.297 11.422-1.445-.164 1.297-11.423 1.445.165Zm-4.698 1.198-1.296 11.422-1.445-.164 1.297-11.423 1.444.165Zm-4.697 1.198-1.297 11.422-1.445-.164 1.297-11.423 1.445.165Zm-4.698 1.198-1.297 11.422-1.445-.164 1.297-11.423 1.445.165Zm-4.698 1.198-1.296 11.422-1.445-.164 1.296-11.423 1.445.165Zm-4.697 1.198-1.297 11.422-1.445-.164 1.297-11.423 1.445.165Zm-4.698 1.198-1.297 11.422-1.445-.164 1.297-11.423 1.445.165Z" clip-rule="evenodd"/><path fill="#ECEAE8" d="m505.113 262.814 78.095-25.842-16.893-51.215-78.096 25.842-15.967-48.407-47.487 15.714 30.207 91.575 2.655 8.047 6.474 19.628 47.487-15.713-6.475-19.629ZM123.133 409.654 228.2 374.886l-39.016-118.281-66.051 153.049ZM668.239 262.301l25.65 74.685-64.482 22.213-25.649-74.685 64.481-22.213Z"/><path fill="#ECEAE8" d="m670.358 345.092 23.336 67.952-40.95 14.106-23.337-67.951 40.951-14.107ZM317.651 416.365l-22.353-.62 5.55-31.153 10.398.309 6.405 31.464ZM197.817 428.865l10.956 13.605-55.166 44.567-10.956-13.605zM162.596 498.997l45.055 14.368 41.362-71.772-11.189-6.281-75.228 63.685ZM220.488 517.257l45.661 7.645 14.501-92.238-12.693-1.85-47.469 86.443ZM278.907 527.016l59.246.849-19.877-105.917-23.963-.934-15.406 106.002ZM412.687 182.647l5.221 15.829-65.821 21.78-5.221-15.828 65.821-21.781ZM319.095 213.618l1.926 5.839-24.548 8.124-1.926-5.84 24.548-8.123ZM266.776 230.931l1.926 5.839-68.583 22.695-1.926-5.84 68.583-22.694ZM345.708 294.296l4.815 14.599-24.548 8.123-4.816-14.599 24.549-8.123ZM289.392 315.487l11.761 35.652-24.549 8.124-11.76-35.652 24.548-8.124Z"/><path fill="#ECEAE8" d="m347.94 204.073 39.133 118.635-28.845 9.545-39.133-118.635 28.845-9.545ZM302.678 219.05l39.133 118.635-42.039 13.911-39.133-118.635 21.019-6.955 21.02-6.956ZM240.233 239.714l39.133 118.635-42.04 13.911-39.133-118.635 42.04-13.911Z"/><path fill="#ECEAE8" d="m393.271 278.557 12.52 37.957-58.763 19.445-12.521-37.957 58.764-19.445Z"/><path fill="#ECEAE8" d="m400.635 276.12 4.816 14.599-7.365 2.437-4.815-14.599 7.364-2.437ZM186.651 219.936l214.14-70.071 8.294 25.346-214.14 70.072z"/><path fill="#6A6A69" d="m420.52 205.452-.437 21.416-22.904 7.579-6.326-19.178 29.667-9.817Z"/><path fill="#6A6A69" d="m426.846 224.63-.437 21.416-22.904 7.579-6.326-19.178 29.667-9.817Z"/><path fill="#6A6A69" d="m433.172 243.808-.437 21.416-22.904 7.579-6.326-19.178 29.667-9.817Z"/><path fill="#6A6A69" d="m439.498 262.986-.437 21.416-22.903 7.579-6.327-19.178 29.667-9.817Z"/><path fill="#6A6A69" d="m445.824 282.164-.436 21.416-22.904 7.579-6.326-19.178 29.666-9.817Z"/><path fill="url(#b)" d="m439.2 275-.1 9.4-23.1 7.2-2.6-8.1 25.8-8.5Z"/><path fill="url(#c)" d="m432.9 256-.2 9.2-22.9 7.4-2.7-8.1 25.8-8.5Z"/><path fill="url(#d)" d="m426.6 237-.2 9.05-22.9 7.45-2.7-8 25.8-8.5Z"/><path fill="url(#e)" d="m420.2 218-.1 8.9-22.75 8.1-2.75-8.5 25.6-8.5Z"/><mask id="f" width="82" height="122" x="330" y="405" maskUnits="userSpaceOnUse" style="mask-type:alpha"><path fill="#FFA69E" d="m378.151 405.365 33.5 101-60.526 19.807-20.974-104.807 48-16Z"/></mask><g mask="url(#f)"><path fill="#D7D6D4" fill-rule="evenodd" d="m368.541 367.892-44.839 81.025-.624-.346 44.839-81.025.624.346Zm1.984 6.014-44.839 81.026-.624-.346 44.839-81.026.624.346Zm5.896 17.875-44.839 81.025-.624-.346 44.839-81.025.624.346Zm1.984 6.014-44.839 81.026-.624-.346 44.839-81.026.624.346Zm1.984 6.015-44.839 81.025-.624-.346 44.839-81.025.624.346Zm1.984 6.015-44.839 81.025-.624-.346 44.839-81.025.624.346Zm3.94 11.944-44.839 81.025-.624-.346 44.839-81.025.624.346Zm3.94 11.945-44.839 81.025-.624-.346 44.839-81.025.624.346Zm7.852 23.804-44.924 81.053-.623-.346 44.924-81.053.623.346Zm1.984 6.015-44.924 81.053-.623-.347 44.924-81.053.623.347Zm3.94 11.944-44.924 81.053-.623-.346 44.924-81.053.623.346Zm1.984 6.015-44.924 81.053-.623-.347 44.924-81.052.623.346Zm3.94 11.944-44.924 81.053-.623-.346 44.924-81.053.623.346Zm1.984 6.015-44.924 81.053-.623-.346 44.924-81.053.623.346Zm-47.308-143.419-44.868 80.941-.623-.347 44.868-80.94.623.346Zm1.956 5.93-44.868 80.941-.623-.347 44.868-80.94.623.346Zm5.924 17.959-44.868 80.941-.623-.347 44.868-80.94.623.346Zm1.956 5.93-44.868 80.941-.623-.347 44.868-80.94.623.346Zm9.892 29.989-44.868 80.94-.623-.347 44.868-80.94.623.347Zm3.94 11.944-44.868 80.94-.623-.346 44.868-80.94.623.346Zm3.94 11.945-44.868 80.94-.623-.347 44.868-80.94.623.347Zm1.956 5.93-44.953 80.968-.622-.347 44.952-80.968.623.347Zm1.956 5.93-44.952 80.968-.623-.347 44.952-80.968.623.347Zm5.924 17.959-44.952 80.968-.623-.347 44.952-80.968.623.347Zm5.924 17.959-44.952 80.968-.623-.347 44.952-80.968.623.347Zm5.924 17.959-44.952 80.968-.623-.347 44.952-80.968.623.347Z" clip-rule="evenodd"/></g><g clip-path="url(#g)"><path fill="#464645" d="M351.188 463.774c1.24-.403 2.114.061 2.448 1.088.351 1.081-.162 1.962-1.333 2.343l-1.142.371.678 2.085-1.081.351-1.792-5.516 2.222-.722Zm.62 2.633c.631-.205.819-.636.661-1.123-.178-.548-.627-.688-1.175-.51l-.944.306.53 1.629.928-.302Zm7.183.93-.755-.975-2.305.749-.03 1.23-1.171.38.209-6.166 1.384-.45 3.832 4.854-1.164.378Zm-3.035-1.21 1.674-.544-1.606-2.069-.068 2.613Zm9.329-.835-1.248.405-2.253-1.783-.624.203.739 2.275-1.08.351-1.793-5.516 2.504-.814c1.194-.388 2.008.097 2.322 1.063.262.806-.058 1.583-.871 2.007l2.304 1.809Zm-4.867-3.458.482 1.484 1.225-.398c.525-.171.71-.559.562-1.015-.151-.464-.557-.627-1.044-.469l-1.225.398Zm5.609 3.217-1.792-5.517 1.08-.351.88 2.709 1.388-3.445 1.316-.428-1.204 2.999 3.065 2.495-1.301.423-2.354-1.885-.477 1.172.48 1.477-1.081.351Zm6.467-2.102-1.08.351-1.792-5.516 1.08-.351 1.792 5.516Zm1.134-.368-1.792-5.516 1.24-.403 3.678 3.061-1.251-3.85 1.058-.343 1.792 5.516-1.24.403-3.643-2.98 1.223 3.766-1.065.346Zm7.173-5.586 2.808-.912.956 2.944-.859.28-.338-.808c-.122.688-.69 1.242-1.535 1.517-1.567.509-2.98-.319-3.519-1.977-.564-1.735.197-3.252 1.87-3.796 1.21-.393 2.43-.108 3.026.741l-.952.671c-.371-.468-1.05-.643-1.742-.418-.989.321-1.406 1.264-1.033 2.413.391 1.202 1.257 1.669 2.254 1.346.799-.26 1.244-.909 1.103-1.654l-.027-.084-1.743.566-.269-.829Zm-24.387 21.694-3.823-4.856 1.232-.401 2.868 3.804.092-4.766 1.21-.393-.24 6.177-1.339.435Zm5.087-1.653-1.081.351-1.792-5.516 1.081-.351 1.792 5.516Zm-.373-4.253c-.321-.989.298-1.931 1.424-2.297.997-.324 1.944-.025 2.366.679l-.893.694c-.247-.45-.722-.616-1.209-.457-.456.148-.697.521-.563.931.103.32.431.474.851.447l.927-.049c.974-.055 1.547.389 1.78 1.104.346 1.066-.322 2.014-1.47 2.388-1.058.343-2.037.047-2.492-.73l.903-.664c.272.475.762.636 1.279.468.495-.161.774-.546.628-.995-.114-.35-.416-.504-.829-.479l-.883.051c-.959.051-1.589-.384-1.819-1.091Zm7.134 2.056-1.08.351-1.792-5.516 1.08-.351 1.792 5.516Zm3.146-7.121.297.913-1.575.512 1.495 4.603-1.08.351-1.496-4.603-1.582.514-.297-.913 4.238-1.377Zm4.92 4.601c-1.696.551-3.201-.222-3.757-1.933-.556-1.712.206-3.222 1.903-3.773 1.697-.552 3.209.219 3.765 1.931s-.214 3.224-1.911 3.775Zm-.326-1.004c.981-.319 1.434-1.257 1.065-2.39-.368-1.134-1.288-1.634-2.269-1.316-.982.319-1.424 1.262-1.055 2.396.368 1.134 1.285 1.626 2.259 1.31Zm8.448-1.736-1.248.406-2.253-1.783-.624.202.739 2.275-1.08.351-1.792-5.516 2.503-.813c1.194-.388 2.008.096 2.322 1.062.262.807-.058 1.584-.871 2.008l2.304 1.808Zm-4.866-3.457.482 1.483 1.225-.398c.525-.17.71-.558.561-1.015-.15-.464-.557-.626-1.044-.468l-1.224.398Zm4.102-.669c-.321-.989.298-1.93 1.424-2.296.997-.324 1.944-.026 2.366.678l-.894.694c-.247-.45-.721-.615-1.208-.457-.456.148-.697.521-.564.932.104.319.432.474.852.447l.926-.049c.975-.056 1.548.389 1.781 1.104.346 1.065-.322 2.014-1.471 2.387-1.057.344-2.036.048-2.491-.73l.903-.663c.272.475.762.635 1.279.467.495-.16.773-.545.628-.994-.114-.35-.417-.504-.829-.48l-.883.052c-.96.051-1.589-.384-1.819-1.092Z"/></g><mask id="h" width="149" height="177" x="489" y="288" maskUnits="userSpaceOnUse" style="mask-type:alpha"><path fill="silver" d="m590.001 288.378 47.246 143.23-100.803 33.357-47.246-143.23z"/></mask><g mask="url(#h)"><path fill="#D7D6D4" fill-rule="evenodd" d="m567.616 201.885-76.585 138.391-1.064-.591 76.585-138.391 1.064.591Zm3.389 10.273L494.42 350.549l-1.065-.591 76.585-138.391 1.065.591Zm10.07 30.53L504.49 381.079l-1.064-.591 76.585-138.391 1.064.591Zm3.389 10.273-76.585 138.391-1.065-.591 76.585-138.391 1.065.591Zm3.389 10.273-76.586 138.39-1.064-.591 76.585-138.39 1.065.591Zm3.388 10.272-76.585 138.391-1.064-.591 76.585-138.391 1.064.591Zm6.73 20.402-76.585 138.391-1.065-.591 76.585-138.391 1.065.591Zm6.729 20.401L528.115 452.7l-1.064-.591 76.585-138.391 1.064.591Zm13.412 40.658-76.73 138.438-1.065-.591 76.731-138.439 1.064.592Zm3.388 10.273-76.73 138.438-1.064-.591 76.73-138.439 1.064.592Zm6.73 20.401L551.5 524.08l-1.064-.592 76.73-138.438 1.064.591Zm3.389 10.273-76.731 138.439-1.064-.592 76.731-138.438 1.064.591Zm6.729 20.401-76.73 138.439-1.064-.592 76.73-138.438 1.064.591Zm3.389 10.273-76.73 138.439-1.065-.592 76.731-138.438 1.064.591Zm-80.803-244.959-76.633 138.246-1.064-.592 76.633-138.245 1.064.591Zm3.341 10.129-76.633 138.245-1.064-.591 76.633-138.246 1.064.592Zm10.119 30.674L497.76 360.678l-1.064-.592 76.633-138.246 1.065.592Zm3.341 10.128-76.634 138.246-1.064-.592 76.633-138.246 1.065.592Zm16.895 51.22-76.634 138.246-1.064-.592 76.634-138.246 1.064.592Zm6.73 20.401-76.634 138.246-1.064-.592 76.633-138.246 1.065.592Zm6.729 20.401-76.633 138.246-1.065-.592 76.634-138.245 1.064.591Zm3.341 10.129-76.779 138.293-1.063-.592 76.778-138.293 1.064.592Zm3.341 10.128-76.779 138.294-1.063-.593 76.778-138.293 1.064.592Zm10.118 30.675-76.778 138.293-1.064-.593 76.779-138.293 1.063.593Zm10.118 30.674-76.778 138.293-1.064-.592 76.779-138.294 1.063.593Zm10.119 30.674-76.779 138.293-1.064-.592 76.779-138.294 1.064.593Z" clip-rule="evenodd"/></g><g clip-path="url(#i)"><path fill="#464645" d="M549.188 373.773c1.24-.403 2.115.062 2.448 1.089.351 1.08-.161 1.962-1.333 2.343l-1.141.37.677 2.085-1.08.351-1.793-5.516 2.222-.722Zm.62 2.634c.632-.206.82-.637.661-1.124-.178-.548-.627-.688-1.175-.51l-.943.307.529 1.628.928-.301Zm7.183.929-.754-.974-2.305.749-.03 1.229-1.172.381.209-6.166 1.385-.45 3.831 4.853-1.164.378Zm-3.034-1.209 1.674-.544-1.606-2.069-.068 2.613Zm9.328-.836-1.247.406-2.254-1.783-.624.202.74 2.275-1.081.351-1.792-5.516 2.503-.813c1.195-.388 2.008.096 2.322 1.062.262.807-.058 1.584-.87 2.008l2.303 1.808Zm-4.866-3.457.482 1.484 1.225-.398c.525-.171.71-.559.562-1.016-.151-.464-.557-.626-1.044-.468l-1.225.398Zm5.609 3.216-1.793-5.516 1.081-.351.88 2.708 1.387-3.445 1.316-.427-1.204 2.998 3.065 2.495-1.301.423-2.354-1.885-.477 1.173.48 1.476-1.08.351Zm6.467-2.101-1.08.351-1.793-5.516 1.081-.351 1.792 5.516Zm1.134-.369-1.793-5.516 1.241-.403 3.678 3.062-1.251-3.85 1.057-.344 1.793 5.516-1.241.403-3.643-2.98 1.224 3.766-1.065.346Zm7.173-5.586 2.807-.912.957 2.945-.86.279-.338-.807c-.122.687-.69 1.242-1.534 1.516-1.568.51-2.981-.318-3.52-1.977-.563-1.735.197-3.252 1.871-3.796 1.21-.393 2.429-.108 3.025.742l-.951.671c-.371-.469-1.05-.643-1.743-.418-.989.321-1.406 1.264-1.032 2.413.39 1.202 1.257 1.669 2.254 1.345.798-.259 1.244-.909 1.103-1.654l-.028-.083-1.742.566-.269-.83Zm-22.98 21.237-.26-.799 1.394-4.617-2.501.821-.311-.958 3.88-1.261.257.791-1.401 4.619 2.701-.877.311.958-4.07 1.323Zm7.361-2.291c-1.696.551-3.201-.222-3.757-1.934s.207-3.221 1.903-3.772c1.697-.552 3.209.219 3.765 1.931.557 1.712-.214 3.224-1.911 3.775Zm-.326-1.004c.982-.319 1.434-1.257 1.066-2.391-.369-1.133-1.288-1.634-2.27-1.315-.981.319-1.424 1.262-1.055 2.396.368 1.133 1.285 1.626 2.259 1.31Zm3.982-.285-1.792-5.516 1.24-.403 3.678 3.061-1.251-3.85 1.058-.343 1.792 5.516-1.24.403-3.643-2.98 1.223 3.766-1.065.346Zm5.87-1.907-1.795-5.524 3.683-1.196.311.958-2.602.846.423 1.301 2.32-.754.29.89-2.321.754.462 1.423 2.648-.86.309.951-3.728 1.211Zm6.052-3.397-.267-.821 1.01-4.088 1.164-.379-.986 3.955 1.522-.495-.44-1.354 1.035-.336.44 1.354.76-.247.304.936-.76.247.42 1.293-1.035.336-.42-1.293-2.747.892Z"/></g><circle cx="586.651" cy="437.865" r="7" fill="#FFA69E"/><path stroke="#FFA69E" stroke-dasharray="4 4" stroke-linecap="round" stroke-linejoin="round" stroke-width="2" d="m490 339.5-57.499 19-30.001-91 7.501-2.5"/><path stroke="#FFA69E" stroke-linejoin="round" stroke-width="2" d="m32.15 452.365 61.5 91 26.001 3 17-10.5 185.5 23.5 274.5-91-9-27.5"/><path fill="url(#j)" d="M0 0h736v578H0z"/><path fill="url(#k)" d="M0 0h736v578H0z"/><path fill="url(#l)" d="M0 0h736v578H0z"/><path fill="url(#m)" d="M0 0h736v578H0z"/><path fill="#464645" d="m83.836 242.557-6.837-2.442 1.628-4.558 1.186.424-1.15 3.221 1.61.575 1.026-2.872 1.102.393-1.026 2.872 1.761.629 1.17-3.277 1.178.421-1.648 4.614Zm-1.1-10.09c.529-1.095 1.563-1.554 2.703-1.147 1.318.471 1.907 1.796 1.375 3.284-.517 1.45-1.743 2.117-3.047 1.725l.304-1.388c.678.242 1.298-.036 1.553-.752.243-.678-.026-1.294-.704-1.536-.697-.249-1.308.096-1.594.896l-.293.819-.8-.285-.966-2.172-1.013 2.835-1.177-.421 1.611-4.511 1.093.391.954 2.262Zm5.693-2.771-5.377-1.92.176 1.974-1.224-.437-.203-2.674.252-.706 6.847 2.445-.47 1.318Zm-.672-3.171-1.017-.364-3.275-4.121.514-1.441 3.16 3.996.673-1.884-1.676-.598.458-1.281 1.676.598.336-.941 1.158.413-.336.942 1.601.572-.457 1.281-1.601-.572-1.214 3.4Z"/><path fill="#464645" stroke="#464645" stroke-width=".2" d="m92.23 208.175 1.46 4.279.033.099.098-.039.454-.179.089-.035-.032-.091-1.886-5.452-.04-.118-.107.066-4.894 3.03-.081.05.046.084.237.427.05.092.09-.056 3.843-2.388-2.74 7.746-.034.094.094.034.452.161.095.034.033-.095 2.74-7.743ZM16.73 415.751l-1.447-4.282-.034-.1-.098.038-.454.179-.09.035.032.09 1.87 5.458.04.118.107-.065 4.903-3.016.081-.05-.046-.083-.236-.428-.05-.092-.09.055-3.85 2.376 2.764-7.737.034-.094-.094-.034-.452-.163-.094-.034-.034.095-2.762 7.734Z"/><path fill="#464645" d="m25.375 404.571-6.83-2.463 1.642-4.553 1.185.428-1.16 3.217 1.609.58 1.034-2.869 1.101.396-1.034 2.87 1.759.634 1.18-3.274 1.176.424-1.662 4.61Zm-1.07-10.093c.533-1.094 1.569-1.55 2.707-1.14 1.317.475 1.901 1.802 1.366 3.289-.523 1.448-1.75 2.111-3.053 1.716l.308-1.388c.678.245 1.298-.031 1.556-.746.244-.678-.022-1.295-.7-1.539-.696-.251-1.308.092-1.597.891l-.295.819-.8-.289-.959-2.174-1.02 2.832-1.177-.424 1.625-4.506 1.091.393.948 2.266Zm5.702-2.754-5.371-1.937.17 1.975-1.223-.441-.194-2.675.254-.705 6.839 2.466-.475 1.317Zm-2.075-7.306c.533-1.094 1.569-1.549 2.707-1.139 1.317.475 1.902 1.802 1.366 3.288-.523 1.449-1.75 2.112-3.054 1.716l.31-1.387c.677.244 1.297-.032 1.555-.747.244-.677-.022-1.294-.7-1.538-.696-.251-1.308.091-1.597.891l-.295.818-.8-.288-.959-2.174-1.02 2.831-1.177-.424 1.625-4.506 1.091.394.948 2.265Z"/><path fill="#D7D6D4" d="M59.65 312.865h24v14h-24z"/><path fill="#464645" d="M64.282 322.865v-5.8h1.304l2.552 4.048v-4.048h1.112v5.8h-1.304l-2.544-3.96v3.96h-1.12Zm5.876-4.792v-1.008h4.152v.872c-1.488 2.208-1.968 2.752-1.92 4.928h-1.192c-.048-2.088.464-2.888 1.76-4.792h-2.8Zm4.414 3.432v-.864l2.224-3.576h1.224l-2.16 3.456h1.6v-1.424h1.088v1.424h.8v.984h-.8v1.36H77.46v-1.36h-2.888Z"/><ellipse cx="14.041" cy="14.055" fill="#1B1B1B" rx="14.041" ry="14.055" transform="translate(405.5 248) skewX(.02)"/><path fill="#FCFAF8" d="M425.116 261.148c-.393 0-.753-.09-1.078-.259a2.023 2.023 0 0 1-.775-.733 2.048 2.048 0 0 1-.292-1.081c0-.406.101-.767.292-1.082.191-.315.449-.563.774-.732a2.31 2.31 0 0 1 1.078-.259c.393 0 .741.09 1.066.259.326.169.584.417.775.733.191.315.281.676.281 1.081 0 .406-.09.767-.281 1.082a1.94 1.94 0 0 1-.774.732 2.297 2.297 0 0 1-1.066.259Zm-.023-.439c.314 0 .595-.068.842-.203a1.54 1.54 0 0 0 .595-.574c.146-.248.213-.53.213-.857 0-.315-.068-.608-.214-.856a1.458 1.458 0 0 0-.595-.575 1.725 1.725 0 0 0-.842-.203c-.314 0-.583.068-.841.203a1.54 1.54 0 0 0-.595.574c-.146.248-.214.53-.213.857 0 .315.067.597.213.845s.337.439.584.575c.258.146.539.214.853.214Zm-.73-.631v-2.017h.797c.325 0 .584.09.752.271.168.18.258.428.258.743 0 .327-.089.575-.269.744-.179.169-.426.259-.741.259h-.797Zm.517-.226-.247-.248.516.001c.157 0 .281-.045.359-.147a.609.609 0 0 0 .124-.394c-.001-.18-.045-.316-.135-.406a.473.473 0 0 0-.359-.135h-.517l.247-.248v1.577h.012ZM414.284 267.039 414.282 257l4.535.001c.584 0 1.1.113 1.55.338.449.226.808.541 1.055.935.247.395.371.857.371 1.364 0 .541-.135 1.014-.415 1.419a2.389 2.389 0 0 1-1.145.89c.539.158.965.451 1.28.868.303.428.46.935.46 1.533 0 .552-.134 1.036-.404 1.442-.269.405-.64.709-1.133.923-.483.214-1.056.316-1.695.316l-4.457-.001v.011Zm3.883-5.892c.427 0 .775-.101 1.01-.315.247-.214.371-.507.371-.89-.012-.361-.135-.643-.371-.845-.236-.203-.561-.316-.977-.316h-1.773v2.366h1.74Zm.18 4.113c.449 0 .797-.113 1.033-.327.236-.214.359-.518.359-.89 0-.383-.123-.676-.37-.89-.247-.214-.584-.316-1.011-.316h-1.931l.001 2.422 1.919.001Z"/><ellipse cx="14.041" cy="14.055" fill="#B3B2B0" rx="14.041" ry="14.055" transform="translate(250 123) skewX(.02)"/><path fill="#1B1B1B" fill-rule="evenodd" d="M263.499 130.509c-3.817.145-4.507 1.945-4.507 2.55v2.559h4.506l.001-5.109Zm1 0-.001 5.109h4.508v-2.559c0-.605-.69-2.405-4.507-2.55Zm5.507 2.55v6.119a2.948 2.948 0 0 1-2.948 2.947h-6.118a2.944 2.944 0 0 1-2.948-2.947v-6.119c0-1.408 1.454-3.559 6.007-3.559s6.007 2.151 6.007 3.559Zm-11.014 3.559v1.752h1.948a.5.5 0 0 1 0 1h-1.938a1.946 1.946 0 0 0 1.938 1.755h6.118a1.947 1.947 0 0 0 1.938-1.755h-1.938a.5.5 0 0 1 0-1h1.948v-1.752h-5.008s.001 0 0 0h-5.006Zm.237 6.429c.233.149.3.458.151.69l-.959 1.498a.5.5 0 1 1-.842-.539l.959-1.498a.5.5 0 0 1 .691-.151Zm9.542 0a.5.5 0 0 1 .691.151l.959 1.498a.5.5 0 0 1-.842.539l-.959-1.498a.5.5 0 0 1 .151-.69Z" clip-rule="evenodd"/><path fill="#D7D6D4" fill-rule="evenodd" d="M429.958 468.363a.682.682 0 0 1 .88.395l1.141 3.005a.682.682 0 0 1-1.275.484l-1.141-3.005a.68.68 0 0 1 .395-.879Zm19.121 8.595a.682.682 0 0 1-.395.88l-3.005 1.141a.68.68 0 1 1-.484-1.275l3.005-1.141a.681.681 0 0 1 .879.395Zm-23.437 8.901a.681.681 0 0 1-.395.879l-3.005 1.141a.682.682 0 1 1-.484-1.275l3.005-1.141a.68.68 0 0 1 .879.396Zm13.216 5.941a.682.682 0 0 1 .88.395l1.141 3.005a.682.682 0 0 1-1.275.484l-1.141-3.005a.681.681 0 0 1 .395-.879Z" clip-rule="evenodd"/><ellipse cx="9.091" cy="9.1" fill="#B3B2B0" rx="9.091" ry="9.1" transform="rotate(24.216 -880.562 1238.823) skewX(.02)"/></g><defs><linearGradient id="b" x1="435.5" x2="433.5" y1="285.5" y2="278" gradientUnits="userSpaceOnUse"><stop stop-color="#464645"/><stop offset="1" stop-color="#464645" stop-opacity="0"/></linearGradient><linearGradient id="c" x1="429.299" x2="427.299" y1="266.5" y2="259" gradientUnits="userSpaceOnUse"><stop stop-color="#464645"/><stop offset="1" stop-color="#464645" stop-opacity="0"/></linearGradient><linearGradient id="d" x1="422.1" x2="420.1" y1="247.5" y2="240" gradientUnits="userSpaceOnUse"><stop stop-color="#464645"/><stop offset="1" stop-color="#464645" stop-opacity="0"/></linearGradient><linearGradient id="e" x1="416.299" x2="414.299" y1="228.5" y2="221" gradientUnits="userSpaceOnUse"><stop stop-color="#464645"/><stop offset="1" stop-color="#464645" stop-opacity="0"/></linearGradient><linearGradient id="j" x1="683" x2="614.5" y1="50.5" y2="193.5" gradientUnits="userSpaceOnUse"><stop stop-color="#FCF9F8"/><stop offset="1" stop-color="#FCFAF8" stop-opacity="0"/></linearGradient><linearGradient id="k" x1="47" x2="112" y1="158.5" y2="242.5" gradientUnits="userSpaceOnUse"><stop stop-color="#FCF9F8"/><stop offset="1" stop-color="#FCFAF8" stop-opacity="0"/></linearGradient><linearGradient id="l" x1="-7.5" x2="119" y1="539" y2="445" gradientUnits="userSpaceOnUse"><stop offset=".278" stop-color="#FCF9F8"/><stop offset=".54" stop-color="#FCFAF8" stop-opacity="0"/></linearGradient><linearGradient id="m" x1="715.5" x2="601.5" y1="427.5" y2="431.5" gradientUnits="userSpaceOnUse"><stop stop-color="#FCF9F8"/><stop offset="1" stop-color="#FCFAF8" stop-opacity="0"/></linearGradient><clipPath id="a"><path fill="#fff" d="M0 0h736v575H0z"/></clipPath><clipPath id="g"><rect width="59" height="37" x="335.651" y="458.097" fill="#fff" rx="18.5" transform="rotate(-18 335.651 458.097)"/></clipPath><clipPath id="i"><rect width="59" height="37" x="533.651" y="368.097" fill="#fff" rx="18.5" transform="rotate(-18 533.651 368.097)"/></clipPath></defs></svg>