<svg width="498" height="384" fill="none" xmlns="http://www.w3.org/2000/svg"><g clip-path="url(#a)" fill="#060619" stroke="#060619"><path d="m380.697 24.123-.009.004c-9.514 5.214-17.302 12.603-22.926 22.165-5.63 9.572-8.219 20.438-8.219 33.008 0 12.14 2.59 23.006 8.219 32.576 5.618 9.552 12.973 16.945 22.493 22.163 9.95 5.649 20.76 8.252 32.847 8.252 12.085 0 22.894-2.602 32.413-7.819 9.514-5.214 17.303-12.603 22.926-22.165 5.63-9.572 8.22-20.437 8.22-33.007 0-12.138-2.589-23.435-8.22-33.008-5.618-9.553-12.976-16.948-22.93-22.167-9.518-5.215-20.326-7.817-32.409-7.817-12.091 0-22.466 2.605-32.405 7.815Zm24.254 85.414h1.203l-.848-.853-.284-.284v-8.344h10.225c6.098 0 10.992-1.754 14.122-5.797 3.077-3.975 4.824-8.826 4.824-15.39 0-6.972-1.736-12.293-5.294-15.868-3.539-3.556-7.964-5.32-14.081-5.32h-9.796V47.49l-.854.859-9.438 9.481-.848.853H404.022v40.374H394.311l.848.852 8.863 8.904v.725h.929Zm-.929-59.626v7.77h-7.734l7.734-7.77Zm0 50.145v7.339l-7.305-7.339h7.305Zm9.938 58.043c-14.932 0-28.578-3.427-40.945-9.853-12.369-6.857-22.166-15.848-29.408-27.831-7.243-11.986-11.081-25.687-11.081-41.115 0-15.429 3.838-29.13 11.081-41.115 7.247-11.993 17.047-21.409 29.402-27.829C385.377 3.93 399.025.5 413.96.5c14.932 0 28.151 3.428 40.522 9.856 12.354 6.42 22.154 15.836 29.402 27.829 7.238 11.977 10.652 25.676 10.652 41.115 0 15.438-3.414 29.137-10.652 41.115-7.248 11.992-17.048 21.408-29.402 27.828-12.37 6.428-26.018 9.856-40.522 9.856Zm-28.242-40.942V41.012h29.958c12.354 0 22.066 3.423 28.375 10.184 6.331 6.784 9.732 16.134 9.732 28.104 0 12.407-3.404 21.738-10.138 28.08-6.752 6.36-16.057 9.777-27.969 9.777h-29.958ZM227.215 189.678c20.49 6.005 36.697 17.148 48.64 33.001 11.514 16.283 17.492 35.572 17.492 58.318 0 21.034-5.126 39.466-15.36 54.888-10.237 15.428-24.314 27.004-43.108 35.158l-.004.002c-18.367 8.153-40.171 12.024-64.572 12.024H.5V.5h172.805c22.242 0 41.895 4.297 58.974 12.876 17.086 8.583 30.741 20.591 40.124 35.59 9.383 14.995 14.08 32.571 14.08 51.882 0 20.6-5.124 38.599-15.783 54.019-10.665 15.43-24.74 26.574-43.525 33.866l-1.371.532 1.411.413Zm-25.526-77.193v-.008l-.001-.008c-.432-13.906-5.197-24.822-14.329-32.686-9.119-7.853-21.683-12.189-37.647-12.189H81.434V159.1h66.991c16.367 0 29.805-3.893 38.939-12.193 9.562-8.298 14.325-19.65 14.325-34.421ZM81.934 222.746h-.5v93.66h73.855c17.236 0 30.671-4.33 39.801-12.629 9.13-8.298 13.891-20.078 13.891-34.417 0-14.773-4.764-26.126-14.328-34.425-9.557-8.291-22.558-12.189-38.936-12.189H81.934Z"/></g><defs><clipPath id="a"><path fill="#fff" d="M0 0h495.036v384H0z"/></clipPath></defs></svg>