<svg viewBox="0 0 307 392" fill="none" xmlns="http://www.w3.org/2000/svg">
<g >
<path fill-rule="evenodd" clip-rule="evenodd" d="M30.4917 208.717C50.3817 188.142 76.7691 174.314 109.566 167.178C96.7419 149.912 87.4354 135.017 81.6872 122.506L81.6771 122.484L81.6677 122.462C76.0547 109.131 73.2302 96.1069 73.2302 83.4C73.2302 67.5469 77.1084 53.4012 84.8953 41.0095C92.6626 28.3026 103.259 18.4146 116.658 11.3597C130.068 3.95188 145.05 0.26001 161.57 0.26001C177.038 0.26001 191.141 3.59992 203.848 10.3018C216.9 16.656 227.163 25.6748 234.596 37.3547C242.044 49.059 245.75 62.5175 245.75 77.68C245.75 100.971 237.091 122.291 219.89 141.598L219.881 141.608C203.108 160.093 181.184 173.536 154.17 181.97L238.201 294.178C243.198 282.708 247.154 269.557 250.058 254.712L250.061 254.697L250.064 254.681C253.51 238.832 255.23 223.339 255.23 208.2V206.601L282.67 208.353V209.76C282.67 230.333 280.229 249.876 275.34 268.383L275.339 268.39C270.545 286.196 263.898 302.671 255.396 317.808L306.516 386.5H272.622L238.509 341.186C226.002 356.953 209.556 369.237 189.213 378.054C168.559 387.155 146.339 391.7 122.57 391.7C98.8109 391.7 77.6134 387.332 59.0103 378.557L58.9998 378.552L58.9895 378.547C40.3972 369.426 25.9653 356.945 15.7493 341.093L15.7453 341.086L15.7413 341.08C5.52159 324.869 0.430176 306.213 0.430176 285.16C0.430176 254.979 10.4474 229.465 30.4917 208.717ZM188.61 376.68C208.885 367.894 225.207 355.65 237.577 339.947C237.897 339.541 238.215 339.132 238.53 338.72L273.37 385H303.53L253.61 317.92C262.277 302.667 269.037 286.027 273.89 268C278.744 249.627 281.17 230.213 281.17 209.76L256.73 208.2C256.73 208.701 256.728 209.201 256.725 209.703C256.615 224.478 254.883 239.577 251.53 255C248.543 270.266 244.444 283.785 239.233 295.557C239.001 296.081 238.767 296.602 238.53 297.12L151.69 181.16C152.201 181.007 152.709 180.852 153.216 180.695C180.245 172.341 202.096 158.975 218.77 140.6C235.757 121.533 244.25 100.56 244.25 77.68C244.25 62.7734 240.61 49.6 233.33 38.16C226.05 26.72 215.997 17.88 203.17 11.64C190.69 5.05334 176.824 1.76001 161.57 1.76001C145.277 1.76001 130.544 5.40001 117.37 12.68C104.197 19.6133 93.7968 29.32 86.1702 41.8C78.5435 53.9334 74.7302 67.8 74.7302 83.4C74.7302 95.88 77.5035 108.707 83.0502 121.88C88.7985 134.391 98.1748 149.376 111.179 166.834C111.507 167.274 111.837 167.716 112.17 168.16C111.629 168.272 111.089 168.385 110.551 168.5C77.68 175.542 51.3531 189.295 31.5702 209.76C11.8102 230.213 1.93018 255.347 1.93018 285.16C1.93018 305.96 6.95684 324.333 17.0102 340.28C27.0635 355.88 41.2768 368.187 59.6502 377.2C78.0235 385.867 98.9968 390.2 122.57 390.2C146.144 390.2 168.157 385.693 188.61 376.68ZM53.9779 222.753L53.9727 222.758C37.9521 239.461 29.9502 259.54 29.9502 283.08C29.9502 307.645 38.4578 327.326 55.4351 342.269C72.7829 357.233 95.6327 364.78 124.13 364.78C145.771 364.78 165.305 360.66 182.76 352.448C199.872 344.058 213.324 332.9 223.161 318.987L125.063 186.991C93.4819 193.917 69.844 205.874 53.9831 222.747L53.9779 222.753ZM125.69 185.32L225.01 318.96C214.957 333.52 201.09 345.133 183.41 353.8C165.73 362.12 145.97 366.28 124.13 366.28C95.3568 366.28 72.1302 358.653 54.4502 343.4C37.1168 328.147 28.4502 308.04 28.4502 283.08C28.4502 259.16 36.5968 238.707 52.8902 221.72C69.1835 204.387 93.4502 192.253 125.69 185.32ZM201.617 42.3676L201.608 42.3585C191.536 32.6222 178.241 27.7 161.57 27.7C144.22 27.7 130.043 32.9615 118.917 43.4133L118.916 43.4143C108.169 53.4899 102.75 66.9376 102.75 83.92C102.75 95.0953 105.627 106.834 111.443 119.152C117.177 130.956 126.765 145.485 140.255 162.756C164.209 154.522 182.878 143.141 196.346 128.664C209.996 113.647 216.75 97.3573 216.75 79.76C216.75 64.1736 211.684 51.7638 201.627 42.3766L201.617 42.3676ZM197.45 129.68C183.584 144.587 164.344 156.2 139.73 164.52C125.864 146.84 115.984 131.933 110.09 119.8C104.197 107.32 101.25 95.36 101.25 83.92C101.25 66.5867 106.797 52.72 117.89 42.32C129.33 31.5733 143.89 26.2 161.57 26.2C178.557 26.2 192.25 31.2267 202.65 41.28C213.05 50.9867 218.25 63.8134 218.25 79.76C218.25 97.7867 211.317 114.427 197.45 129.68Z" fill="currentColor"/>
</g>
</svg>
