<svg viewBox="0 0 535 416" fill="none" xmlns="http://www.w3.org/2000/svg">
<g >
<g opacity="0.24">
<path fill-rule="evenodd" clip-rule="evenodd" d="M0 0V415.533H184.051C210.477 415.533 234.12 411.331 254.055 402.46C274.454 393.589 289.753 380.983 300.88 364.175C312.006 347.367 317.569 327.291 317.569 304.413C317.569 279.668 311.079 258.658 298.562 240.916C285.581 223.641 267.964 211.502 245.711 204.965C266.109 197.028 281.408 184.889 292.998 168.081C304.588 151.273 310.152 131.663 310.152 109.253C310.152 88.2424 305.052 69.0999 294.853 52.7587C284.653 36.4175 269.818 23.3446 251.274 14.0067C232.73 4.66891 211.404 0 187.296 0H0ZM202.132 158.743C192.396 167.614 178.024 171.816 160.407 171.816H88.5485V73.7688H161.798C178.951 73.7688 192.396 78.4377 202.132 86.8418C211.867 95.2458 216.967 106.918 217.431 121.859C217.431 137.733 212.331 149.872 202.132 158.743ZM210.477 328.691C200.741 337.562 186.369 342.231 167.825 342.231H88.5485V241.85H168.289C185.906 241.85 199.814 246.052 210.013 254.923C220.212 263.793 225.312 275.933 225.312 291.807C225.312 307.214 220.212 319.82 210.477 328.691Z" fill="#D7D6D4"/>
<path fill-rule="evenodd" clip-rule="evenodd" d="M416.317 43.8878V127.461H449.233C462.214 127.461 472.413 123.726 479.831 116.723C487.249 109.719 490.958 99.4478 490.958 85.908C490.958 72.835 487.249 62.5634 480.295 55.0932C473.341 47.6229 462.678 43.8878 449.233 43.8878H416.317ZM437.179 117.657L437.643 118.123H437.179V117.657ZM437.179 107.852H448.77C455.26 107.852 460.36 105.984 463.605 101.782C466.85 97.5803 468.705 92.4445 468.705 85.4411C468.705 77.9708 466.85 72.3681 463.141 68.633C459.432 64.8979 454.796 63.0303 448.306 63.0303H437.179V107.852Z" fill="#D7D6D4"/>
<path fill-rule="evenodd" clip-rule="evenodd" d="M402.873 161.077C416.317 168.081 431.152 171.816 447.379 171.816C463.141 171.816 477.977 168.081 491.421 161.077C504.866 154.074 515.529 143.802 523.41 130.73C531.291 117.657 535 102.716 535 85.908C535 69.0999 531.291 54.1594 523.41 41.0864C515.529 28.0135 504.866 17.7419 491.421 10.7385C477.977 3.73513 463.605 0 447.379 0C431.152 0 416.317 3.73513 402.873 10.7385C389.428 17.7419 378.765 28.0135 370.884 41.0864C363.003 54.1594 358.83 69.0999 358.83 85.908C358.83 102.716 363.003 117.657 370.884 130.73C378.765 143.802 389.428 153.607 402.873 161.077ZM481.222 145.203C471.023 150.806 459.432 153.607 446.451 153.607C433.471 153.607 421.88 150.806 411.217 144.736C401.018 139.134 393.137 131.196 387.11 120.925C381.083 110.653 378.301 98.9809 378.301 85.908C378.301 72.3681 381.083 60.6959 387.11 50.4243C393.137 40.1526 401.482 32.2155 411.681 26.6128C422.344 21.0101 433.471 18.2088 446.451 18.2088C459.432 18.2088 471.023 21.0101 481.222 26.6128C491.885 32.2155 499.766 40.1526 505.793 50.4243C511.82 60.6959 514.601 72.835 514.601 85.908C514.601 99.4478 511.82 111.12 505.793 121.392C499.766 131.663 491.421 139.6 481.222 145.203Z" fill="#D7D6D4"/>
</g>
</g>
<defs>
</defs>
</svg>
