<svg fill="none" xmlns="http://www.w3.org/2000/svg"><path d="M0 23.476V0h10.648C12 0 13.214.276 14.29.8s1.903 1.269 2.482 2.18c.58.937.883 1.986.883 3.2 0 1.268-.33 2.372-.965 3.31-.635.938-1.545 1.627-2.676 2.096 1.269.359 2.262 1.048 2.98 2.042.716.993 1.075 2.179 1.075 3.586 0 1.296-.303 2.427-.938 3.365-.634.938-1.517 1.683-2.648 2.18-1.131.496-2.483.744-3.973.744H0v-.027ZM9.131 9.71c1.02 0 1.793-.248 2.372-.744.58-.497.856-1.187.856-2.07-.028-.827-.304-1.517-.856-1.986-.551-.469-1.296-.717-2.29-.717H5.049v5.545h4.083V9.71Zm.414 9.6c1.048 0 1.876-.248 2.427-.772.552-.497.828-1.214.828-2.097 0-.882-.276-1.572-.855-2.069-.58-.496-1.352-.744-2.373-.744H5.048v5.682h4.497ZM20.496 15.476c0-1.683.359-3.172 1.076-4.469.717-1.296 1.738-2.29 3.062-3.007 1.324-.717 2.841-1.076 4.552-1.076 1.738 0 3.282.359 4.607 1.076 1.324.717 2.345 1.71 3.062 3.007.717 1.297 1.076 2.786 1.076 4.469 0 1.683-.359 3.172-1.076 4.441-.717 1.297-1.738 2.29-3.062 3.007C32.468 23.642 30.95 24 29.186 24c-1.738 0-3.255-.358-4.552-1.076a7.543 7.543 0 0 1-3.062-3.034c-.69-1.297-1.076-2.759-1.076-4.414Zm5.159 0c0 .8.138 1.49.413 2.097.276.607.69 1.075 1.242 1.434s1.186.524 1.903.524c.718 0 1.352-.165 1.904-.496.552-.331.965-.8 1.269-1.407.303-.607.441-1.324.441-2.152 0-.8-.138-1.517-.441-2.124-.304-.607-.69-1.104-1.242-1.435-.524-.33-1.158-.524-1.93-.524-.718 0-1.325.166-1.877.497-.551.33-.965.827-1.24 1.434-.304.635-.442 1.352-.442 2.152ZM41.27 23.476v-16h4.44l.194 1.82a3.434 3.434 0 0 1 1.434-1.572 4.028 4.028 0 0 1 2.125-.579c.33 0 .634.028.882.055.249.055.47.11.635.193v4.47c-.359-.111-.8-.166-1.38-.166-1.13 0-2.013.33-2.565 1.02-.58.69-.855 1.6-.855 2.787v7.944h-4.91v.028ZM53.6 23.476v-16h4.276l.358 1.82c.331-.69.938-1.24 1.82-1.655a6.905 6.905 0 0 1 2.953-.634c1.186 0 2.206.248 3.09.745.882.496 1.544 1.213 2.013 2.124.469.938.69 2.014.69 3.31v10.317h-4.91v-9.13c0-.994-.221-1.739-.635-2.235-.442-.497-1.049-.772-1.849-.772-.882 0-1.572.303-2.096.91s-.773 1.434-.773 2.455v8.772H53.6v-.027ZM74.454 9.71c-.91 0-1.765-.193-2.537-.607a4.729 4.729 0 0 1-1.821-1.71 4.826 4.826 0 0 1-.69-2.51c0-.938.22-1.793.69-2.51.441-.745 1.048-1.297 1.82-1.71.773-.415 1.6-.608 2.538-.608.91 0 1.738.193 2.51.607a4.717 4.717 0 0 1 1.822 1.71c.44.745.662 1.573.662 2.51 0 .939-.221 1.794-.662 2.511a4.354 4.354 0 0 1-1.821 1.71c-.773.387-1.6.607-2.51.607Zm-.027-1.048c.745 0 1.407-.165 1.986-.469a3.607 3.607 0 0 0 1.38-1.352c.33-.579.496-1.241.496-1.986 0-.745-.165-1.407-.497-1.986-.33-.58-.8-1.02-1.379-1.352a4.19 4.19 0 0 0-1.959-.469c-.717 0-1.379.166-1.958.47a3.607 3.607 0 0 0-1.38 1.351c-.33.58-.496 1.241-.496 1.986 0 .745.166 1.407.497 1.986.33.58.8 1.021 1.379 1.352.552.304 1.186.47 1.93.47ZM72.717 7.2V2.483h1.848c.772 0 1.352.22 1.765.634.414.414.607.993.607 1.738 0 .773-.22 1.352-.634 1.766-.414.413-.993.607-1.738.607h-1.848V7.2Zm1.186-.524-.58-.58h1.214c.359 0 .662-.11.855-.33.194-.221.304-.525.304-.91 0-.415-.11-.718-.304-.939-.193-.22-.468-.33-.827-.33H73.35l.58-.58v3.669h-.028Z" fill="currentColor"/></svg>