<svg viewBox="0 0 52 40" fill="none" xmlns="http://www.w3.org/2000/svg">
<g clip-path="url(#clip0_932_526)">
<path d="M43.2048 16.5208C41.6378 16.5208 40.2051 16.1616 38.9067 15.4882C37.6083 14.7699 36.5786 13.8272 35.8174 12.5701C35.0563 11.3131 34.6534 9.87654 34.6534 8.26038C34.6534 6.64422 35.0563 5.20763 35.8174 3.95062C36.5786 2.6936 37.6083 1.70595 38.9067 1.03255C40.2051 0.359147 41.6378 0 43.2048 0C44.7718 0 46.1597 0.359147 47.4581 1.03255C48.7565 1.70595 49.7863 2.6936 50.5474 3.95062C51.3085 5.20763 51.6667 6.64422 51.6667 8.26038C51.6667 9.87654 51.3085 11.3131 50.5474 12.5701C49.7863 13.8272 48.7565 14.8148 47.4581 15.4882C46.1597 16.1616 44.727 16.5208 43.2048 16.5208ZM43.1153 14.7699C44.3689 14.7699 45.4882 14.5006 46.4732 13.9618C47.4581 13.4231 48.264 12.6599 48.8461 11.6723C49.4281 10.6846 49.6967 9.56229 49.6967 8.26038C49.6967 7.00337 49.4281 5.83614 48.8461 4.84849C48.264 3.86083 47.5029 3.09764 46.4732 2.55892C45.4882 2.0202 44.3689 1.75084 43.1153 1.75084C41.8617 1.75084 40.7871 2.0202 39.7574 2.55892C38.7724 3.09764 37.9665 3.86083 37.3845 4.84849C36.8024 5.83614 36.5338 6.95847 36.5338 8.26038C36.5338 9.5174 36.8024 10.6397 37.3845 11.6274C37.9665 12.615 38.7276 13.3782 39.7126 13.9169C40.7424 14.5006 41.8617 14.7699 43.1153 14.7699ZM40.2051 12.2559V4.21998H43.3839C44.6823 4.21998 45.712 4.57913 46.3836 5.29742C47.0552 6.01571 47.4134 7.00337 47.4134 8.26038C47.4134 9.56229 47.0552 10.5499 46.3388 11.2233C45.6225 11.8967 44.6375 12.2559 43.3839 12.2559H40.2051ZM42.2646 11.358L41.2796 10.3704H43.3391C43.9659 10.3704 44.4584 10.1908 44.7718 9.78676C45.0852 9.38272 45.2643 8.88889 45.2643 8.21549C45.2643 7.49719 45.0852 6.95847 44.7271 6.59933C44.3689 6.24018 43.9212 6.06061 43.2943 6.06061H41.2348L42.2198 5.07295V11.358H42.2646Z" fill="#FCFAF8"/>
<path d="M0 40V0H18.0878C20.4159 0 22.4754 0.448934 24.2663 1.3468C26.0572 2.24467 27.4899 3.50168 28.4749 5.07295C29.4598 6.64422 29.9523 8.48485 29.9523 10.5051C29.9523 12.6599 29.4151 14.5455 28.2958 16.1616C27.1765 17.7778 25.699 18.945 23.7291 19.7082C25.8781 20.3367 27.5794 21.5039 28.833 23.165C30.0419 24.8709 30.6687 26.8911 30.6687 29.2705C30.6687 31.4703 30.1314 33.4007 29.0569 35.0168C27.9824 36.633 26.5049 37.8451 24.535 38.6981C22.6098 39.5511 20.3264 39.9551 17.7744 39.9551H0V40ZM15.491 16.5208C17.1924 16.5208 18.5803 16.1167 19.5205 15.2637C20.5055 14.4108 20.998 13.2435 20.998 11.7172C20.9532 10.2806 20.4607 9.15825 19.5205 8.35017C18.5803 7.54209 17.2819 7.09315 15.6254 7.09315H8.55142V16.5208H15.491ZM16.2074 32.9068C17.9983 32.9068 19.3862 32.4579 20.3264 31.6049C21.2666 30.752 21.7591 29.5398 21.7591 28.0584C21.7591 26.532 21.2666 25.3648 20.2816 24.5118C19.2966 23.6588 17.9535 23.2548 16.2522 23.2548H8.55142V32.9068H16.2074Z" fill="#FCFAF8"/>
</g>
<defs>
<clipPath id="clip0_932_526">
<rect width="51.6667" height="40" fill="white"/>
</clipPath>
</defs>
</svg>
