<svg  fill="none" xmlns="http://www.w3.org/2000/svg"><path d="M0 18.018V0h8.164c1.056 0 1.97.211 2.816.633.844.423 1.477.986 1.9 1.69.422.703.704 1.548.704 2.463 0 .985-.282 1.83-.775 2.534a4.667 4.667 0 0 1-2.04 1.618c.985.282 1.759.775 2.322 1.549.563.774.845 1.689.845 2.745 0 .985-.212 1.83-.704 2.604-.493.704-1.126 1.267-2.041 1.689-.845.352-1.9.563-3.027.563H0v-.07ZM7.038 7.46c.774 0 1.408-.21 1.83-.563.422-.352.633-.915.633-1.618 0-.634-.21-1.127-.633-1.549-.422-.352-.985-.563-1.76-.563H3.872V7.39h3.167v.07Zm.282 7.39c.844 0 1.407-.21 1.83-.563.422-.422.633-.915.633-1.618 0-.704-.211-1.197-.633-1.62-.423-.351-1.056-.562-1.83-.562H3.87v4.363H7.32ZM15.695 11.894c0-1.267.281-2.463.845-3.448a6.133 6.133 0 0 1 2.322-2.323c.986-.563 2.182-.844 3.52-.844 1.336 0 2.533.281 3.518.844.986.563 1.83 1.337 2.323 2.323.563.985.844 2.111.844 3.448 0 1.267-.281 2.464-.844 3.45a6.135 6.135 0 0 1-2.323 2.322c-.985.563-2.181.844-3.519.844-1.337 0-2.463-.281-3.519-.844a6.134 6.134 0 0 1-2.322-2.323c-.563-1.056-.845-2.182-.845-3.449Zm3.941 0c0 .634.141 1.127.352 1.62.211.492.563.844.915 1.125.423.282.915.423 1.478.423a3.27 3.27 0 0 0 1.478-.352c.422-.282.774-.634.986-1.056a4.175 4.175 0 0 0 .352-1.619c0-.633-.141-1.126-.352-1.619-.212-.492-.563-.844-.915-1.126-.423-.281-.915-.422-1.478-.422s-1.056.14-1.408.352c-.422.281-.704.633-.985 1.126-.282.352-.423.915-.423 1.548ZM31.672 18.018V5.77h3.378l.14 1.408a2.317 2.317 0 0 1 1.127-1.197c.492-.351.985-.492 1.618-.492.282 0 .493 0 .704.07.211 0 .352.07.493.14v3.45a4.261 4.261 0 0 0-1.056-.141c-.844 0-1.548.281-1.97.774-.423.493-.634 1.267-.634 2.182v6.123h-3.8v-.07ZM41.103 18.018V5.77h3.237l.282 1.408c.281-.563.703-.986 1.407-1.267.704-.352 1.408-.493 2.252-.493.916 0 1.69.211 2.394.563.703.352 1.196.915 1.548 1.62.352.703.563 1.548.563 2.533v7.953h-3.8V11.05c0-.774-.141-1.337-.493-1.76-.352-.422-.775-.563-1.408-.563-.704 0-1.196.211-1.619.704-.422.493-.563 1.126-.563 1.9v6.757h-3.8v-.07ZM62.358 18.018V0h6.968c1.9 0 3.519.352 4.926 1.056 1.408.704 2.393 1.76 3.167 3.096.704 1.338 1.056 2.957 1.056 4.857 0 1.83-.352 3.448-1.056 4.786a7.098 7.098 0 0 1-3.167 3.097c-1.407.703-3.026 1.055-4.926 1.055h-6.968v.07Zm3.87-1.478-2.11-1.971h4.785c1.197 0 2.182-.211 3.027-.704.774-.422 1.337-1.056 1.76-1.9.351-.845.562-1.83.562-3.027 0-1.9-.492-3.308-1.407-4.222-.915-.915-2.253-1.408-3.942-1.408h-4.786l2.112-1.9V16.54ZM82.839 4.012c-.634 0-1.126-.211-1.478-.563-.423-.352-.634-.845-.634-1.478 0-.563.211-1.056.634-1.408.422-.352.915-.563 1.478-.563.633 0 1.126.211 1.478.563.422.352.633.845.633 1.408s-.211 1.055-.633 1.478c-.352.352-.845.563-1.478.563Zm-1.83 1.76h3.73v12.316h-3.73V5.771ZM87.202 11.824c0-1.267.282-2.393.775-3.378.492-.986 1.196-1.76 2.111-2.252.915-.564 1.97-.775 3.097-.775.915 0 1.76.141 2.463.493.704.352 1.197.774 1.478 1.408l.14-1.549h3.661v12.176c0 1.267-.282 2.323-.845 3.238s-1.407 1.619-2.463 2.111c-1.056.493-2.252.704-3.59.704-1.407 0-2.674-.282-3.66-.774-1.055-.493-1.83-1.197-2.463-2.112l2.956-2.111c.211.563.634.985 1.197 1.337.563.352 1.196.493 1.9.493.985 0 1.76-.282 2.393-.774.563-.563.915-1.197.915-2.041v-1.9c-.352.562-.845.985-1.619 1.337-.774.351-1.619.492-2.534.492a6.313 6.313 0 0 1-3.096-.774c-.915-.563-1.549-1.267-2.041-2.182-.493-.915-.775-1.97-.775-3.167Zm3.871-.14c0 .562.141 1.125.352 1.548.211.422.563.774.986 1.055.422.282.915.352 1.478.352s1.055-.14 1.548-.422c.422-.282.774-.633.985-1.126.212-.493.352-.986.352-1.548a3.27 3.27 0 0 0-.352-1.478c-.21-.423-.563-.775-.985-1.056-.422-.282-.915-.352-1.478-.352s-1.056.14-1.548.352c-.423.281-.775.633-.986 1.056a4.175 4.175 0 0 0-.352 1.618ZM105.994 4.012c-.633 0-1.126-.211-1.478-.563-.422-.352-.633-.845-.633-1.478 0-.563.211-1.056.633-1.408.422-.352.915-.563 1.478-.563.634 0 1.126.211 1.478.563.422.352.563.845.563 1.408s-.211 1.055-.563 1.478c-.352.352-.844.563-1.478.563Zm-1.83 1.76h3.73v12.316h-3.73V5.771ZM109.865 9.009V5.77h3.097V1.76h3.73V5.7h3.097V9.01h-3.097v9.009h-3.73v-9.01h-3.097ZM121.337 8.938c.211-1.055.845-1.97 1.901-2.604 1.055-.633 2.322-.985 3.871-.985 1.126 0 2.181.14 2.956.493.844.352 1.478.844 1.9 1.548.422.704.704 1.548.704 2.534v5.56c0 .563 0 1.056.07 1.548.07.423.07.774.141.986h-3.449a5.48 5.48 0 0 1-.211-1.549c-.282.563-.774.986-1.548 1.408a6.159 6.159 0 0 1-2.605.563c-1.266 0-2.252-.352-3.096-1.056-.775-.704-1.197-1.619-1.197-2.815 0-1.197.422-2.182 1.267-2.886.845-.704 1.971-1.126 3.449-1.126h3.378v-.492c0-.564-.141-.915-.493-1.197-.352-.281-.774-.422-1.407-.422-.493 0-.986.14-1.337.352-.352.21-.634.563-.704.915l-3.59-.775Zm3.449 5.49c0 .422.141.774.493 1.056.281.281.774.352 1.266.352.493 0 .915-.07 1.267-.282.352-.21.634-.492.845-.844.211-.352.281-.775.281-1.267v-.422h-2.393c-.563 0-1.055.14-1.337.422-.281.281-.422.563-.422.985ZM135.765 18.018V.07h3.731v18.018h-3.731v-.07Z" fill="currentColor"/></svg>