<svg xmlns="http://www.w3.org/2000/svg" viewBox="0 0 159.54 159.45"><defs><style>.cls-1{fill:#ffa69e}</style></defs><g id="Layer_2" data-name="Layer 2"><g id="Layer_1-2" data-name="Layer 1"><path class="cls-1" d="M58.47 2.72l.86-.21 1.57 6.27 3.55-.89.19.77-4.41 1.1zM70.05.44L74.53 0l.08.78-3.61.35.23 2.36 3.16-.3.07.74-3.16.29.24 2.57 3.64-.34.07.78-4.51.42zM86.22 5.6l-3.42-.22-.8 1.74-.93-.06L84.26 0l1.14.07 2.31 7.42-.92-.06zM86 4.84L84.78 1l-1.66 3.7zM97.94 9.42l-1.32-3.65-1.32-.3-.73 3.17-.86-.2 1.63-7.07 3 .7a1.93 1.93 0 011.69 2.44A2 2 0 0197.59 6l1.35 3.65zm-2.49-4.61l2 .46a1.25 1.25 0 001.65-.94A1.21 1.21 0 0098 2.82l-2-.47zM107.71 4.87l1 .42 1.28 7 2.29-5.52.8.33-2.78 6.69-1-.41-1.3-7-2.27 5.47-.81-.33zM127.91 15.9l1 .79-1.79 6.13 5.67-2.91.94.77-4.63 5.58-.66-.55 3.85-4.64-5.76 3-.53-.47 1.84-6.22-3.9 4.62-.66-.55zM136.29 28.44A3.63 3.63 0 11140.9 34a3.63 3.63 0 11-4.61-5.6zm4 4.88a2.7 2.7 0 10-4-.23 2.68 2.68 0 004.01.23zM143.74 45.36l1.78-3.44-.67-1.17-2.85 1.6-.43-.76 6.31-3.59 1.54 2.69a2 2 0 11-3.41 2.1l-1.77 3.46zm1.7-5l1 1.8a1.24 1.24 0 001.81.56 1.21 1.21 0 00.38-1.81l-1-1.8zM153.67 49.41l1.6 4.22-.73.28-1.29-3.4-2.22.84 1.13 3-.69.26-1.13-3-2.41.92 1.3 3.42-.73.28-1.61-4.23zM154.08 75.7l-.26-3.43-1.82-.53-.07-.93 7.42 2.19.09 1.15-7 3.33-.07-.93zm.72-.35l3.68-1.74-3.9-1.12zM159.54 84.14l-.27 3.11a1.84 1.84 0 01-2.05 1.83 1.68 1.68 0 01-1.6-1.35 1.7 1.7 0 01-1.86 1.15 1.9 1.9 0 01-1.71-2.29l.27-3.08zm-6.72 2.38a1.26 1.26 0 102.49.24l.19-2.09-2.5-.22zm3.24.2a1.25 1.25 0 102.48.27l.17-2-2.48-.22zM154.44 95.46a3.63 3.63 0 11-4.55 2.54 3.53 3.53 0 014.55-2.54zm-1.6 6.11a2.7 2.7 0 10-2.15-3.35 2.67 2.67 0 002.15 3.35zM153.53 110.42l-.37.81-4.23-1.94a2 2 0 00-1.65 3.61l4.23 1.94-.37.79-4.27-2a2.87 2.87 0 012.39-5.21zM143.92 126.05l1.28-1.91-5.39-3.6.49-.73 5.39 3.6 1.28-1.92.64.43-3.05 4.56zM133.81 138.59l-.68.58-3-3.54a2 2 0 00-3 2.58l3 3.54-.66.56-3-3.57a2.87 2.87 0 014.36-3.72zM121.36 148.05a2.32 2.32 0 01-3-.3l.57-.69a1.49 1.49 0 002 .33 1.25 1.25 0 00.54-1.8 1.22 1.22 0 00-1.46-.45l-1.17.33a1.89 1.89 0 01-2.36-.77 2.19 2.19 0 011-3.1 2.33 2.33 0 013.11.27l-.58.66a1.55 1.55 0 00-2.13-.29 1.34 1.34 0 00-.61 1.91 1.17 1.17 0 001.46.49l1.11-.32a2 2 0 012.4.75 2.14 2.14 0 01-.88 2.98zM101.06 156.72l-.85.22-1.57-6.27-3.55.88-.19-.76 4.41-1.1zM89.49 159l-4.49.42-.07-.77 3.61-.34-.22-2.31-3.16.3-.07-.74 3.16-.3-.25-2.6-3.64.34-.07-.78 4.51-.42zM73.32 153.85l3.42.22.78-1.74.93.06-3.17 7.06-1.15-.08-2.31-7.37.93.06zm.24.76l1.2 3.88 1.66-3.7zM61.59 150l1.33 3.64 1.32.31.73-3.17.86.2-1.63 7.07-3-.7a2 2 0 11.78-3.93l-1.38-3.62zm2.49 4.61l-2-.46a1.24 1.24 0 00-1.65.94 1.21 1.21 0 001.08 1.51l2 .47zM51.83 154.57l-1-.41-1.28-7-2.29 5.52-.8-.33 2.77-6.69 1 .41 1.29 7 2.27-5.47.82.33zM31.63 143.55l-.95-.79 1.79-6.13-5.67 2.91-.94-.77 4.63-5.58.66.55-3.85 4.64 5.76-3 .53.43-1.84 6.22 3.85-4.64.66.55zM23.25 131a3.63 3.63 0 11.6-5.18 3.52 3.52 0 01-.6 5.18zm-4-4.89a2.7 2.7 0 103.42 4.16 2.7 2.7 0 10-3.42-4.16zM15.8 114.09l-1.8 3.44.67 1.18 2.83-1.61.43.76-6.29 3.59-1.54-2.69a1.94 1.94 0 01.65-2.89 1.94 1.94 0 012.76.8l1.77-3.46zm-1.7 5l-1-1.79a1.24 1.24 0 00-1.81-.57 1.21 1.21 0 00-.38 1.81l1 1.8zM5.87 110l-1.6-4.22.73-.27 1.29 3.39 2.22-.84-1.13-3 .69-.27 1.13 3 2.41-.92-1.3-3.42.73-.28 1.61 4.25zM5.46 83.75l.26 3.42 1.84.54.07.92-7.44-2.14-.09-1.15 7-3.33.07.93zm-.72.35l-3.68 1.74L5 87zM0 75.31l.27-3.11a1.85 1.85 0 012.05-1.84 1.7 1.7 0 011.6 1.36 1.69 1.69 0 011.85-1.15 1.9 1.9 0 011.72 2.29l-.27 3.08zm3.48-2.58a1.2 1.2 0 00-1.15-1.46A1.2 1.2 0 001 72.46l-.18 2 2.48.21zm3.24.2a1.22 1.22 0 00-1.13-1.49 1.22 1.22 0 00-1.37 1.25L4 74.78l2.5.22zM5.1 64a3.51 3.51 0 01-2.71-4.44A3.54 3.54 0 016.94 57a3.63 3.63 0 11-1.84 7zm1.6-6.11a2.7 2.7 0 10-1.36 5.21 2.7 2.7 0 101.36-5.23zM6 49l.37-.81 4.23 1.93a1.81 1.81 0 002.58-1 1.83 1.83 0 00-.93-2.61L8 44.61l.36-.79 4.28 2a2.62 2.62 0 011.24 3.71 2.62 2.62 0 01-3.6 1.47zM15.62 33.39l-1.28 1.92 5.38 3.6-.49.73L13.85 36l-1.29 2-.64-.43L15 33zM25.73 20.86l.68-.58 3 3.54a1.81 1.81 0 002.77.17 1.81 1.81 0 00.25-2.75l-3-3.54.66-.56 3.05 3.57a2.61 2.61 0 01-.44 3.88 2.61 2.61 0 01-3.92-.16zM38.18 11.4a2.29 2.29 0 013 .3l-.57.69a1.48 1.48 0 00-2-.33 1.26 1.26 0 00-.55 1.8 1.22 1.22 0 001.47.45l1.12-.31a1.89 1.89 0 012.36.77 2.2 2.2 0 01-1 3.1 2.35 2.35 0 01-3.12-.27l.59-.66a1.55 1.55 0 002.13.29 1.34 1.34 0 00.61-1.91 1.18 1.18 0 00-1.46-.49l-1.11.32a2 2 0 01-2.41-.75 2.14 2.14 0 01.94-3z"/></g></g></svg>