<svg fill="none" xmlns="http://www.w3.org/2000/svg"><path d="M43.381 8.942l4.325 4.21-.6-6.005 1.095-.537.689 7.436-1.219.592-5.419-5.139 1.13-.557zM55.947 3.81l1.068-.33 2.065 6.673-1.074.33-2.059-6.672zM70.05.688l.186.997-3.36.516.268 1.926 2.968-.46.124.921-2.975.461.324 2.098 3.401-.53.152.984-4.504.688-1.046-6.913L70.05.688zM80.826 5.345L82.63.165l1.157.048 1.377 5.276L86.892.337l1.205.048-2.396 6.879-1.164-.048-1.377-5.228-1.81 5.104-1.178-.048L78.326 0l1.205.048 1.295 5.297zM104.376 7.498a3.44 3.44 0 013.237-2.342c.476-.004.947.09 1.384.278a3.435 3.435 0 012.297 3.271 3.432 3.432 0 01-.3 1.38 3.409 3.409 0 01-1.847 2.057 3.407 3.407 0 01-2.767.006 3.437 3.437 0 01-2.004-4.65zm5.509 2.125c.565-1.444.041-2.751-1.246-3.233-1.288-.481-2.541.103-3.099 1.548-.558 1.445-.041 2.752 1.246 3.226 1.288.475 2.514-.096 3.071-1.534l.028-.007zM120.881 11.33l-2.355 3.803a1.688 1.688 0 002.864 1.789l2.362-3.77.951.592-2.383 3.81a2.57 2.57 0 01-3.76.723c-1.446-.894-1.852-2.373-1.019-3.7l2.39-3.812.95.564zM130.741 23.525l-.771-.688-2.011 2.222-.826-.75 4.689-5.172 2.286 2.063c1.074.97 1.081 2.064.283 2.965a1.924 1.924 0 01-2.7.207l-.537 3.576-.964-.873.551-3.55zm1.109-.137a1.048 1.048 0 001.604 0 1.03 1.03 0 00.274-.819 1.03 1.03 0 00-.439-.743l-1.309-1.19-1.439 1.582 1.309 1.17zM148.212 42.366c-1.136.688-2.286.337-3.016-.88l-.847-1.376-2.361 1.417-.572-.942 5.984-3.598 1.418 2.36c.778 1.238.482 2.359-.606 3.02zm-.688-1.038a1.092 1.092 0 00.317-1.679l-.744-1.231-1.99 1.197.73 1.203a1.117 1.117 0 001.242.71c.171-.03.333-.098.472-.2h-.027zM150.8 52.347l-.372-.963-2.795 1.08-.406-1.038 6.52-2.518 1.116 2.875c.516 1.376 0 2.34-1.081 2.752a1.924 1.924 0 01-2.507-1.032l-2.065 2.958-.469-1.21 2.059-2.904zm1.054.379a1.05 1.05 0 001.439.688 1.036 1.036 0 00.684-1.047 1.028 1.028 0 00-.126-.425l-.634-1.645-1.997.77.634 1.659zM154.526 62.404a3.552 3.552 0 013.585 1.608 3.542 3.542 0 01-3.764 5.346 3.546 3.546 0 01-2.727-2.827 3.39 3.39 0 011.569-3.67c.409-.243.864-.4 1.337-.457zm1.081 5.778c1.529-.288 2.348-1.41 2.066-2.751-.283-1.341-1.364-2.146-2.927-1.83-1.563.316-2.341 1.376-2.066 2.752.276 1.375 1.398 2.111 2.941 1.83h-.014zM155.435 78.026h-.468a1.104 1.104 0 00-1.097.656 1.098 1.098 0 00.262 1.25 1.102 1.102 0 00.835.288l4.978-.082v1.114l-5.013.083a2.204 2.204 0 01-2.119-2.166 2.2 2.2 0 012.05-2.23h.503l.069 1.087zM158.686 94.563l-.978-.145.516-3.357-1.914-.261-.455 2.965-.922-.138.454-2.972-2.066-.323-.523 3.398-.978-.144.689-4.506 6.886 1.06-.709 4.422zM155.744 106.07a3.198 3.198 0 01-3.044 2.346l.034-1.19a2.065 2.065 0 002.018-1.493c.434-1.265-.2-2.476-1.68-2.978-1.481-.502-2.754.062-3.154 1.321a2.058 2.058 0 00.592 2.38l-.688.963a3.215 3.215 0 01-.868-3.674 3.603 3.603 0 016.559-.35c.427.826.517 1.785.251 2.675h-.02zM148.913 118.659l-5.274-2.91.544-.977 5.274 2.91 1.019-1.844.847.468-2.589 4.657-.84-.468 1.019-1.836zM142.847 129.644a2.292 2.292 0 01-2.816.812l.372-1.066a1.285 1.285 0 001.714-.365 1 1 0 00.31-.698.994.994 0 00-.974-1.021.99.99 0 00-.713.274l-.922.688a1.873 1.873 0 01-2.459.083c-1.033-.812-1.005-2.146-.13-3.254.874-1.107 1.983-1.376 2.947-.88l-.393 1.045a1.378 1.378 0 00-1.797.42 1.11 1.11 0 00-.231 1.292c.069.14.166.265.286.366a1.02 1.02 0 001.315-.062l.868-.647a1.928 1.928 0 012.486-.131c.957.757.991 2.057.137 3.144zM119.126 149.744l-4.482-4.052.826 5.985-1.102.578-.936-7.402 1.205-.633 5.605 4.932-1.116.592zM106.731 155.343l-1.053.372-2.293-6.604 1.053-.365 2.293 6.597zM92.759 158.947l-.186-.976 3.333-.633-.365-1.912-2.954.564-.172-.922 2.954-.557-.4-2.064-3.38.647-.187-.977 4.476-.853 1.308 6.879-4.427.804zM81.845 154.717l-1.667 5.214h-1.156l-1.495-5.241-1.625 5.193h-1.205l2.231-6.947h1.164l1.515 5.193 1.694-5.138h1.177l1.99 7.009h-1.205l-1.418-5.283zM58.214 153.396a3.539 3.539 0 01-3.172 2.311 3.54 3.54 0 01-3.36-2.026 3.54 3.54 0 012.321-4.943 3.55 3.55 0 012.05.084 3.39 3.39 0 012.432 3.183c.01.477-.083.952-.27 1.391zm-5.55-1.926c-.51 1.466.055 2.752 1.377 3.185 1.323.434 2.535-.192 3.044-1.658.51-1.465-.062-2.751-1.377-3.184a2.32 2.32 0 00-1.888.145 2.328 2.328 0 00-1.156 1.499v.013zM41.583 150.143l2.224-3.852a1.688 1.688 0 10-2.926-1.686l-2.224 3.852-.971-.564 2.251-3.886c.778-1.376 2.28-1.692 3.732-.86 1.453.832 1.935 2.304 1.15 3.666l-2.251 3.894-.985-.564zM31.318 138.325l.785.688 1.935-2.291.854.723-4.504 5.338-2.355-1.982c-1.108-.935-1.156-2.063-.392-2.951a1.902 1.902 0 011.28-.708 1.904 1.904 0 011.405.406l.413-3.598.999.839-.42 3.536zm-1.109.172a1.07 1.07 0 00-.82-.329 1.057 1.057 0 00-.784.405 1.04 1.04 0 00-.087 1.248c.081.125.188.232.314.313l1.377 1.135 1.378-1.637-1.378-1.135zM13.165 120.103c1.108-.688 2.272-.42 3.043.764l.896 1.375 2.313-1.506.613.935-5.86 3.818-1.508-2.311c-.82-1.259-.558-2.38.503-3.075zm.688 1.011a1.094 1.094 0 00-.254 1.692l.785 1.204 1.948-1.265-.77-1.184a1.134 1.134 0 00-1.244-.647c-.165.032-.322.1-.458.2h-.007zM10.253 110.225l.406.95 2.754-1.184.441 1.025-6.417 2.752-1.24-2.827c-.571-1.328-.117-2.339.978-2.807a1.917 1.917 0 012.54.929l1.977-3.027.516 1.19-1.955 2.999zm-1.067-.337a1.057 1.057 0 00-1.026-.757 1.069 1.069 0 00-.441.104 1.046 1.046 0 00-.594.631 1.039 1.039 0 00.091.861l.689 1.624 1.97-.846-.69-1.617zM6.142 100.306a3.4 3.4 0 01-3.772-1.354 3.389 3.389 0 01-.531-1.315 3.394 3.394 0 011.43-3.737c.401-.26.852-.433 1.324-.507a3.397 3.397 0 014.304 2.662 3.395 3.395 0 01-2.755 4.251zm-1.287-5.73c-1.515.337-2.293 1.493-1.99 2.834.303 1.342 1.494 2.064 3.009 1.713 1.515-.35 2.293-1.493 1.99-2.834-.303-1.341-1.494-2.05-3.01-1.713zM4.655 84.719h.475a1.104 1.104 0 001.125-1.149 1.1 1.1 0 00-1.221-1.046l-4.986.22L0 81.61l5.013-.227a2.211 2.211 0 012.16 2.11 2.207 2.207 0 01-1.967 2.292h-.503l-.048-1.066zM.84 68.313l.985.117-.399 3.364 1.935.227.351-2.986.93.11-.351 2.986 2.107.247.399-3.439.985.11-.53 4.554L.31 72.79l.53-4.478zM3.353 56.708a3.212 3.212 0 012.961-2.455v1.19a2.068 2.068 0 00-1.962 1.561c-.386 1.28.289 2.47 1.783 2.924 1.494.454 2.754-.165 3.099-1.438a2.062 2.062 0 00-.689-2.36l.689-.983a3.191 3.191 0 011.005 3.632 3.34 3.34 0 01-3.061 2.516 3.348 3.348 0 01-1.387-.219 3.362 3.362 0 01-2.608-2.978c-.042-.47.016-.943.17-1.39zM9.738 43.88l5.37 2.751-.509.97-5.371-2.751-.964 1.926-.854-.434 2.41-4.746.86.433-.942 1.85zM15.39 32.708a2.3 2.3 0 012.754-.921l-.337 1.08a1.296 1.296 0 00-1.701.426.998.998 0 101.425 1.376l.902-.688a1.86 1.86 0 012.452-.172c1.06.777 1.087 2.105.247 3.247a2.348 2.348 0 01-2.912.983l.372-1.066a1.378 1.378 0 001.776-.481 1.114 1.114 0 00-.117-1.651 1.007 1.007 0 00-1.308.103l-.847.688a1.922 1.922 0 01-2.472.213c-.971-.722-1.054-2.03-.234-3.137z" fill="#FFA69E"/></svg>