<svg width="162" height="23" fill="none" xmlns="http://www.w3.org/2000/svg"><path fill-rule="evenodd" clip-rule="evenodd" d="M113.501 9.318c0 4.658-3.707 8.433-8.28 8.433-4.573 0-8.28-3.776-8.28-8.433s3.707-8.433 8.28-8.433c4.573 0 8.28 3.776 8.28 8.433ZM137.589 9.318c0 4.658-3.707 8.433-8.28 8.433-4.573 0-8.28-3.776-8.28-8.433s3.707-8.433 8.28-8.433c4.573 0 8.28 3.776 8.28 8.433ZM161.726 9.318c0 4.658-3.707 8.433-8.28 8.433-4.573 0-8.28-3.776-8.28-8.433s3.707-8.433 8.28-8.433c4.573 0 8.28 3.776 8.28 8.433ZM6.51 15.121c1.856 0 2.691-.85 2.691-2.386v-.095c0-1.56-.835-2.363-2.876-2.363h-2.39v4.844H6.51Zm-.325-7.3c1.81 0 2.529-.662 2.529-2.174v-.095c0-1.417-.788-2.055-2.552-2.055H3.936V7.82h2.25ZM.271.873H6.79c3.619 0 5.498 1.512 5.498 4.395v.094c0 1.772-.835 3.072-2.691 3.615 2.157.449 3.317 1.701 3.317 3.97v.094c0 3.095-1.995 4.725-5.822 4.725H.272V.874ZM14.607 5.41h3.364v2.363c.766-1.654 1.949-2.528 3.92-2.552v3.19c-2.482-.024-3.92.803-3.92 3.166v6.19h-3.364V5.411ZM23.537 17.767h3.34V5.41h-3.34v12.357Zm-.256-15.9C23.281.802 24.116 0 25.183 0c1.09 0 1.926.803 1.926 1.866 0 1.063-.836 1.867-1.926 1.867-1.067 0-1.902-.804-1.902-1.867ZM29.313 5.41h3.363v1.961c.603-1.228 1.925-2.244 3.944-2.244 2.389 0 4.083 1.465 4.083 4.772v7.868h-3.364v-7.371c0-1.678-.65-2.481-2.134-2.481-1.438 0-2.529.897-2.529 2.717v7.135h-3.364V5.41ZM51.463 11.27v-.166c0-2.102-1.09-3.378-2.923-3.378-1.88 0-2.923 1.37-2.923 3.402v.19c0 2.054 1.183 3.33 2.853 3.33 1.763 0 2.993-1.276 2.993-3.378Zm-9.185 6.757h3.34c.21 1.087.975 1.795 2.691 1.795 2.042 0 3.062-1.086 3.062-3.024v-1.866c-.672 1.205-2.11 2.292-3.897 2.292-2.946 0-5.288-2.245-5.288-5.907v-.165c0-3.544 2.319-6.025 5.335-6.025 1.971 0 3.154.874 3.85 2.126V5.41h3.34v11.388c-.022 3.662-2.412 5.529-6.402 5.529-3.92 0-5.706-1.749-6.03-4.3ZM57.031 5.41h3.364V7.3c.603-1.157 1.902-2.173 3.711-2.173 1.601 0 2.807.685 3.387 2.15.974-1.489 2.552-2.15 4.083-2.15 2.25 0 3.99 1.44 3.99 4.725v7.915h-3.34V10.23c0-1.583-.697-2.292-1.903-2.292-1.3 0-2.343.85-2.343 2.528v7.3h-3.34V10.23c0-1.583-.72-2.292-1.902-2.292-1.3 0-2.343.85-2.343 2.528v7.3H57.03V5.41ZM85.934 10.254C85.818 8.387 84.89 7.49 83.29 7.49c-1.508 0-2.529 1.015-2.784 2.764h5.428Zm-8.885 1.488v-.189c0-3.898 2.714-6.426 6.24-6.426 3.131 0 5.915 1.866 5.915 6.284v.945h-8.745c.093 2.056 1.183 3.237 3.015 3.237 1.554 0 2.32-.685 2.529-1.724h3.178c-.395 2.67-2.483 4.158-5.8 4.158-3.665 0-6.332-2.34-6.332-6.285Z" fill="#696975"/></svg>