<svg width="149" height="63" fill="none" xmlns="http://www.w3.org/2000/svg"><path fill-rule="evenodd" clip-rule="evenodd" d="M48.497 0 15.162 12.192l.202.586L48.7.586 48.497 0ZM.818 12.92l41.986 9.829.135-.607L.954 12.31l-.136.61Z" fill="#696975"/><path fill-rule="evenodd" clip-rule="evenodd" d="m7.996 9.648.03-.622 43.131 2.363-.033.621L7.995 9.648Z" fill="#696975"/><path fill-rule="evenodd" clip-rule="evenodd" d="M14.725 29.518 51.623 6.842l.31.534-36.897 22.676-.311-.534Z" fill="#696975"/><path fill-rule="evenodd" clip-rule="evenodd" d="M27.959 39.77 40.172 5.693l.566.215-12.213 34.079-.566-.215ZM57.167 33.977c0-1.641-.97-3.03-2.685-3.03-1.643 0-2.615 1.46-2.615 3.03 0 1.587.937 3.065 2.615 3.065 1.732 0 2.685-1.407 2.685-3.065Zm-6.802-11.433h1.59v8.619h.036c.654-1.01 1.643-1.66 2.88-1.66 2.384 0 3.886 2.11 3.886 4.42 0 2.416-1.413 4.562-3.957 4.562-1.166 0-2.173-.65-2.81-1.606h-.035v1.318h-1.59V22.544ZM62.188 31.128h.053c.388-.992 1.2-1.624 2.261-1.624.459 0 .919.163 1.308.415l-.725 1.479c-.282-.252-.6-.343-.971-.343-1.715 0-1.927 1.624-1.927 2.994v4.147h-1.59v-8.44h1.59v1.372ZM68.388 29.757v4.67c0 1.353.334 2.544 1.907 2.544 1.572 0 1.908-1.191 1.908-2.543v-4.671h1.59v4.85c0 2.309-1.06 3.878-3.498 3.878s-3.498-1.569-3.498-3.877v-4.851h1.59ZM79.412 31.686c-.195-.414-.601-.738-1.06-.738-.443 0-.867.36-.867.83 0 .738.955 1.063 1.927 1.514.97.45 1.908 1.063 1.908 2.397 0 1.606-1.308 2.796-2.845 2.796-1.2 0-2.42-.703-2.862-1.893l1.36-.632c.336.632.742 1.083 1.502 1.083.672 0 1.254-.47 1.254-1.191 0-.451-.212-.667-.582-.92l-1.555-.847c-.919-.505-1.59-.974-1.59-2.128a2.438 2.438 0 0 1 2.438-2.453c1.008 0 1.819.56 2.26 1.48l-1.288.702ZM86.373 31.686c-.194-.414-.601-.738-1.06-.738-.442 0-.866.36-.866.83 0 .738.954 1.063 1.926 1.514.972.45 1.908 1.063 1.908 2.397 0 1.606-1.308 2.796-2.844 2.796-1.202 0-2.421-.703-2.863-1.893l1.36-.632c.337.632.742 1.083 1.503 1.083.67 0 1.254-.47 1.254-1.191 0-.451-.212-.667-.584-.92l-1.554-.847c-.919-.505-1.59-.974-1.59-2.128a2.437 2.437 0 0 1 2.438-2.453c1.007 0 1.82.56 2.262 1.48l-1.29.702ZM95.687 33.02c-.195-1.262-1.006-2.109-2.279-2.109-1.236 0-2.155.901-2.35 2.11h4.63Zm-4.72 1.228c.02 1.442.974 2.794 2.493 2.794 1.22 0 1.873-.632 2.472-1.642l1.344.777a4.29 4.29 0 0 1-3.835 2.308c-2.526 0-4.062-1.948-4.062-4.436 0-2.598 1.36-4.545 4.027-4.545 2.632 0 3.87 1.984 3.87 4.49v.254h-6.308ZM98.883 38.196h1.591V22.543h-1.591v15.653ZM106.234 31.686c-.194-.414-.6-.738-1.059-.738-.442 0-.865.36-.865.83 0 .738.953 1.063 1.924 1.514.973.45 1.909 1.063 1.909 2.397 0 1.606-1.308 2.796-2.845 2.796-1.2 0-2.421-.703-2.862-1.893l1.36-.632c.337.632.742 1.083 1.502 1.083.672 0 1.255-.47 1.255-1.191 0-.451-.212-.667-.583-.92l-1.555-.847c-.919-.505-1.59-.974-1.59-2.128a2.437 2.437 0 0 1 2.438-2.453c1.007 0 1.82.56 2.261 1.48l-1.29.702ZM57.167 53.17c0-1.641-.97-3.03-2.685-3.03-1.643 0-2.615 1.46-2.615 3.03 0 1.587.937 3.065 2.615 3.065 1.732 0 2.685-1.406 2.685-3.065Zm-5.212-2.814h.036c.654-1.01 1.643-1.658 2.88-1.658 2.384 0 3.886 2.11 3.886 4.417 0 2.417-1.413 4.563-3.957 4.563-1.166 0-2.173-.65-2.81-1.606h-.035v6.15h-1.59V48.95h1.59v1.407ZM62.08 41.736v8.35h.036c.494-.902 1.484-1.389 2.49-1.389 2.334 0 2.933 1.605 2.933 3.661v5.031h-1.59v-4.834c0-1.442-.194-2.415-1.82-2.415-2.049 0-2.049 1.84-2.049 3.372v3.877h-1.59V41.736h1.59ZM70.262 57.39h1.589v-8.44h-1.59v8.44Zm1.89-12.3a1.096 1.096 0 1 1-2.19 0c-.001-.63.492-1.136 1.094-1.136.6 0 1.095.507 1.095 1.136ZM74.643 57.39h1.59V41.736h-1.59v15.652ZM80.262 41.736v8.35h.035c.496-.902 1.484-1.389 2.49-1.389 2.333 0 2.934 1.605 2.934 3.661v5.031h-1.59v-4.834c0-1.442-.194-2.415-1.82-2.415-2.05 0-2.05 1.84-2.05 3.372v3.877h-1.59V41.736h1.59ZM94.343 53.17c0-1.641-.97-3.03-2.685-3.03-1.642 0-2.615 1.46-2.615 3.03 0 1.587.938 3.065 2.615 3.065 1.731 0 2.685-1.406 2.685-3.065Zm1.502 4.22h-1.59v-1.318h-.036c-.636.956-1.625 1.606-2.81 1.606-2.526 0-3.956-2.146-3.956-4.563 0-2.307 1.5-4.417 3.903-4.417 1.22 0 2.209.649 2.863 1.658h.035v-1.407h1.591v8.44ZM99.787 50.32h.053c.388-.991 1.201-1.622 2.262-1.622.459 0 .918.163 1.307.414l-.725 1.48c-.282-.253-.601-.344-.971-.344-1.714 0-1.926 1.623-1.926 2.993v4.148h-1.59v-8.44h1.59v1.372ZM106.143 50.014h.035c.46-.74 1.289-1.316 2.19-1.316 1.079 0 1.856.559 2.386 1.496.513-.902 1.501-1.496 2.543-1.496 2.174 0 2.739 1.73 2.739 3.642v5.049h-1.59v-4.78c0-1.08-.141-2.468-1.537-2.468-1.697 0-1.819 1.801-1.819 3.1v4.148h-1.591v-4.472c0-1.1-.052-2.776-1.519-2.776-1.696 0-1.837 1.785-1.837 3.1v4.148h-1.59v-8.44h1.59v1.065ZM119.184 53.187c0 1.588 1.254 2.94 2.827 2.94 1.572 0 2.827-1.352 2.827-2.94 0-1.605-1.255-2.939-2.827-2.939-1.573 0-2.827 1.334-2.827 2.94Zm7.242 0c0 2.543-1.943 4.49-4.416 4.49-2.475 0-4.418-1.947-4.418-4.49 0-2.542 1.943-4.489 4.418-4.489 2.473 0 4.416 1.947 4.416 4.49ZM129.645 50.086h.034c.495-.902 1.485-1.388 2.491-1.388 2.333 0 2.934 1.603 2.934 3.66v5.03h-1.59v-4.832c0-1.443-.195-2.415-1.82-2.415-2.049 0-2.049 1.838-2.049 3.371v3.877h-1.59v-8.44h1.59v1.137ZM137.822 57.39h1.591v-8.44h-1.591v8.44Zm1.892-12.3c0 .614-.495 1.101-1.095 1.101s-1.096-.487-1.096-1.1c0-.63.496-1.137 1.096-1.137.6 0 1.095.507 1.095 1.136ZM148.211 51.349c-.635-.74-1.413-1.137-2.366-1.137-1.556 0-2.757 1.407-2.757 2.958 0 1.73 1.184 2.993 2.862 2.993.919 0 1.661-.433 2.261-1.119v2.076c-.723.396-1.448.558-2.279.558-2.438 0-4.434-1.912-4.434-4.437 0-2.614 1.979-4.543 4.523-4.543.742 0 1.555.18 2.19.559v2.092Z" fill="#696975"/></svg>