<svg width="71" height="65" fill="none" xmlns="http://www.w3.org/2000/svg"><path d="M3.529 21.309c7.923 7.933 18.268 13.065 29.41 14.091 13.784 1.248 26.523-5.16 36.372-14.48.468-.443 1.376-2.829 1.018-2.468-10.07 9.542-22.698 15.45-36.702 14.174-10.785-.97-20.964-6.38-28.585-14.008-.193-.11-2.009 2.22-1.513 2.691ZM65.596 13.376C49.804-5.847 19.348-2.546 1.712 11.878c-.495.388-1.43 2.83-1.018 2.469C18.22.006 48.484-2.935 64.111 16.067c.082.082 1.953-2.137 1.485-2.691Z" fill="#696975"/><path d="M38.826 18.008h-4.814v-4.854h4.814v4.854ZM46.723 14.929h-4.842v-4.854h4.842v4.854ZM54.674 16.4H49.86v-4.883h4.815V16.4ZM48.016 22.474h-4.842V17.62h4.842v4.854ZM39.79 25.636h-4.815v-4.854h4.814v4.854ZM31.59 24.36h-4.842v-4.882h4.842v4.882ZM3.865 47.582c0-.912.157-1.76.472-2.542a6.26 6.26 0 0 1 1.309-2.062 6.213 6.213 0 0 1 2.024-1.37c.78-.331 1.641-.497 2.584-.497.5 0 .96.047 1.379.142.43.083.814.19 1.152.32.337.119.634.255.89.41.256.141.465.272.628.39.35.273.396.617.14 1.031l-.314.516c-.233.391-.565.45-.995.178-.268-.178-.64-.368-1.117-.57-.478-.212-1.036-.32-1.676-.32-.675 0-1.274.12-1.798.356a3.6 3.6 0 0 0-1.292.943c-.349.39-.616.853-.802 1.386a5.174 5.174 0 0 0-.262 1.654c0 .592.093 1.161.279 1.706a4.44 4.44 0 0 0 .803 1.44c.36.415.797.747 1.309.996.524.249 1.117.373 1.78.373.35 0 .675-.035.978-.106.314-.083.6-.178.855-.285.256-.107.483-.225.68-.355.21-.13.385-.25.524-.356.408-.308.745-.267 1.013.124l.349.48c.28.38.244.723-.105 1.032a9.913 9.913 0 0 1-.68.497c-.268.178-.588.35-.96.516-.361.154-.774.284-1.24.391-.454.107-.954.16-1.5.16-.978 0-1.863-.166-2.654-.498a6.245 6.245 0 0 1-2.007-1.386 6.194 6.194 0 0 1-1.292-2.098 7.326 7.326 0 0 1-.454-2.596ZM19.611 41.929c.14-.403.413-.605.82-.605h1.117c.431 0 .705.202.82.605l3.876 11.164c.093.261.081.468-.035.622-.105.155-.291.232-.559.232h-.803c-.43 0-.704-.202-.82-.605l-.873-2.63h-4.346l-.855 2.612c-.116.415-.39.623-.82.623h-.803c-.268 0-.46-.077-.576-.232-.105-.154-.111-.36-.018-.622l3.875-11.164Zm2.985 6.915-1.1-3.377a9.913 9.913 0 0 1-.174-.605c-.059-.225-.111-.438-.157-.64-.059-.225-.111-.462-.158-.71h-.035c-.07.248-.128.485-.174.71-.058.202-.11.415-.157.64a5.575 5.575 0 0 1-.157.605l-1.117 3.377h3.229ZM28.44 42.035c.057-.473.308-.71.75-.71h1.1c.407 0 .68.2.82.604l2.217 5.635c.07.19.14.392.21.605.08.213.15.415.209.604l.209.64h.035c.058-.213.122-.426.192-.64.058-.19.122-.39.192-.604.081-.213.157-.415.227-.605l2.217-5.635c.14-.403.418-.605.837-.605h1.082c.466 0 .716.238.751.712l.89 11.146c.035.51-.198.765-.698.765h-.785c-.466 0-.716-.237-.75-.712l-.472-6.346a5.577 5.577 0 0 1-.035-.64v-.658c0-.225.006-.444.017-.658h-.035c-.081.25-.157.486-.226.711-.07.202-.146.415-.227.64-.07.226-.14.427-.21.605L35.16 51.19c-.14.391-.413.587-.82.587h-.733c-.419 0-.698-.196-.838-.587l-1.78-4.302a23.899 23.899 0 0 1-.454-1.262 16.618 16.618 0 0 1-.227-.712h-.035a13.131 13.131 0 0 1 0 1.334c0 .225-.006.438-.017.64l-.472 6.346c-.035.475-.285.712-.75.712h-.786c-.5 0-.733-.255-.698-.765l.89-11.147ZM42.098 47.582c0-.912.157-1.76.471-2.542a6.258 6.258 0 0 1 1.31-2.062 6.212 6.212 0 0 1 2.024-1.37c.78-.331 1.641-.497 2.584-.497.5 0 .96.047 1.378.142.431.083.815.19 1.152.32.338.119.635.255.89.41.257.141.466.272.629.39.35.273.396.617.14 1.031l-.315.516c-.232.391-.564.45-.994.178-.268-.178-.64-.368-1.117-.57-.478-.212-1.036-.32-1.676-.32-.675 0-1.274.12-1.798.356a3.6 3.6 0 0 0-1.292.943 4.07 4.07 0 0 0-.803 1.386 5.173 5.173 0 0 0-.261 1.654c0 .592.093 1.161.279 1.706a4.44 4.44 0 0 0 .803 1.44c.36.415.797.747 1.309.996.524.249 1.117.373 1.78.373.35 0 .675-.035.978-.106.314-.083.599-.178.855-.285.256-.107.483-.225.68-.355.21-.13.385-.25.524-.356.408-.308.745-.267 1.013.124l.349.48c.28.38.244.723-.105 1.032a9.938 9.938 0 0 1-.68.497c-.268.178-.588.35-.96.516-.361.154-.774.284-1.24.391-.454.107-.954.16-1.501.16-.977 0-1.862-.166-2.653-.498a6.246 6.246 0 0 1-2.007-1.386 6.195 6.195 0 0 1-1.292-2.098 7.327 7.327 0 0 1-.454-2.596ZM54.183 47.547c0-.901.157-1.743.472-2.525a6.164 6.164 0 0 1 1.326-2.044 6.213 6.213 0 0 1 2.025-1.37c.78-.331 1.64-.497 2.583-.497.943 0 1.804.166 2.584.498.78.332 1.454.788 2.024 1.369a6.163 6.163 0 0 1 1.327 2.044 6.71 6.71 0 0 1 .471 2.525c0 .924-.157 1.79-.471 2.595a6.478 6.478 0 0 1-1.327 2.116 6.31 6.31 0 0 1-2.025 1.404c-.78.332-1.64.498-2.583.498-.942 0-1.803-.166-2.583-.498a6.31 6.31 0 0 1-2.025-1.404 6.48 6.48 0 0 1-1.326-2.116 7.082 7.082 0 0 1-.472-2.595Zm2.322 0c0 .64.099 1.238.297 1.795.21.545.494 1.02.855 1.422.36.403.791.723 1.292.96.5.226 1.047.338 1.64.338.594 0 1.14-.112 1.641-.338.5-.237.93-.557 1.292-.96.36-.403.64-.877.837-1.422.21-.557.315-1.155.315-1.795 0-.617-.105-1.185-.315-1.707a4.146 4.146 0 0 0-.837-1.387 3.721 3.721 0 0 0-1.292-.906 3.953 3.953 0 0 0-1.64-.338c-.594 0-1.141.112-1.642.338-.5.213-.93.515-1.291.906-.36.391-.646.854-.855 1.387a4.774 4.774 0 0 0-.297 1.707ZM5.933 57.96H4.146c-.187 0-.28-.095-.28-.286v-.173c0-.19.093-.286.28-.286h4.408c.181 0 .272.095.272.286v.173c0 .19-.09.286-.272.286H6.767v5.087c0 .191-.094.286-.281.286h-.28c-.182 0-.273-.095-.273-.286V57.96ZM9.64 57.5c0-.19.094-.285.281-.285h2.928c.187 0 .28.095.28.286v.173c0 .19-.093.286-.28.286h-2.374v1.915h1.88c.187 0 .28.096.28.286v.174c0 .19-.093.286-.28.286h-1.88v1.967h2.518c.187 0 .281.095.281.286v.173c0 .191-.094.286-.28.286H9.92c-.187 0-.28-.095-.28-.286v-5.546ZM13.886 60.24c0-.446.074-.859.222-1.24.153-.381.363-.71.63-.988.272-.283.595-.503.97-.659a3.078 3.078 0 0 1 1.233-.242c.255 0 .488.023.698.07.215.045.405.1.57.164.165.063.306.133.425.208.125.07.224.133.298.19.13.104.148.237.051.4l-.11.172c-.097.15-.227.174-.392.07a8.417 8.417 0 0 0-.238-.148 1.888 1.888 0 0 0-.34-.156 2.49 2.49 0 0 0-.928-.182c-.352 0-.664.061-.936.182a2.134 2.134 0 0 0-1.14 1.24 2.805 2.805 0 0 0-.145.91c0 .323.051.632.153.927a2.206 2.206 0 0 0 1.14 1.3c.279.127.59.19.937.19.198 0 .383-.02.553-.06.17-.046.323-.098.46-.156.141-.064.263-.13.365-.2.102-.069.187-.13.255-.181.154-.122.284-.11.392.034l.128.174c.107.144.093.277-.043.398-.08.064-.184.142-.315.234-.125.087-.278.17-.46.252-.175.08-.38.15-.612.208a3.031 3.031 0 0 1-.749.086c-.465 0-.888-.08-1.268-.242a3.004 3.004 0 0 1-.97-.685 3.112 3.112 0 0 1-.62-1.014 3.627 3.627 0 0 1-.214-1.257ZM20.277 57.5c0-.19.093-.285.28-.285h.273c.187 0 .28.095.28.286v2.41h3.124V57.5c0-.19.093-.286.28-.286h.281c.182 0 .273.095.273.286v5.546c0 .191-.091.286-.273.286h-.28c-.188 0-.281-.095-.281-.286v-2.4H21.11v2.4c0 .191-.094.286-.281.286h-.272c-.188 0-.281-.095-.281-.286v-5.546ZM26.6 57.5c0-.19.094-.285.281-.285h.324c.147 0 .26.063.34.19l2.561 3.788c.051.08.105.173.162.277a3 3 0 0 1 .162.286c.056.104.113.21.17.32h.017a5.652 5.652 0 0 1-.026-.311 4.437 4.437 0 0 1-.025-.286V57.5c0-.19.093-.286.28-.286h.273c.187 0 .28.095.28.286v5.546c0 .191-.093.286-.28.286h-.323a.349.349 0 0 1-.332-.19l-2.57-3.779a2.898 2.898 0 0 1-.17-.277 7.855 7.855 0 0 1-.153-.295c-.057-.104-.114-.21-.17-.32h-.018c.006.11.015.216.026.32l.017.295a4.8 4.8 0 0 1 .009.277v3.683c0 .191-.094.286-.281.286h-.273c-.187 0-.28-.095-.28-.286v-5.546ZM32.55 60.23c0-.438.076-.849.23-1.23.153-.381.365-.71.638-.988a2.94 2.94 0 0 1 .978-.659c.38-.161.794-.242 1.242-.242.449 0 .86.08 1.234.242.38.156.706.376.979.66.272.276.485.606.638.987.153.381.23.792.23 1.23 0 .451-.077.873-.23 1.266a3.154 3.154 0 0 1-.638 1.014 2.98 2.98 0 0 1-.979.685 3.078 3.078 0 0 1-1.234.242c-.448 0-.862-.08-1.242-.242a3.102 3.102 0 0 1-.978-.685 3.154 3.154 0 0 1-.639-1.014 3.452 3.452 0 0 1-.23-1.265Zm.868 0c0 .342.053.66.161.954.114.295.27.552.468.771.199.214.434.385.707.512.272.121.567.182.884.182.318 0 .613-.06.885-.182.273-.127.505-.298.698-.512a2.33 2.33 0 0 0 .46-.77 2.63 2.63 0 0 0 .17-.954c0-.33-.057-.636-.17-.919a2.156 2.156 0 0 0-.46-.745 2.007 2.007 0 0 0-.698-.486 2.15 2.15 0 0 0-.885-.182c-.317 0-.612.061-.884.182a2.097 2.097 0 0 0-.707.486 2.266 2.266 0 0 0-.468.745c-.108.283-.161.59-.161.919ZM39.871 57.5c0-.19.094-.285.28-.285h.273c.187 0 .281.095.281.286v5.087h2.417c.187 0 .28.095.28.286v.173c0 .191-.093.286-.28.286h-2.97c-.187 0-.28-.095-.28-.286v-5.546ZM43.452 60.23c0-.438.077-.849.23-1.23.153-.381.366-.71.638-.988a2.94 2.94 0 0 1 .978-.659c.38-.161.795-.242 1.243-.242.448 0 .86.08 1.234.242.38.156.706.376.978.66.272.276.485.606.638.987.153.381.23.792.23 1.23 0 .451-.077.873-.23 1.266a3.154 3.154 0 0 1-.638 1.014 2.98 2.98 0 0 1-.978.685 3.077 3.077 0 0 1-1.234.242c-.448 0-.862-.08-1.243-.242a3.102 3.102 0 0 1-.978-.685 3.152 3.152 0 0 1-.638-1.014 3.452 3.452 0 0 1-.23-1.265Zm.868 0c0 .342.054.66.161.954.114.295.27.552.468.771.2.214.434.385.707.512.272.121.567.182.885.182.317 0 .612-.06.885-.182.272-.127.505-.298.697-.512a2.33 2.33 0 0 0 .46-.77 2.63 2.63 0 0 0 .17-.954c0-.33-.057-.636-.17-.919a2.156 2.156 0 0 0-.46-.745 2.008 2.008 0 0 0-.697-.486 2.15 2.15 0 0 0-.885-.182c-.318 0-.613.061-.885.182a2.097 2.097 0 0 0-.706.486 2.266 2.266 0 0 0-.469.745 2.56 2.56 0 0 0-.161.919ZM50.399 60.291c0-.45.077-.87.23-1.256.153-.393.366-.731.638-1.014.272-.283.596-.506.97-.668a3.056 3.056 0 0 1 1.225-.242c.255 0 .488.023.698.07.216.04.406.092.57.155.17.058.315.119.434.182.12.064.21.118.272.165.142.11.162.24.06.39l-.12.182c-.09.144-.22.17-.39.078a6.998 6.998 0 0 0-.247-.139 1.71 1.71 0 0 0-.324-.139 2.58 2.58 0 0 0-.91-.156c-.346 0-.658.064-.936.191a2.05 2.05 0 0 0-.698.503 2.227 2.227 0 0 0-.45.745c-.103.283-.154.59-.154.919 0 .346.057.667.17.962.114.294.267.549.46.762.198.208.43.373.697.494.267.116.556.174.868.174.278 0 .522-.04.732-.122.21-.08.389-.17.536-.268.17-.116.318-.249.443-.399v-.858h-.698c-.187 0-.28-.095-.28-.286v-.173c0-.19.093-.286.28-.286h1.183c.187 0 .28.095.28.286v2.504c0 .191-.093.286-.28.286h-.162c-.187 0-.28-.08-.28-.242v-.356c0-.023.002-.043.008-.06h-.017c-.125.144-.281.271-.468.381a2.987 2.987 0 0 1-.587.269 2.551 2.551 0 0 1-.8.112 2.84 2.84 0 0 1-1.15-.234 2.887 2.887 0 0 1-.935-.65 3.166 3.166 0 0 1-.638-.988 3.435 3.435 0 0 1-.23-1.274ZM57.163 57.5c0-.19.094-.285.281-.285h.273c.187 0 .28.095.28.286v5.546c0 .191-.093.286-.28.286h-.273c-.187 0-.28-.095-.28-.286v-5.546ZM59.532 57.5c0-.19.093-.285.28-.285h2.928c.187 0 .28.095.28.286v.173c0 .19-.093.286-.28.286h-2.374v1.915h1.88c.187 0 .281.096.281.286v.174c0 .19-.094.286-.28.286h-1.881v1.967h2.518c.188 0 .281.095.281.286v.173c0 .191-.093.286-.28.286h-3.072c-.188 0-.281-.095-.281-.286v-5.546ZM63.98 62.805a.361.361 0 0 1-.111-.174c-.012-.063.014-.138.076-.225l.145-.208c.102-.133.23-.15.383-.052.051.04.119.09.204.147.085.052.182.104.29.156.113.052.238.099.374.14.136.034.284.051.442.051.324 0 .579-.078.766-.234a.796.796 0 0 0 .29-.641c0-.226-.072-.41-.213-.555a2.04 2.04 0 0 0-.536-.381 7.95 7.95 0 0 0-.698-.33 5.032 5.032 0 0 1-.698-.372 1.965 1.965 0 0 1-.536-.529c-.142-.208-.213-.47-.213-.789 0-.26.049-.494.145-.702.102-.208.241-.384.417-.528a1.87 1.87 0 0 1 .621-.347c.238-.08.494-.121.766-.121.176 0 .343.017.502.052.159.029.303.066.434.112.13.047.244.099.34.156.097.052.173.102.23.148.136.098.164.228.085.39l-.119.216c-.051.093-.11.142-.179.148a.391.391 0 0 1-.204-.07 3.703 3.703 0 0 0-.45-.225 1.51 1.51 0 0 0-.656-.13c-.312 0-.57.078-.774.234a.731.731 0 0 0-.307.624c0 .22.071.399.213.537.142.14.32.263.536.373.216.104.448.208.698.312.25.098.482.22.698.364.215.145.394.324.536.537.141.208.212.477.212.806 0 .243-.042.471-.127.685-.085.208-.21.39-.375.546-.164.156-.366.28-.604.373-.232.092-.499.138-.8.138-.215 0-.42-.023-.612-.069a2.977 2.977 0 0 1-.51-.156 4.542 4.542 0 0 1-.41-.208 2.927 2.927 0 0 1-.272-.2Z" fill="#696975"/></svg>