<svg width="132" height="24" fill="none" xmlns="http://www.w3.org/2000/svg"><path d="M36.875 6.158c2.307 0 4.189 1.146 4.837 2.921a.292.292 0 0 1-.005.22.285.285 0 0 1-.156.151l-1.662.64a.27.27 0 0 1-.202-.001.277.277 0 0 1-.146-.143 2.8 2.8 0 0 0-1.053-1.218 2.726 2.726 0 0 0-1.54-.424c-1.768 0-2.947 1.37-2.947 3.394s1.153 3.338 2.917 3.338c1.282 0 2.248-.666 2.687-1.672a.279.279 0 0 1 .144-.14.272.272 0 0 1 .2-.006l1.65.606a.283.283 0 0 1 .162.154.292.292 0 0 1 .002.225c-.74 1.872-2.663 3.031-4.909 3.031-3.158 0-5.325-2.206-5.325-5.53 0-3.324 2.146-5.546 5.346-5.546ZM57.583 6.614l.15.94c.529-.921 1.685-1.477 2.97-1.477 1.538 0 2.694.749 3.22 1.994.512-1.224 1.794-1.994 3.263-1.994 2.23 0 3.64 1.522 3.64 3.945v6.598c0 .075-.029.147-.08.2a.274.274 0 0 1-.196.082h-1.81a.274.274 0 0 1-.258-.173.286.286 0 0 1-.022-.109v-6.084c0-1.46-.694-2.295-1.956-2.295-1.348 0-2.148 1.045-2.148 2.402v5.977c0 .075-.03.147-.081.2a.274.274 0 0 1-.196.082h-1.823a.274.274 0 0 1-.258-.173.286.286 0 0 1-.021-.109v-6.107c0-1.499-.757-2.293-1.956-2.293-1.37 0-2.17 1.045-2.17 2.423v5.977c0 .075-.028.147-.08.2a.275.275 0 0 1-.196.082h-1.823a.273.273 0 0 1-.197-.081.282.282 0 0 1-.082-.2V6.658a.286.286 0 0 1 .172-.261.272.272 0 0 1 .107-.021h1.57a.274.274 0 0 1 .171.071c.048.043.08.102.09.166ZM48.363 6.077c3.333 0 5.515 2.35 5.515 5.574 0 3.225-2.19 5.552-5.515 5.552-3.325 0-5.494-2.35-5.494-5.552 0-3.2 2.169-5.574 5.494-5.574Zm0 8.917c1.83 0 3.03-1.371 3.03-3.343 0-1.93-1.156-3.365-3.03-3.365-1.83 0-3.01 1.37-3.01 3.365 0 1.927 1.136 3.343 3.01 3.343ZM81.084 15.166c-.651 1.266-2.051 1.995-3.705 1.995-3.03 0-4.84-2.295-4.84-5.468 0-3.28 1.871-5.616 4.904-5.616 1.556 0 2.905.686 3.515 1.864l.123-1.306a.284.284 0 0 1 .088-.186.274.274 0 0 1 .19-.075h1.614a.273.273 0 0 1 .198.082.282.282 0 0 1 .082.2v7.834c-.006.698.039 1.396.133 2.089a.29.29 0 0 1-.065.227.28.28 0 0 1-.212.099h-1.63a.271.271 0 0 1-.176-.062.28.28 0 0 1-.096-.163 7.82 7.82 0 0 1-.123-1.514Zm-.295-3.58c0-2.016-1.095-3.366-2.884-3.366-1.83 0-2.925 1.395-2.925 3.408s1.094 3.41 2.884 3.41c1.83 0 2.925-1.415 2.925-3.452ZM87.504 6.648l.14 1.23c.462-1.044 1.767-1.76 3.282-1.76 2.17 0 3.79 1.353 3.79 4.16v6.342c0 .075-.03.147-.081.2a.275.275 0 0 1-.196.082h-1.795a.275.275 0 0 1-.196-.082.285.285 0 0 1-.08-.2v-5.849c0-1.778-.95-2.509-2.15-2.509-1.576 0-2.44 1.222-2.44 2.789v5.546c0 .075-.03.148-.082.201a.277.277 0 0 1-.197.084h-1.795a.276.276 0 0 1-.277-.171.29.29 0 0 1-.023-.114V6.674c0-.075.03-.147.082-.2a.277.277 0 0 1 .198-.084h1.538a.274.274 0 0 1 .191.072.283.283 0 0 1 .09.186ZM104.818 15.166c-.654 1.266-2.064 1.995-3.704 1.995-3.03 0-4.84-2.295-4.84-5.468 0-3.28 1.87-5.616 4.904-5.616 1.556 0 2.904.686 3.515 1.864l.123-1.306a.28.28 0 0 1 .276-.26h1.616a.271.271 0 0 1 .197.08.282.282 0 0 1 .082.201v7.834c-.005.698.039 1.396.131 2.089a.29.29 0 0 1-.063.227.281.281 0 0 1-.212.099h-1.63a.282.282 0 0 1-.274-.225 8.005 8.005 0 0 1-.121-1.514Zm-.295-3.58c0-2.016-1.094-3.366-2.884-3.366-1.83 0-2.925 1.395-2.925 3.408s1.095 3.41 2.884 3.41c1.831 0 2.925-1.415 2.925-3.452ZM113.552 6.118c1.6 0 2.99.666 3.559 1.93l.105-1.39a.28.28 0 0 1 .277-.261h1.717a.273.273 0 0 1 .205.08.278.278 0 0 1 .085.205v9.698c0 3.066-2.271 4.93-5.43 4.93-2.212 0-3.845-.885-4.722-2.253a.28.28 0 0 1-.035-.21.276.276 0 0 1 .12-.174l1.404-.956a.275.275 0 0 1 .395.1c.495.9 1.538 1.415 2.797 1.415 1.851 0 3.136-1.116 3.136-2.81v-1.684c-.59 1.243-2.051 1.995-3.705 1.995-3.03 0-4.843-2.317-4.843-5.254-.013-3.152 1.99-5.36 4.935-5.36Zm.359 8.468c1.831 0 2.946-1.457 2.946-3.214 0-1.716-1.095-3.133-2.884-3.133-1.831.002-2.933 1.397-2.933 3.198 0 1.758 1.082 3.15 2.871 3.15ZM126.329 6.077c3.053 0 5.127 2.036 5.127 5.102a5.91 5.91 0 0 1-.084 1.028h-7.904c.085 1.951 1.179 2.98 3.03 2.98 1.126 0 2.146-.564 2.61-1.46a.276.276 0 0 1 .354-.123l1.418.635c.067.03.12.084.147.153a.29.29 0 0 1-.001.215c-.731 1.627-2.51 2.596-4.633 2.596-3.115 0-5.325-2.144-5.325-5.53 0-3.304 2.105-5.596 5.261-5.596Zm-.061 2.036c-1.516 0-2.633 1.008-2.821 2.593h5.641c-.085-1.585-1.221-2.593-2.82-2.593Z" fill="#696975"/><path fill-rule="evenodd" clip-rule="evenodd" d="M11.948 23.24c8.906 0 11.414-2.554 11.414-11.625C23.362 2.543 20.854 0 11.948 0 3.042 0 .545 2.543.545 11.614c0 9.072 2.497 11.625 11.403 11.625Zm1.962-4.44a7.264 7.264 0 0 0 3.026-1.725 7.45 7.45 0 0 0 1.902-2.954.266.266 0 0 0-.018-.193.258.258 0 0 0-.144-.128l-2.6-.843a.252.252 0 0 0-.182.013.259.259 0 0 0-.127.133 4.154 4.154 0 0 1-1.053 1.583 4.053 4.053 0 0 1-1.637.934 4.038 4.038 0 0 1-2.953-.48 4.166 4.166 0 0 1-1.847-2.394 4.248 4.248 0 0 1 .238-3.036 4.132 4.132 0 0 1 2.198-2.064 4.01 4.01 0 0 1 3.5.504.253.253 0 0 0 .338-.052l.17-.232c.418-.567 1.142-1.552 1.463-2.001a.265.265 0 0 0-.053-.355 7.194 7.194 0 0 0-7.008-.757 7.33 7.33 0 0 0-2.9 2.238 7.517 7.517 0 0 0-1.483 3.383 7.58 7.58 0 0 0 .301 3.692 7.461 7.461 0 0 0 2.01 3.088 7.271 7.271 0 0 0 3.222 1.72c1.2.288 2.45.263 3.637-.073Zm3.2-12.465a.254.254 0 0 0-.361 0l-1.93 2.126a.129.129 0 0 0 0 .177l.14.149a.123.123 0 0 0 .135.027.122.122 0 0 0 .04-.027l2.15-1.893a.263.263 0 0 0 .024-.368c-.044-.038-.091-.085-.14-.133l-.058-.058Zm1.544 2.507c.062.027.111.078.137.141.04.107.074.196.097.272a.264.264 0 0 1-.167.329l-2.73.82a.124.124 0 0 1-.094-.009.127.127 0 0 1-.062-.072 6.66 6.66 0 0 0-.07-.207.13.13 0 0 1 .07-.162L18.46 8.84a.252.252 0 0 1 .194.003Zm-.564-1.27a.253.253 0 0 0-.356-.068l-2.32 1.651a.132.132 0 0 0-.033.178c.038.056.074.114.107.175a.124.124 0 0 0 .17.047L18.15 8.17a.265.265 0 0 0 .082-.353 1.905 1.905 0 0 0-.143-.245Z" fill="#696975"/></svg>