<svg width="115" height="54" fill="none" xmlns="http://www.w3.org/2000/svg"><path d="m21.649 2.957-5.337 25.88 22.045-13.516-16.708 5.528V2.957Z" fill="#696975"/><path d="M20.565 0 7.625 40.563l33.878-25.069-27.472 16.27L20.565 0Z" fill="#696975"/><path d="M25.52 18.162c1.446 0 2.62-1.194 2.62-2.668 0-1.473-1.174-2.668-2.62-2.668-1.447 0-2.62 1.195-2.62 2.668 0 1.474 1.173 2.668 2.62 2.668ZM19.895 32.525c.98.325 1.927.703 2.875 1.102 1.883.793 3.74 1.65 5.568 2.568.921.455 1.816.938 2.716 1.408l-1.124.83c-.171-1.019-.33-2.04-.476-3.065a97.79 97.79 0 0 1-.68-6.179 43.886 43.886 0 0 1-.142-3.123c.342.988.614 1.99.893 2.992.278 1.003.509 2.009.74 3.02.23 1.012.437 2.02.638 3.037.2 1.017.38 2.033.555 3.052l.27 1.583-1.395-.75a139.86 139.86 0 0 1-2.677-1.481 100.07 100.07 0 0 1-5.23-3.201 41.803 41.803 0 0 1-2.53-1.793Zm-5.389-16.91c-.979.32-1.97.578-2.96.827a77.92 77.92 0 0 1-2.982.678c-.996.21-1.997.397-2.996.573-.997.176-2.004.335-3.009.488l.429-1.348c.726.726 1.447 1.455 2.155 2.197.706.742 1.408 1.493 2.094 2.258.686.765 1.364 1.54 2.023 2.332.668.791 1.306 1.607 1.915 2.446-.848-.598-1.645-1.246-2.448-1.877-.801-.632-1.573-1.321-2.34-2a101.882 101.882 0 0 1-2.27-2.074 95.288 95.288 0 0 1-2.21-2.139l-1.136-1.13 1.563-.235c1.005-.148 2.012-.282 3.02-.404a87.488 87.488 0 0 1 6.084-.535 40.47 40.47 0 0 1 3.068-.056ZM47.72 39.193a2.494 2.494 0 0 1-1.01-.185 2.53 2.53 0 0 1-.854-.576 2.623 2.623 0 0 1-.736-1.903c0-1.448.998-2.63 2.535-2.63.811.018 1.586.345 2.175.914l.92-1.447s-1.028-1.266-3.204-1.266c-2.764 0-4.527 2.03-4.527 4.446 0 2.464 1.765 4.444 4.528 4.444.634.015 1.264-.1 1.854-.337a4.742 4.742 0 0 0 1.58-1.045l-.8-1.497s-1.053 1.082-2.461 1.082Zm9.76-7.086a3.18 3.18 0 0 0-1.668.438c-.507.297-.925.73-1.21 1.25h-.033s.033-.3.033-.716v-4.102h-2.074v11.822h2.074v-3.896c-.01-.37.035-.74.132-1.098.133-.508.426-.957.834-1.277.409-.321.91-.496 1.425-.498 1.062 0 1.326.705 1.326 1.73v5.03h2.06v-5.452c-.005-2.246-1.051-3.229-2.899-3.229v-.002Zm9.023 0c-2.535 0-4.576 1.848-4.576 4.446s2.044 4.444 4.592 4.444c2.549 0 4.579-1.83 4.579-4.444s-2.045-4.446-4.595-4.446Zm.016 7.093c-1.358 0-2.484-1.066-2.484-2.647 0-1.583 1.127-2.648 2.484-2.648s2.47 1.082 2.47 2.648c0 1.565-1.128 2.64-2.47 2.64v.008Zm10.2-7.093c-2.534 0-4.576 1.848-4.576 4.446s2.044 4.444 4.596 4.444c2.55 0 4.575-1.83 4.575-4.444s-2.044-4.446-4.594-4.446Zm.02 7.093c-1.359 0-2.487-1.066-2.487-2.647 0-1.583 1.128-2.648 2.486-2.648 1.357 0 2.468 1.082 2.468 2.648 0 1.565-1.13 2.64-2.468 2.64v.007Zm8.188-1.366v-8.857h-2.059v9.173c0 2.432 1.421 2.73 2.566 2.73.22-.002.438-.018.655-.05v-1.847s-.147.017-.311.017c-.54 0-.852-.234-.852-1.166Zm7.65-5.727a3.18 3.18 0 0 0-1.729.45c-.523.312-.95.768-1.23 1.315h-.033c.022-.194.033-.388.033-.584v-.98h-1.992v8.49h2.073v-3.896a3.613 3.613 0 0 1 .147-1.133c.133-.5.426-.94.83-1.253.406-.313.901-.48 1.41-.477 1.061 0 1.323.705 1.323 1.73v5.03h2.064v-5.462c0-2.246-1.048-3.23-2.896-3.23Zm8.714 0c-2.487 0-4.235 1.831-4.235 4.446 0 2.415 1.716 4.444 4.479 4.444a5.155 5.155 0 0 0 3.353-1.215l-.803-1.514s-1.062.938-2.403.938c-1.241 0-2.37-.765-2.5-2.247h5.761s.047-.565.047-.817c-.005-2.253-1.297-4.035-3.699-4.035Zm-2.044 3.397c.196-1.098.921-1.766 1.995-1.766.921 0 1.613.616 1.65 1.766h-3.645Zm11.541 3.513c-.571 0-1.652-.2-1.652-1.599V34.12h1.897v-1.683h-1.897v-2.446h-2.027v2.447h-1.127v1.683h1.078v3.563c0 2.846 2.304 3.196 3.457 3.196.213.003.427-.014.638-.05v-1.847a1.907 1.907 0 0 1-.367.033Zm-74.412-6.843c0-.834.768-1.409 1.749-1.409 1.454 0 2.567 1.033 2.567 1.033l.92-1.749s-1.176-1.264-3.455-1.264c-2.223 0-3.891 1.464-3.891 3.428 0 3.63 5.476 3.265 5.476 5.38 0 .964-.798 1.43-1.684 1.43a5.301 5.301 0 0 1-2.901-.966l-.891-.864.553 2.978c.656.331 2.124.833 3.207.833 2.42 0 3.825-1.581 3.825-3.463-.017-3.785-5.475-3.275-5.475-5.367Zm7.224-17.24h6.942v1.849h-4.84v3.098h3.918v1.847h-3.917v3.18h5.101v1.847H43.6v-11.82Zm8.958 3.33h2.073v5.029c0 1.033.264 1.732 1.294 1.732 1.502 0 2.336-1.35 2.336-2.863v-3.899h2.073v8.491h-1.992v-.967c0-.2.01-.399.032-.598h-.032a3.262 3.262 0 0 1-1.203 1.299 3.182 3.182 0 0 1-1.692.466c-1.78 0-2.894-.915-2.894-3.231l.005-5.46Zm10.072 0h1.992v1.467c0 .2-.011.4-.032.598h.033c.376-1.215 1.382-2.18 2.647-2.18.126 0 .253.012.378.033v2.081a3.607 3.607 0 0 0-.491-.032 2.331 2.331 0 0 0-1.432.498c-.41.322-.706.772-.84 1.282-.13.449-.19.916-.18 1.383v3.36H62.63l-.001-8.49Zm10.38-.193c2.548 0 4.592 1.85 4.592 4.459 0 2.61-2.044 4.445-4.577 4.445-2.532 0-4.594-1.833-4.594-4.445 0-2.611 2.043-4.459 4.578-4.459Zm.016 7.095c1.341 0 2.467-1.065 2.467-2.648 0-1.581-1.126-2.646-2.467-2.646-1.341 0-2.487 1.081-2.487 2.646 0 1.566 1.13 2.64 2.487 2.64v.008Zm6.244-6.903h1.896v.618c0 .194-.011.389-.032.582h.032s.72-1.407 2.68-1.407c2.258 0 3.687 1.816 3.687 4.458 0 2.696-1.613 4.445-3.808 4.445a2.832 2.832 0 0 1-1.335-.29 2.89 2.89 0 0 1-1.053-.883h-.033s.033.3.033.732v3.57h-2.074l.007-11.825Zm4.088 6.912c1.152 0 2.092-.938 2.092-2.63 0-1.616-.85-2.664-2.074-2.664-1.081 0-2.092.798-2.092 2.68-.002 1.314.7 2.614 2.074 2.614Zm9.546-7.104c2.403 0 3.686 1.782 3.686 4.03 0 .25-.048.817-.048.817H90.78c.13 1.48 1.26 2.248 2.5 2.248 1.342 0 2.404-.939 2.404-.939l.802 1.516a5.156 5.156 0 0 1-3.353 1.216c-2.765 0-4.48-2.032-4.48-4.445.015-2.617 1.766-4.442 4.249-4.442l.001-.001Zm1.601 3.398c-.032-1.148-.735-1.764-1.65-1.764-1.064 0-1.799.664-1.995 1.764h3.645Zm8.044-.042h.276v-.115c0-1.117-.691-1.499-1.613-1.499-1.193 0-2.287.817-2.287.817l-.786-1.517a5.56 5.56 0 0 1 3.28-1.042c2.192 0 3.457 1.233 3.457 3.382v5.301h-1.913v-.703c0-.201.011-.402.033-.602h-.033c.017 0-.638 1.5-2.534 1.5-1.488 0-2.829-.938-2.829-2.647.01-2.692 3.592-2.875 4.949-2.875Zm-1.586 3.88c1.095 0 1.879-1.197 1.879-2.23v-.2h-.36c-1.062 0-2.78.149-2.78 1.331 0 .566.412 1.099 1.261 1.099Zm6.081-7.044h1.992v.982c0 .194-.009.388-.031.582h.032c.282-.546.709-1 1.232-1.311a3.18 3.18 0 0 1 1.727-.445c1.843 0 2.894.984 2.894 3.232v5.451h-2.06v-5.026c0-1.033-.261-1.733-1.323-1.733a2.277 2.277 0 0 0-1.409.478 2.349 2.349 0 0 0-.83 1.255 3.62 3.62 0 0 0-.148 1.133v3.893h-2.073l-.003-8.49ZM9.258 47.778h-1.59v-.574h3.83v.574H9.91v4.15h-.652v-4.15Zm2.154.764h.62v.589c0 .084-.005.168-.014.253h.014c.057-.244.19-.461.38-.62.19-.16.425-.252.67-.263.055 0 .11.006.164.015v.643a.86.86 0 0 0-.184-.021 1.014 1.014 0 0 0-.933.795 2.15 2.15 0 0 0-.078.61v1.385h-.64v-3.387l.001.001Zm4.2 1.271h.136v-.06c0-.554-.308-.743-.727-.743a1.657 1.657 0 0 0-.921.33l-.264-.47c.361-.266.796-.407 1.242-.401.841 0 1.313.469 1.313 1.325v2.14h-.59v-.328c0-.089.005-.179.015-.268h-.014a1.15 1.15 0 0 1-1.065.67c-.572 0-1.13-.355-1.13-1.03 0-1.118 1.45-1.165 2.005-1.165Zm-.737 1.674c.54 0 .887-.575.887-1.077v-.108h-.164c-.479 0-1.347.032-1.347.643a.575.575 0 0 0 .195.41.555.555 0 0 0 .429.132Zm2.47-2.945h.617v.447c0 .083-.004.167-.013.25h.013c.113-.237.29-.436.51-.574.22-.137.474-.208.733-.203.78 0 1.152.433 1.152 1.298v2.168h-.64v-2.02c0-.47-.098-.85-.63-.85-.494 0-.926.34-1.05.828a1.56 1.56 0 0 0-.053.456v1.586h-.64v-3.386Zm4 2.51c.26.248.6.389.954.395.277 0 .55-.148.55-.423 0-.622-1.706-.495-1.706-1.598 0-.617.538-.964 1.203-.964.39-.023.775.112 1.071.375l-.256.488a1.206 1.206 0 0 0-.823-.302c-.276 0-.545.121-.545.415 0 .61 1.709.47 1.709 1.586 0 .563-.475.983-1.203.983a1.773 1.773 0 0 1-1.25-.494l.296-.46Zm3.082-1.94h-.413v-.533h.413v-.16c0-1.12.828-1.26 1.25-1.26.078 0 .155.008.23.021v.556a.87.87 0 0 0-.163-.013.62.62 0 0 0-.51.185.645.645 0 0 0-.182.518v.154h.79v.522h-.785v2.817h-.63v-2.807Zm3.581-.65c.343.01.674.124.954.325.279.202.494.483.617.808.124.326.15.68.076 1.021-.073.341-.244.652-.49.894a1.713 1.713 0 0 1-1.893.356 1.75 1.75 0 0 1-.772-.656 1.798 1.798 0 0 1-.287-.981 1.794 1.794 0 0 1 .529-1.272 1.73 1.73 0 0 1 1.266-.495Zm0 2.985c.237.008.47-.057.672-.185.2-.128.36-.314.456-.535a1.234 1.234 0 0 0-.23-1.334 1.17 1.17 0 0 0-1.3-.285c-.221.09-.41.245-.543.445-.133.199-.205.435-.206.676a1.194 1.194 0 0 0 .322.858 1.152 1.152 0 0 0 .83.36Zm2.55-2.905h.629v.589c0 .084-.006.168-.014.253h.013c.058-.243.191-.461.38-.62.19-.16.425-.252.67-.263.056 0 .11.006.164.015v.643a.853.853 0 0 0-.181-.021 1.012 1.012 0 0 0-.934.795 2.063 2.063 0 0 0-.08.61v1.385h-.637l-.01-3.386Zm2.472 0h.617v.447c0 .084-.005.167-.014.25h.014a1.293 1.293 0 0 1 1.152-.777c.56 0 .887.26 1 .77h-.004c.108-.228.276-.42.485-.556.21-.136.451-.21.7-.214.747 0 1.096.433 1.096 1.298v2.168h-.64v-2.027c0-.47-.091-.85-.588-.85-.499 0-.816.402-.934.863-.034.154-.05.312-.046.47v1.546h-.639v-2.027c0-.44-.064-.85-.577-.85-.514 0-.827.408-.952.89a1.815 1.815 0 0 0-.041.44v1.547h-.63v-3.389.001Zm5.99-1.338h.752v.67h-.752v-.67Zm0 1.337h.744v3.387h-.744v-3.387Zm1.64.001h.618v.447c0 .083-.004.167-.013.25h.013a1.37 1.37 0 0 1 .513-.576c.222-.138.478-.207.737-.201.78 0 1.151.433 1.151 1.298v2.168h-.639v-2.02c0-.47-.096-.85-.628-.85-.24 0-.474.082-.664.232-.19.15-.327.36-.388.596a1.648 1.648 0 0 0-.054.456v1.586h-.636l-.01-3.386Zm5.172 4.231c.578 0 1.05-.263 1.05-.95V51.36h-.014c-.1.173-.245.314-.42.408a1.04 1.04 0 0 1-.567.12c-.92 0-1.483-.756-1.483-1.735 0-.978.532-1.691 1.451-1.691.803 0 1.047.502 1.047.502a.835.835 0 0 1 0-.108v-.315h.613v3.245c0 1.12-.836 1.547-1.677 1.547a2.537 2.537 0 0 1-1.137-.281l.21-.508c.288.147.605.226.927.23Zm1.063-2.613c0-.882-.42-1.137-.94-1.137-.577 0-.907.429-.907 1.12 0 .689.368 1.172.968 1.172.458.01.88-.27.88-1.155Zm4.743-1.698c.94 0 1.44.703 1.44 1.586 0 .086-.02.282-.02.282h-2.426a1.125 1.125 0 0 0 .338.814 1.081 1.081 0 0 0 .816.303c.363-.013.71-.153.985-.395l.264.47a1.96 1.96 0 0 1-1.289.48 1.663 1.663 0 0 1-1.258-.495 1.726 1.726 0 0 1-.502-1.275c-.01-1.073.705-1.77 1.652-1.77Zm.788 1.377c-.02-.582-.374-.861-.802-.861a.942.942 0 0 0-.65.238.975.975 0 0 0-.322.623h1.774Zm2.723-1.377a1.1 1.1 0 0 1 1.026.535h.01a2.241 2.241 0 0 1-.01-.235v-1.566h.636v4.724h-.604v-.548h-.014c-.103.2-.261.365-.454.477a1.147 1.147 0 0 1-.636.152c-.901 0-1.466-.723-1.466-1.772 0-1.05.622-1.767 1.512-1.767Zm.085 2.985c.493 0 .959-.355.959-1.218 0-.603-.309-1.206-.94-1.206-.526 0-.959.443-.959 1.213-.01.735.379 1.21.931 1.21h.009Zm2.519-2.905h.639v2.02c0 .47.092.845.624.845.677 0 1.078-.61 1.078-1.28v-1.585h.636v3.387h-.617v-.448c0-.082.004-.165.014-.247h-.014c-.226.478-.702.78-1.222.775-.748 0-1.137-.402-1.137-1.299l-.001-2.168Zm5.52-.08c.466-.018.919.162 1.25.495l-.304.455a1.332 1.332 0 0 0-.922-.39 1.116 1.116 0 0 0-.832.35 1.156 1.156 0 0 0-.32.857 1.195 1.195 0 0 0 .33.868 1.15 1.15 0 0 0 .847.35 1.487 1.487 0 0 0 1.023-.455l.258.469a1.795 1.795 0 0 1-1.327.542 1.713 1.713 0 0 1-1.268-.498 1.775 1.775 0 0 1-.53-1.275 1.8 1.8 0 0 1 .53-1.275 1.74 1.74 0 0 1 1.268-.498l-.003.005Zm3.784 1.351h.145v-.06c0-.554-.308-.743-.73-.743-.333.015-.653.13-.921.33l-.264-.47c.361-.266.797-.407 1.243-.401.84 0 1.313.469 1.313 1.325v2.14h-.59v-.328c0-.153.012-.268.012-.268h-.012a1.15 1.15 0 0 1-1.064.67c-.574 0-1.132-.355-1.132-1.03 0-1.118 1.443-1.165 2-1.165Zm-.738 1.674c.54 0 .89-.575.89-1.077v-.108h-.166c-.48 0-1.345.032-1.345.643a.574.574 0 0 0 .194.41.553.553 0 0 0 .427.132Zm2.591-2.375h-.436v-.533h.46v-.977h.618v.977h.805v.523h-.802v1.505c0 .676.46.762.71.762.05 0 .101-.003.151-.011v.574c-.075.01-.153.015-.23.014-.426 0-1.274-.134-1.274-1.264l-.002-1.57Zm2.207-1.908h.752v.67h-.752v-.67Zm0 1.337h.746v3.387h-.746v-3.387Zm3.191-.08c.342.011.674.124.954.325.28.201.495.482.619.807a1.805 1.805 0 0 1-.412 1.916 1.712 1.712 0 0 1-1.893.358 1.749 1.749 0 0 1-.773-.656 1.797 1.797 0 0 1-.287-.982 1.793 1.793 0 0 1 .528-1.27 1.73 1.73 0 0 1 1.264-.497Zm0 2.986c.237.007.47-.057.671-.185.201-.128.36-.315.456-.535a1.233 1.233 0 0 0-.231-1.334 1.17 1.17 0 0 0-1.3-.284c-.22.09-.409.244-.542.444a1.23 1.23 0 0 0-.206.676 1.194 1.194 0 0 0 .322.858 1.152 1.152 0 0 0 .83.36Zm2.55-2.905h.618v.447c0 .084-.005.167-.014.25h.014c.113-.238.29-.438.512-.576.221-.137.476-.207.736-.201.782 0 1.15.433 1.15 1.298v2.168h-.637v-2.02c0-.47-.1-.85-.632-.85-.494 0-.926.341-1.05.828a1.647 1.647 0 0 0-.053.456v1.586h-.636l-.007-3.386Zm5.644-1.338h.752v.67h-.752v-.67Zm0 1.337h.746v3.387h-.746v-3.387Zm1.64.001h.62v.447c0 .084-.005.167-.014.25h.014c.113-.238.29-.438.512-.576.22-.137.476-.207.735-.201.783 0 1.151.433 1.151 1.298v2.168h-.638v-2.02c0-.47-.098-.85-.631-.85-.495 0-.926.341-1.05.828a1.647 1.647 0 0 0-.054.456v1.586h-.638l-.006-3.386Zm5.782-1.338h2.695v.574h-2.043v1.48h1.67v.577h-1.662v1.518h2.155v.574h-2.815v-4.723Zm3.587 1.338h.64v2.02c0 .47.09.845.622.845.676 0 1.076-.61 1.076-1.28v-1.585h.64v3.387h-.619v-.448c0-.082.005-.165.014-.247h-.014c-.226.478-.701.78-1.22.775-.753 0-1.139-.402-1.139-1.299v-2.168Zm3.975 0h.617v.589c0 .084-.005.168-.014.253h.014a1.16 1.16 0 0 1 .381-.62c.19-.159.425-.251.67-.263.056 0 .11.006.165.015v.643a.859.859 0 0 0-.184-.021.997.997 0 0 0-.59.241 1.029 1.029 0 0 0-.331.554 2.092 2.092 0 0 0-.079.61v1.385h-.638l-.011-3.386Zm3.995-.08c.342.01.674.124.953.325.28.202.494.483.618.808a1.805 1.805 0 0 1-.414 1.915 1.712 1.712 0 0 1-1.893.356 1.75 1.75 0 0 1-.772-.656 1.797 1.797 0 0 1-.287-.981 1.794 1.794 0 0 1 .529-1.272 1.727 1.727 0 0 1 1.266-.495Zm0 2.985c.237.007.47-.057.671-.185.201-.128.36-.315.456-.535a1.236 1.236 0 0 0-.231-1.334 1.172 1.172 0 0 0-1.301-.284c-.22.09-.408.244-.541.444-.134.2-.205.435-.206.676a1.177 1.177 0 0 0 .701 1.124c.142.062.296.094.451.094Zm2.549-2.905h.584v.287c0 .084-.004.166-.013.247h.013a1.22 1.22 0 0 1 .472-.469c.197-.108.42-.159.644-.145.894 0 1.461.723 1.461 1.774 0 1.052-.639 1.772-1.504 1.772a1.156 1.156 0 0 1-1.022-.553v1.818h-.635v-4.73Zm1.557 2.912c.526 0 .959-.444.959-1.21 0-.768-.387-1.215-.94-1.215-.498 0-.959.355-.959 1.218 0 .603.329 1.207.94 1.207Zm3.816-2.992c.94 0 1.44.703 1.44 1.586 0 .086-.021.282-.021.282h-2.425c-.002.152.027.303.086.443a1.094 1.094 0 0 0 .629.61c.14.051.289.073.438.064.364-.013.712-.153.986-.395l.264.47c-.36.311-.817.482-1.289.48a1.666 1.666 0 0 1-1.258-.495 1.735 1.735 0 0 1-.502-1.275c-.01-1.073.705-1.77 1.652-1.77Zm.788 1.377c-.019-.582-.374-.861-.802-.861a.94.94 0 0 0-.651.237.975.975 0 0 0-.322.624h1.775Zm.926-5.102H7.661a.343.343 0 0 1-.233-.11.356.356 0 0 1 0-.484.343.343 0 0 1 .233-.11h103.456a.342.342 0 0 1 .233.11.356.356 0 0 1 0 .485.342.342 0 0 1-.233.11Z" fill="#696975"/></svg>