<svg width="120" height="40" fill="none" xmlns="http://www.w3.org/2000/svg"><path d="M94.674 0c-.416-.009-.83.068-1.217.224a3.102 3.102 0 0 0-1.034.69 3.17 3.17 0 0 0-.69 1.046 3.216 3.216 0 0 0-.233 1.237c0 .853.333 1.67.925 2.273a3.127 3.127 0 0 0 2.231.942c.837 0 1.64-.34 2.232-.942.592-.603.924-1.42.924-2.273a3.212 3.212 0 0 0-.229-1.229 3.164 3.164 0 0 0-.679-1.042 3.098 3.098 0 0 0-1.023-.692 3.053 3.053 0 0 0-1.207-.233ZM60.77 8.832c-.622 0-1.228.187-1.744.538-.517.351-.919.85-1.156 1.435a3.252 3.252 0 0 0-.179 1.847c.121.62.42 1.189.859 1.636.439.447.998.752 1.607.875s1.24.06 1.813-.182a3.15 3.15 0 0 0 1.408-1.177 3.239 3.239 0 0 0 .53-1.776 3.216 3.216 0 0 0-.231-1.228 3.172 3.172 0 0 0-.68-1.042 3.104 3.104 0 0 0-1.022-.692 3.058 3.058 0 0 0-1.206-.234ZM35.419 8.361c-4.192 0-7.788 1.548-9.352 4.694l4.142 2.47c.69-1.547 2.242-2.392 4.42-2.392 2.18 0 3.09.845 3.09 2.443 0 1.78-1.153 1.968-3.686 2.283-4.052.543-8.926 1.438-8.926 6.224 0 3.516 2.533 5.675 6.636 5.675 2.95 0 5.02-1.123 6.173-3.328v2.858h6.07V16.384c0-5.534-3.367-8.023-8.567-8.023Zm2.394 13.375c0 2.863-1.66 4.11-3.963 4.11-1.892 0-2.767-.914-2.767-2.284 0-2.064 2.121-2.393 3.686-2.58 1.564-.187 2.488-.516 3.044-1.502v2.256ZM48.684 8.832v20.456h6.313V8.458c-1.153.328-2.242.374-4.147.374h-2.166ZM1.103 35.617l4.088-3.37c1.193 1.64 2.69 2.388 5.192 2.388 3.9 0 5.56-1.78 5.56-5.525V25.57a7.098 7.098 0 0 1-2.586 2.995 6.914 6.914 0 0 1-3.759 1.115C4.546 29.68 0 24.877 0 19.028 0 13.178 4.546 8.36 9.598 8.36a6.91 6.91 0 0 1 3.76 1.114 7.093 7.093 0 0 1 2.584 2.996V8.818H18.1c2.2 0 3.138-.046 4.088-.375v19.8c0 7.392-4.456 11.273-11.76 11.273-4.15 0-7.486-1.214-9.324-3.9Zm15.036-16.59c0-3.136-2.295-5.383-4.823-5.383-2.664 0-4.87 2.247-4.87 5.384 0 3.137 2.189 5.379 4.852 5.379 2.528 0 4.841-2.197 4.841-5.38ZM114.257 17.137l-2.69-.515c-2.242-.425-2.901-.941-2.901-1.877 0-1.27 1.153-1.973 2.995-1.973a5.858 5.858 0 0 1 2.684.559c.84.396 1.577.987 2.154 1.724l3.223-3.429c-1.242-1.968-4.331-3.283-7.877-3.283-5.205 0-9.258 2.863-9.258 7.041 0 2.813 1.888 5.069 5.667 5.721l3.268.567c1.793.328 2.399.913 2.399 1.735 0 1.219-1.291 1.922-3.551 1.922-2.627 0-4.514-.913-5.573-2.16l-2.994 3.617c1.345 1.78 4.559 2.954 8.244 2.954 5.667 0 9.953-2.767 9.953-7.036.018-2.845-1.87-4.818-5.743-5.567ZM77.36 22.252l-5.067-13.42h-6.361l8.293 20.456h5.761l8.339-20.456h-5.716l-5.25 13.42ZM91.5 8.832v20.456h6.312V8.458c-1.152.328-2.241.374-4.147.374H91.5ZM55.012 34.653h-27.53a2.35 2.35 0 0 0-.946.154 2.385 2.385 0 0 0-.81.52c-.234.227-.42.5-.546.802a2.473 2.473 0 0 0 .545 2.714 2.35 2.35 0 0 0 1.756.674h27.531a2.371 2.371 0 0 0 1.623-.749 2.458 2.458 0 0 0 .663-1.683c0-.627-.237-1.23-.663-1.683a2.371 2.371 0 0 0-1.623-.749Z" fill="#696975"/></svg>