<svg width="120" height="51" fill="none" xmlns="http://www.w3.org/2000/svg"><g clip-path="url(#a)"><path d="M0 0h7.033v14.516c1.505-1.793 4.394-2.943 7.66-2.943 7.91 0 13.438 5.63 13.438 13.943V38.82H21.1V25.516c0-4.22-2.89-7.291-7.033-7.291-4.018 0-7.033 3.07-7.033 7.29V38.82H0V0ZM72.162 25.516c0-7.674 6.531-13.943 14.066-13.943 8.162 0 14.066 5.63 14.066 13.943 0 7.674-6.28 13.943-13.69 13.943-2.638 0-5.147-.639-7.409-2.304V50.07h-7.033V25.516Zm21.094 0c0-4.22-2.889-7.291-7.032-7.291-4.019 0-7.033 3.07-7.033 7.29 0 4.093 3.014 7.292 7.032 7.292 4.148 0 7.033-3.199 7.033-7.291ZM105.934 22.19c0-5.886 4.143-9.978 9.796-9.978h4.269v6.652h-3.767c-1.886 0-3.266 1.277-3.266 3.326v16.626h-7.032V22.19Z" fill="#696975"/><path d="M50.147 29.018c5.385 0 9.753 4.388 9.753 9.802h6.618c0-9.088-7.331-16.454-16.371-16.454s-16.375 7.366-16.375 16.45h6.617c0-5.41 4.369-9.798 9.758-9.798Z" fill="#9B9BA3"/></g><defs><clipPath id="a"><path fill="#fff" d="M0 0h120v50.071H0z"/></clipPath></defs></svg>