<svg width="132" height="23" fill="none" xmlns="http://www.w3.org/2000/svg"><path fill-rule="evenodd" clip-rule="evenodd" d="M118.088 0v22.222h13.365v-4.865h-7.177V0h-6.188ZM102.189 0v22.222h13.474v-4.865h-7.364v-3.869h6.884V8.734h-6.884v-3.87h7.364V0h-13.474ZM89.436 4.865h1.733c1.413 0 2.374.552 2.374 1.99 0 1.575-1.146 2.183-2.48 2.183h-1.627V4.865Zm0 12.493v-4.229h2.08c1.44 0 2.589.497 2.589 2.045 0 1.162-.747 2.184-2.696 2.184h-1.974Zm6.135-6.994c2.589-1.05 3.548-2.707 3.548-5.085C99.119 1.576 96.797 0 91.942 0h-8.616v22.222h8.27c5.31 0 8.937-1.742 8.937-6.054 0-3.344-1.76-5.583-4.962-5.804Z" fill="#696975"/><path fill-rule="evenodd" clip-rule="evenodd" d="M83.649 22.222 76.819 0l-2.855 9.038 1.36 5.197h-2.96l-1.333 4.394h5.44l.935 3.593h6.243ZM51.98 9.922V4.865h2.082c1.707 0 2.614.801 2.614 2.404 0 1.741-1.147 2.653-2.855 2.653h-1.84Zm6.323 2.958c2.855-.913 4.349-3.152 4.349-6.44 0-4.201-2.721-6.44-7.737-6.44h-9.097v22.222h6.163v-8.374h.613l4.002 8.374h7.07l-5.363-9.342ZM30.158 22.222h6.162v-8.375h6.803V9.094H36.32V4.865h7.283V0H30.158v22.222ZM21.354 0v11.028l-.16.028L15.963 0H9.348v22.222h6.163V11l.134-.055L20.9 22.222h6.616V0h-6.162ZM.545 22.222h6.162V0H.545v22.222Z" fill="#696975"/><path fill-rule="evenodd" clip-rule="evenodd" d="m73.964 0-6.91 22.222h2.855L76.82 0h-2.855Z" fill="#696975"/><path fill-rule="evenodd" clip-rule="evenodd" d="m67.935 0-6.882 22.222h2.88L70.817 0h-2.882Z" fill="#9B9BA3"/></svg>