<svg width="83" height="54" fill="none" xmlns="http://www.w3.org/2000/svg"><path fill-rule="evenodd" clip-rule="evenodd" d="M74.737 29.017c4.365 0 6.951 2.732 7.329 6.775.107 1.148.107 3.443 0 4.59-.377 4.153-2.91 6.721-7.22 6.721-1.437 0-2.775-.495-3.922-.92l-.174-.064v5.41c0 .985-.808 1.804-1.778 1.804s-1.779-.82-1.779-1.803V32.13c0-.437.162-.71.593-.983.916-.656 3.718-2.131 6.95-2.131Zm-.108 14.753c2.64 0 3.825-1.312 3.987-3.716.054-.874.054-2.787 0-3.77-.162-2.514-1.509-3.88-3.934-3.88-1.454 0-3.07.656-3.88 1.202v9.071c.81.437 2.21 1.093 3.826 1.093Z" fill="#696975"/><path d="M48.764 40.109c0 4.48 2.801 7.049 7.22 7.049 3.449 0 5.712-1.312 6.736-1.968.485-.327.646-.71.646-1.31V31.091c0-1.038-.808-1.803-1.724-1.803-.97 0-1.725.82-1.725 1.803v11.585c-.862.546-2.101 1.093-3.88 1.093-2.37 0-3.77-1.421-3.77-3.716v-9.016c0-1.039-.81-1.858-1.78-1.858-1.024 0-1.67.82-1.67 1.858v9.07h-.053Z" fill="#696975"/><path fill-rule="evenodd" clip-rule="evenodd" d="M37.719 28.962c4.203 0 7.274 2.732 7.544 6.666.108 1.312.108 3.388 0 4.7-.27 3.879-3.395 6.775-7.544 6.775-4.095 0-7.274-2.896-7.544-6.775a68.435 68.435 0 0 1 0-4.7c.323-3.934 3.448-6.666 7.544-6.666Zm0 14.808c2.318 0 3.88-1.53 4.096-3.825.054-.983.054-2.787 0-3.825-.108-2.185-1.67-3.716-4.095-3.716s-3.934 1.53-4.095 3.716c-.054 1.039-.108 2.842 0 3.825.215 2.295 1.724 3.825 4.095 3.825Z" fill="#696975"/><path d="M27.749 29.344c-.7-.218-1.832-.383-2.964-.383-3.556 0-5.496 2.132-5.496 5.465V45.19c0 .984.808 1.749 1.67 1.749.97 0 1.779-.765 1.779-1.75V35.028c0-1.803.7-2.623 2.263-2.623 1.077-.054 1.832.274 2.425.274 1.131 0 1.616-.93 1.616-1.64 0-.82-.323-1.366-1.293-1.694Z" fill="#696975"/><path fill-rule="evenodd" clip-rule="evenodd" d="M8.027 29.016c3.125 0 5.712 1.366 6.682 2.022.592.382.646.765.485 1.257v13.333c0 5.082-3.395 7.486-7.705 7.486-2.102 0-3.88-.656-5.011-1.366-.755-.492-1.402-1.148-1.402-1.967 0-.766.54-1.53 1.671-1.53.736 0 1.337.339 1.993.709.785.443 1.648.93 2.91.93 2.263 0 4.473-1.367 4.473-3.99v-.327c-1.186.546-2.748 1.038-4.527 1.038-4.095 0-6.628-2.678-6.897-6.557-.054-.93-.108-2.896 0-4.208.323-3.989 2.856-6.83 7.328-6.83Zm4.07 13.267.079-.043v-8.797a5.036 5.036 0 0 1-.202-.097c-.565-.28-1.898-.942-3.678-.942-2.802 0-3.933 1.64-4.095 3.825-.108.82-.054 2.404 0 3.388.162 2.35 1.24 3.825 3.933 3.825 1.826 0 3.147-.717 3.963-1.16Z" fill="#696975"/><path d="M5.495 1.968A1.946 1.946 0 0 0 3.555 0c-1.132 0-1.94.874-1.94 1.968 0 1.092.808 2.021 1.94 2.021 1.078 0 1.94-.929 1.94-2.021ZM3.554 6.285c-.97 0-1.724.82-1.724 1.803V22.24c0 .984.808 1.804 1.724 1.804.97 0 1.725-.82 1.725-1.804V8.088c0-.984-.754-1.803-1.725-1.803ZM17.026 13.77l-2.533-.6c-1.67-.438-2.263-.984-2.263-1.858 0-1.312.97-2.022 2.91-2.022 1.131 0 2.047.273 3.017.82.808.437 1.724.382 2.263-.219.431-.547.54-1.64-.162-2.24-1.131-.93-3.017-1.53-4.903-1.53-3.664 0-6.412 2.021-6.412 5.3 0 2.678 1.832 4.208 4.742 4.973 1.24.328 1.24.273 2.37.546 1.67.383 2.263.984 2.263 1.968 0 1.257-1.024 2.185-3.017 2.185-2.048 0-3.18-.546-4.203-1.311-.862-.547-1.778-.383-2.263.328-.431.655-.324 1.693.323 2.24 1.347 1.147 3.233 1.858 5.981 1.858 3.772 0 6.574-2.131 6.574-5.464-.053-2.624-1.616-4.208-4.688-4.973Z" fill="#696975"/><path fill-rule="evenodd" clip-rule="evenodd" d="M49.626 6.011c4.203 0 6.628 2.568 6.951 6.667.108 1.257.054 3.552 0 4.7-.324 4.097-3.017 6.83-7.436 6.83-3.126 0-5.765-1.476-6.627-2.077-.54-.328-.702-.71-.702-1.311V2.022c0-.984.81-1.803 1.779-1.803.916 0 1.779.82 1.779 1.803v4.972c1.185-.546 2.694-.983 4.256-.983Zm-.54 14.809c2.477 0 3.825-1.312 4.04-3.88.054-.984.054-2.95.054-3.88-.161-2.403-1.347-3.66-3.772-3.66-1.724 0-3.233.6-4.04 1.038v9.234c.753.492 2.316 1.148 3.717 1.148Z" fill="#696975"/><path d="M79.533.328c-.97 0-1.724.82-1.724 1.804V22.24c0 .984.808 1.804 1.724 1.804 1.024 0 1.725-.82 1.725-1.804V2.077c0-.984-.755-1.749-1.725-1.749ZM67.083 6.066c-4.095 0-7.059 2.677-7.382 6.94-.054 1.038-.108 2.84 0 4.098.27 4.153 3.125 7.104 7.597 7.104 1.94 0 4.15-.437 5.281-1.148.701-.437.862-.983.862-1.475 0-.984-.916-1.913-2.37-1.367-1.293.437-2.533.82-3.718.82-2.479 0-4.257-1.475-4.31-3.934v-3.607c.053-2.404 1.4-4.208 4.04-4.208 2.533 0 4.041.93 3.88 3.388-.054.273-.108.492-.377.492H65.25v2.841h6.843c1.455 0 1.94-.71 1.94-1.912v-.929c.054-4.426-2.587-7.103-6.951-7.103ZM31.467 6.066c-1.994 0-3.988.546-4.957.983-.863.383-1.132 1.038-1.132 1.64 0 1.038.97 1.803 2.37 1.311.917-.327 2.21-.71 3.557-.71 2.533 0 3.61.984 3.61 3.224v7.65c-.377.273-1.562 1.038-3.771 1.038-2.317 0-3.61-.984-3.61-2.786 0-1.585 1.508-2.296 3.502-2.296h1.67v-2.95H30.82c-4.58 0-6.681 2.459-6.681 5.3 0 3.224 2.209 5.738 6.681 5.738 3.395 0 5.766-1.203 6.682-1.858.484-.328.539-.71.539-1.312V12.46c.107-4.426-2.371-6.393-6.574-6.393Z" fill="#696975"/></svg>