<svg width="142" height="54" fill="none" xmlns="http://www.w3.org/2000/svg"><path d="M41.843 39.574c-1.19-3.526-3.759-5.535-6.513-7.657-.93-.72-1.86-1.44-2.754-2.237v-5.003c.968.303 1.973.606 2.53.834 1.638.758 2.085 1.213 2.83 2.767.037.038.074.113.111.151 0 0 0 .038.037.038.037.038.075.076.15.114.036.038.11.038.148.076h.037c.037 0 .112.038.186.038h.038l4.577-.266H43.332c.037 0 .037 0 .074-.038.037 0 .037 0 .075-.037.037 0 .037-.038.074-.038l.037-.038c.038 0 .038-.038.075-.038 0 0 .037 0 .037-.038.037-.038.037-.038.037-.076l.037-.038c0-.038.038-.038.038-.076 0 0 0-.038.037-.038 0-.038 0-.038.037-.075V27.444c0-.038 0-.038-.037-.076 0 0 0-.038-.037-.038 0-.038-.038-.038-.038-.076l-.037-.038-.037-.038-7.071-7.277c1.488.075 3.61.492 5.508.947 2.158 3.45 3.275 7.43 3.275 11.523 0 2.275-.521 5.118-1.34 7.62-.819-.152-1.563-.304-2.233-.417Zm-10.16-10.728-.447-.455a9.625 9.625 0 0 1-2.716-6.709c.632 1.251 1.637 2.312 2.94 2.691l.223.076v4.397Zm-.893-15.768c1.972.037 3.759.682 5.322 2.008-1.6.72-3.015.531-3.35.493-.595-.379-1.377-1.478-1.972-2.502Zm3.424 28.467c-.224-3.184-2.829-6.027-5.545-8.984-3.127-3.374-6.327-6.86-6.29-11.182 0-4.284 3.238-7.847 7.406-8.302.633 1.251 1.675 2.768 2.642 3.298l.075.038h.074c.037 0 .447.076 1.042.076.856 0 2.159-.152 3.499-.948a.453.453 0 0 0 .186-.19c.111-.189.111-.416-.075-.568-1.898-1.781-4.056-2.653-6.513-2.653-5.098 0-9.23 4.17-9.23 9.249-.037 4.7 3.276 8.34 6.514 11.826 2.79 3.033 5.396 5.876 5.322 8.984-1.266.948-2.717 2.199-4.392 3.904-2.642 2.692-6.327 5.762-11.202 5.762-3.424 0-6.662-1.25-9.193-3.525-2.121-1.895-3.759-4.36-4.875-7.089.93.38 2.382.91 4.28 1.403 1.786 3.828 5.247 6.103 9.267 6.103 2.307 0 4.354-.72 5.582-1.971 1.117-1.138 1.638-2.502 1.489-3.829-.26-2.198-2.01-3.828-4.057-4.132.26-.379.559-.682.968-.871 1.6-.834 3.982-.114 3.982-.076.372.113.782-.076.893-.455.038-.114.038-.19.038-.303 0-.114 0-.228-.075-.341-.484-.986-1.34-1.63-2.307-2.389-1.005-.758-2.233-1.705-3.499-3.335-2.084-2.578-2.605-6.14-2.605-6.179a.738.738 0 0 0-.335-.53l-1.34-.986 1.191-1.061c.038 0 .038-.038.038-.076 0 0 0-.038.037-.038 0-.038.037-.038.037-.076v-.038c0-.038.037-.076.037-.114V21.834l.037-.796c.038-.228-.074-.455-.26-.607l-1.451-.985 1.823-.759c.037 0 .037-.037.075-.037h.037c.037-.038.074-.038.074-.076l.075-.076v-.038c0-.038.037-.038.037-.076v-.076l.26-.796c.112-.303-.037-.606-.335-.758l-1.526-1.478 2.494-.303h.112c.223 0 .409-.114.52-.304l.447-.72c0-.038.037-.038.037-.075 0 0 0-.038.038-.038v-.493c0-.038 0-.038-.038-.076l-1.228-2.35 2.792.796c.037 0 .111.038.148.038h.149c.037 0 .037 0 .075-.038h.037c.037 0 .037 0 .074-.038 0 0 .038 0 .038-.038.037 0 .037-.038.037-.038h.037l.633-.568.074-.076s0-.038.037-.038l.038-.038s0-.038.037-.038c0-.038 0-.038.037-.076V10.5l-.484-3.222 2.53 1.744c.038.037.075.037.113.037 0 0 .037 0 .037.038.037 0 .111.038.186.038h.186c.037 0 .037 0 .074-.038l.745-.379a.573.573 0 0 0 .335-.53l.483-3.222 1.899 1.743c.037.038.074.038.111.076-.149 1.516.26 2.502.372 2.73.26.795 1.005 1.288 1.824 1.288.186 0 .372-.038.595-.076 1.005-.34 1.564-1.402 1.266-2.388-.037-.113-.037-.19-.075-.303 2.643.644 4.913 3.184 6.774 5.269l.074.076c.186.19.372.417.596.606 1.563 1.668 3.2 3.412 5.322 4.018.558.152 1.116 1.213 1.414 2.73h-.149c-.26-.076-.596-.152-1.042-.266-4.652-1.213-9.23-2.236-11.128-1.744h-.037c-.037 0-.037 0-.075.038-.037 0-.037.038-.074.038s-.037.038-.074.038c-.038 0-.038.038-.075.038 0 0-.037 0-.037.038v.038s-.037.038-.037.076l-.037.038c0 .038-.038.038-.038.075 0 .038-.037.038-.037.076s0 .038-.037.076V19.749c0 .038 0 .038.037.076 0 .038.037.038.037.076l.038.037c0 .038.037.038.037.076l.037.038 7.034 7.24-2.53.152c-.782-1.554-1.49-2.199-3.276-3.033-.744-.34-1.972-.72-3.2-1.061l-.67-.19c-1.377-.417-2.606-2.312-2.606-4.093 0-.531.112-1.024.335-1.479.038-.076.038-.151.075-.19.037-.075.074-.113.111-.189a.72.72 0 0 0-.297-.985.712.712 0 0 0-.968.265c-2.345 4.283-1.637 9.514 1.75 13.04 1.376 1.44 2.828 2.577 4.28 3.676 2.493 1.934 4.688 3.64 5.842 6.444-1.451-.151-3.275 0-6.103 1.896ZM22.9 43.554c-.037.985-.67 1.781-1.08 2.198-.967.986-2.679 1.554-4.577 1.554-4.094 0-6.327-2.463-7.443-4.245 1.34.265 2.828.53 4.466.682.037 0 .074.038.111.038h.037c1.117.114 2.27.152 3.499.152 1.6-.038 3.275-.152 4.987-.38Zm-4.429-4.246V39.65c.037.378.41.682.782.606 1.674-.228 3.126.834 3.573 2.426-2.755.341-5.323.379-7.63.227 2.307-4.283 2.903-9.287 3.015-12.32.297.494.595.949.967 1.403 1.415 1.744 2.717 2.768 3.76 3.564.297.227.52.416.78.606-.967-.076-2.084 0-3.088.53-1.117.531-1.824 1.403-2.159 2.616ZM7.418 19.332l6.55.455c.037.038.074.076.112.076l2.084 1.44v.227L14.6 22.895l-.075.076-.111.114c0 .037 0 .037-.038.075V23.54l.112.228c.037.038.037.076.074.076l1.6 1.25c.038.228.298 1.82 1.043 3.677.037 2.313-.186 8.908-3.126 14.025-5.434-.53-9.342-2.046-10.719-2.653 1.414-2.047 5.434-9.325 4.057-20.81ZM2.096 32.864c0-4.776 1.489-9.287 4.317-13.077l.112-.114c1.153 10.159-2.122 17.058-3.573 19.521a23.611 23.611 0 0 1-.856-6.33Zm15.333-20.886.223-.114.968 1.82-.074.114-3.685.454h-.149s-.037 0-.037.038c-.037 0-.037 0-.037.038l-.037.038-.038.038-.037.038-.037.038-.037.038-.037.038s0 .038-.038.038V15.01c0 .038 0 .038.037.075 0 0 0 .038.038.038 0 .038.037.038.037.076 0 0 0 .038.037.038 0 .038.037.038.037.076v.038l2.308 2.274-.037.114L14.19 18.8h-.037c-.037 0-.037.038-.074.038l-.038.038-6.513-.417c2.643-3.032 6.104-5.307 9.9-6.482Zm13.063-7.353c.856-1.858 2.494-2.806 3.796-3.298-1.749 1.781-2.903 4.397-2.158 7.164.186.53-.112 1.1-.67 1.289a.981.981 0 0 1-1.266-.645l-.037-.076c-.037-.037-.893-1.743.335-4.434Zm8.523-1.176a9.27 9.27 0 0 0-2.122 5.004 10.678 10.678 0 0 0-1.6-1.061c.484-1.138 1.563-3.109 3.722-3.943Zm10.904 41.848v-.151c0-.038-.037-.038-.037-.076 0 0 0-.038-.037-.038a10.104 10.104 0 0 0-4.503-4.397c.893-2.654 1.45-5.724 1.45-8.15a23.24 23.24 0 0 0-2.79-11.068c.632.151 1.153.303 1.563.417.446.113.819.227 1.079.265h.037c.112 0 .298.038.484.038.335 0 .782-.076 1.08-.38.26-.265.372-.644.297-1.023-.298-1.667-1.005-3.752-2.53-4.17-1.75-.492-3.239-2.084-4.69-3.6-.186-.19-.372-.417-.595-.607l-.075-.076c-.856-.947-1.86-2.084-2.977-3.07.111-4.17 2.903-6.103 3.052-6.179l.037-.037.037-.038.037-.038s0-.038.038-.038c0 0 0-.038.037-.038V2.464s0-.038-.037-.038V2.35l-.038-.038-.037-.038h-.037l-.037-.038h-.038s-.037 0-.037-.037h-.186c-3.647.34-5.36 3.222-6.029 4.814a7.882 7.882 0 0 0-1.675-.531c.112-2.426 1.75-4.549 3.573-5.724l.037-.038.038-.038.037-.038s0-.038.037-.038c0 0 0-.037.037-.037V.227s0-.037-.037-.037l-.037-.038-.038-.038-.037-.038s-.037 0-.037-.038c0 0-.037 0-.037-.038h-.224c-.185 0-4.689.493-6.438 4.321-.186.38-.335.758-.447 1.137l-2.307-2.084-.037-.038c-.037 0-.037-.038-.075-.038 0 0-.037 0-.037-.038l-.037-.038c-.037 0-.037 0-.074-.038h-.038a.64.64 0 0 0-.558.19c0 .038-.037.038-.037.075 0 0 0 .038-.037.038 0 .038-.038.038-.038.076 0 0 0 .038-.037.038 0 .038 0 .038-.037.076v.038l-.633 4.094-.149.075-3.386-2.312h-.038c-.037 0-.037-.038-.074-.038h-.037c-.037 0-.037 0-.075-.038H21.076c-.037 0-.037 0-.037.038 0 0-.037 0-.037.038l-.037.038-.038.038-.037.038-.037.038v.038c0 .038-.037.038-.037.075 0 0 0 .038-.037.038V6.217l.632 4.283-.111.114-3.834-1.1h-.372c-.037 0-.037 0-.074.038h-.037c-.038 0-.038.038-.075.038 0 0-.037 0-.037.038l-.037.038-.038.038s0 .038-.037.038c0 .038-.037.038-.037.076v.037c0 .038-.037.038-.037.076v.379c0 .038.037.038.037.076v.038l.223.417c-4.577 1.213-8.746 4.17-11.649 8.074a23.202 23.202 0 0 0-4.614 13.95c0 6.33 2.381 12.205 6.55 16.223 0 0 0 .038.037.038.074.076.149.114.186.19.074.075.149.113.186.189 0 0 .037 0 .037.038a15.068 15.068 0 0 0 10.012 3.79c5.396 0 9.378-3.297 12.207-6.216 6.103-6.179 8.745-6.179 10.68-6.179 1.787 0 4.095.607 5.955 2.237-3.61-1.175-6.587.265-6.736.379h-.037s-.037 0-.037.038c-.037 0-.075.038-.075.075l-.037.038-.074.076-.038.038c0 .038-.037.038-.037.076s0 .038-.037.076c0 .038-.037.038-.037.075V44.463c0 .038.037.038.037.076v.038c0 .038.037.038.037.076 0 0 0 .038.038.038 0 .038.037.038.074.076l.037.038c.037 0 .037.038.075.038l.037.037c.037 0 .037.038.074.038 0 0 .037 0 .037.038h.149c.41.038 1.34.265 1.638.682.074.076.111.19.037.417-.149.266-1.414.38-2.121.455-1.6.152-3.424.342-4.243 1.63-.484.72-.521 1.63-.186 2.767.112.304.372.493.67.493.074 0 .149 0 .223-.038a.745.745 0 0 0 .484-.91c-.223-.682-.223-1.212 0-1.554.447-.682 1.972-.872 3.2-.985 1.564-.152 3.015-.303 3.35-1.516.149-.607.075-1.138-.26-1.63-.112-.19-.298-.342-.447-.455 1.6-.228 3.982-.114 6.364 1.706.037.037.037.037.074.037h.038c.037.038.074.038.111.038h.372c.038 0 .075-.038.112-.038 0 0 .037 0 .037-.038.037 0 .075-.037.112-.075h.037l.112-.114s0-.038.037-.038c0-.038.037-.038.037-.076s0-.038.037-.075c0-.038 0-.038.038-.076V45.335c.074 0 .074 0 .074-.038ZM61.493 24.146c0-.417-.149-.417-.26-.19-.447.72-.782 1.327-1.08 1.782-.149.227-.297.227-.446 0-.26-.417-.633-1.1-1.08-1.782-.149-.19-.26-.227-.26.19v8.756c0 .303-.15.417-.41.417h-1.079c-.298 0-.41-.152-.41-.417V20.355c0-.303.15-.417.41-.417h.968c.335 0 .41.114.595.38.447.72.968 1.553 1.266 2.046.111.152.223.152.334 0 .224-.379.782-1.289 1.266-2.047.149-.265.26-.379.595-.379h.968c.298 0 .41.152.41.417v12.547c0 .303-.15.417-.41.417h-1.08c-.297 0-.409-.152-.409-.417v-8.756h.112ZM68.9 30.248v-6.254c0-.341-.037-.379-.112 0-.707 4.094-.781 4.587-1.228 7.088-.037.342.15.304.186.304h.112c.744 0 1.042-.076 1.042-1.137Zm-1.154-8.415c-.707 0-1.004.076-1.004 1.138v6.064c0 .418.074.38.148 0 .559-3.297.633-4.131 1.117-7.012.037-.19-.037-.227-.149-.227h-.112v.037Zm1.973-1.705c.558.19 1.08.985 1.08 1.743v9.287c0 1.517-.82 2.16-2.122 2.16h-1.489l-.074.342c-.038.228-.075.341-.298.341h-.707c-.223 0-.335-.151-.298-.341l.112-.53c-.484-.152-1.005-.948-1.005-1.706v-9.325c0-1.516.819-2.16 2.121-2.16h1.415c.037-.152.037-.152.074-.342.037-.227.149-.341.372-.341h.744c.224 0 .298.151.261.341l-.186.53ZM74.632 27.292c-.372 0-.484.151-.484.493v3.07c0 .379.149.493.484.493h.558c.745 0 1.191-.076 1.191-1.137v-1.82c0-.985-.372-1.137-1.005-1.137h-.744v.038Zm0-5.459c-.372 0-.484.152-.484.493v2.54c0 .379.149.493.484.493h.298c.744 0 1.19-.076 1.19-1.138v-1.25c0-1.062-.446-1.138-1.19-1.138h-.298Zm-2.382-1.326c0-.455.149-.569.558-.569h3.052c1.303 0 2.121.682 2.121 2.16v2.957c0 .38-.148.72-.297.986-.037.114-.075.152.037.303.298.303.521.72.521 1.327v3.487c0 1.516-.819 2.16-2.121 2.16h-3.35c-.372 0-.558-.227-.558-.568V20.507h.037ZM79.617 20.355c0-.303.15-.417.41-.417h1.079c.298 0 .41.152.41.417v12.547c0 .303-.15.417-.41.417h-1.08c-.26 0-.409-.152-.409-.417V20.355ZM83.154 20.355c0-.303.15-.417.41-.417h1.079c.298 0 .41.152.41.417v10.538c0 .379.148.493.483.493h1.824c.297 0 .41.151.41.417v1.099c0 .303-.15.417-.41.417h-3.647c-.447 0-.559-.152-.559-.569V20.355ZM88.922 20.507c0-.455.149-.569.558-.569h3.647c.298 0 .41.152.41.417v1.1c0 .303-.15.416-.41.416h-1.823c-.372 0-.484.152-.484.493v2.54c0 .379.149.492.484.492h1.228c.298 0 .41.152.41.418v1.099c0 .303-.15.417-.41.417h-1.228c-.372 0-.484.151-.484.493v3.07c0 .379.149.493.484.493h1.823c.298 0 .41.151.41.417v1.099c0 .303-.15.417-.41.417H89.48c-.447 0-.558-.152-.558-.569V20.507ZM102.433 20.317c.038-.227.149-.379.372-.379h1.266c.223 0 .409.152.372.38-.037.227-1.824 12.28-1.861 12.546-.037.303-.149.455-.446.455h-2.122c-.297 0-.41-.19-.446-.455l-1.861-12.547c-.037-.227.112-.379.372-.379h1.265c.224 0 .335.152.373.38.483 3.449.707 5.458 1.228 8.717.037.228.223.228.26 0 .633-4.245.707-4.965 1.228-8.718ZM105.633 20.355c0-.303.149-.417.409-.417h1.079c.298 0 .41.152.41.417v12.547c0 .303-.149.417-.41.417h-1.079c-.298 0-.409-.152-.409-.417V20.355ZM115.606 32.978c.149.265-.074.34-.335.34h-1.19c-.298 0-.373-.075-.484-.34l-2.27-5.193c-.075-.19-.261-.19-.261.038v5.079c0 .303-.149.417-.409.417h-1.08c-.297 0-.409-.152-.409-.417V20.355c0-.303.149-.417.409-.417h1.08c.297 0 .409.152.409.417v4.473c0 .227.149.265.261.038l2.046-4.587c.149-.265.224-.34.484-.34h1.191c.298 0 .447.075.335.34l-2.568 5.8c-.074.19-.074.265 0 .455l2.791 6.444ZM116.574 20.355c0-.303.149-.417.41-.417h1.079c.298 0 .409.152.409.417v12.547c0 .303-.149.417-.409.417h-1.079c-.298 0-.41-.152-.41-.417V20.355ZM121.672 19.9c.41 0 .633.152.708.531.186.72 1.377 4.814 2.121 7.467.112.418.223.19.223 0l-.037-7.58c0-.304.149-.418.409-.418h1.08c.297 0 .409.152.409.417v12.585c0 .303-.149.417-.409.417h-1.117c-.409 0-.633-.19-.707-.53-.149-.531-1.34-5.08-2.121-7.733-.075-.266-.224-.266-.224.113v7.733c0 .303-.148.417-.409.417h-1.079c-.298 0-.41-.152-.41-.417V20.355c0-.303.149-.417.41-.417h1.153V19.9ZM133.394 25.359c.447 0 .558.151.558.568v5.155c0 1.517-.818 2.161-2.121 2.161h-1.637c-1.303 0-2.122-.682-2.122-2.16v-8.984c0-1.517.819-2.16 2.122-2.16h1.637c1.303 0 2.121.681 2.121 2.16v1.288c0 .304-.148.418-.409.418h-1.079c-.298 0-.41-.152-.41-.418v-.378c0-.948-.111-1.138-1.079-1.138-.707 0-1.079.076-1.079 1.138v7.24c0 1.06.335 1.137 1.079 1.137.67 0 1.079 0 1.079-1.137v-2.426c0-.38-.148-.493-.483-.493h-.41c-.297 0-.409-.152-.409-.417v-1.1c0-.303.149-.416.409-.416h2.233v-.038ZM138.159 27.33h-.893c-1.303 0-2.121-.683-2.121-2.199V22.1c0-1.517.818-2.16 2.121-2.16h1.675c1.302 0 2.121.681 2.121 2.16v1.288c0 .304-.149.418-.409.418h-1.08c-.297 0-.409-.152-.409-.418v-.378c0-.948-.372-1.138-1.079-1.138s-1.08.19-1.08 1.138v1.25c0 1.062.447 1.137 1.191 1.137h.707c1.303 0 2.122.683 2.122 2.161v3.601c0 1.516-.819 2.16-2.122 2.16h-1.637c-1.303 0-2.121-.681-2.121-2.16V29.87c0-.303.111-.417.409-.417h1.079c.298 0 .41.152.41.417v.38c0 .947.372 1.137 1.079 1.137s1.079-.19 1.079-1.137v-1.782c-.037-1.1-.335-1.137-1.042-1.137Z" fill="#696975"/></svg>