<svg width="104" height="54" fill="none" xmlns="http://www.w3.org/2000/svg"><path fill-rule="evenodd" clip-rule="evenodd" d="m11.716 29.295.679.208c1.135 5.375 5.43 9.61 10.89 10.739l.218.669c-5.979-1.087-10.69-5.729-11.787-11.616ZM5.61 27.073H.727v26.26h25.058v-6.438h.412V26.667l-3.342 3.566 2.978 13.592-4.168-12.827-14.196-4.33h-1.86v.405ZM28.697 12.064c5.55 1.115 9.922 5.877 10.94 11.913l-.632-.211c-1.05-5.515-5.039-9.859-10.106-11.015l-.202-.687ZM51.668 0H26.579v5.931h-.382v20.736l3.101-3.655-2.762-13.934 3.867 13.15 13.172 4.439H45.3v-.415h6.368V0Z" fill="#CDCDD1"/><path fill-rule="evenodd" clip-rule="evenodd" d="m23.529 12.06-.211.683c-5.464 1.144-9.77 5.478-10.917 10.985l-.68.22c1.106-6.031 5.825-10.783 11.808-11.889Zm2.256-6.13V0H.727v26.253H5.61v.414h20.587l-3.624-3.37L8.76 26.3l13.037-4.204 4.4-14.319v18.89V5.93h-.412Z" fill="#9B9BA3"/><path fill-rule="evenodd" clip-rule="evenodd" d="M39.63 29.32c-1.026 5.882-5.404 10.517-10.953 11.596l.195-.668C33.94 39.132 37.935 34.905 39 29.535l.63-.214Zm5.67-2.248v-.405H26.197l3.362 3.288 12.819-2.929-12.097 4.102-4.084 13.966v1.8h.382v6.44h25.089V27.071h-6.367Z" fill="#9B9BA3"/><path fill-rule="evenodd" clip-rule="evenodd" d="M93.224 7.628c-1.116 0-2.036.371-2.736 1.104-1.027 1.074-1.393 2.738-1.393 3.936 0 1.175.393 2.957 1.498 4.113a3.382 3.382 0 0 0 2.532 1.084c1.437 0 2.528-.49 3.24-1.455.645-.875.973-2.116.973-3.69 0-1.697-.437-3.016-1.3-3.917-.977-1.022-2.181-1.175-2.814-1.175Zm-21.197 4.963c.393.025 1.477.083 2.616.034l-1.315-3.67-1.3 3.636ZM51.669 0v26.25h26.036v-3.038h.792v3.038h24.909V0H51.668Zm15.687 18.526c-.077.088-.088.093-.1.095l-.383.035c-1.482-1.523-4.775-5.29-6.742-7.541l-1.295-1.478c.002 1.38.011 6.761.051 7.72.035.175.33.231.489.26.206.032.36.05.47.062.314.035.424.048.54.196.124.162.088.328.003.412-.086.085-.279.082-.937.058a22.324 22.324 0 0 0-2.118.003c-.664.024-.786.025-.853-.022a.245.245 0 0 1-.1-.168.346.346 0 0 1 .082-.267c.114-.147.222-.158.516-.192.131-.015.284-.033.476-.061.23-.044.497-.186.51-.27.076-.476.052-6.033.035-8.132-.02-.558-.053-.721-.086-.816-.164-.486-.919-.54-1.24-.562-.079-.006-.125-.008-.158-.017l-.102-.504 2.298-.144c.195.11.574.406.922.789l6.849 7.887a892.966 892.966 0 0 0-.291-7.633c-.035-.21-.342-.268-.489-.296a12.11 12.11 0 0 0-.493-.064c-.291-.034-.402-.046-.517-.193-.126-.163-.09-.328-.004-.413.086-.085.28-.082.94-.057.313.01.702.025 1.098.022a36.07 36.07 0 0 0 1.019-.026c.661-.024.786-.025.854.023a.25.25 0 0 1 .097.168.346.346 0 0 1-.082.266c-.115.147-.225.16-.516.192-.128.015-.28.032-.477.062-.282.053-.51.194-.508.242.003.05.234 8.175.23 8.875l.023 1.455-.011.034Zm11.835-.418a.307.307 0 0 1-.127.211c-.146.064-.399.056-.911.035-.283-.013-.671-.03-1.07-.026-.348.003-.667.014-.99.025-.682.023-.883.027-.976-.04a.369.369 0 0 1-.087-.405c.069-.176.197-.191.476-.224.121-.014.266-.032.453-.062.096-.019.32-.065.368-.15-.017-.132-.41-1.265-.965-2.832l-.417-1.17c-1.71-.096-2.863-.047-3.22-.028l-.6 1.687-.757 2.134c-.028.088-.028.158-.003.206.055.097.22.13.319.151.166.026.292.038.396.048.289.028.447.044.556.319a.275.275 0 0 1-.014.234.245.245 0 0 1-.192.114c-.365.036-.714.025-1.118.01a20.67 20.67 0 0 0-.96-.017c-.35.004-.658.014-.905.021-.56.018-.664.018-.728-.023a.322.322 0 0 1-.151-.242.304.304 0 0 1 .117-.253c.147-.126.26-.137.536-.163.135-.013.312-.03.552-.063.188-.027.598-.214.704-.439.086-.18.983-2.673 1.85-5.082l.037-.103c.784-2.176 1.67-4.642 1.907-5.249l.544-.083c.107.11 1.139 2.926 2.592 6.895.702 1.918 1.308 3.575 1.382 3.757.12.209.46.27.642.301.473.081.555.111.675.253.085.098.093.192.085.253Zm7.943-7.9c-.245 0-.301-.2-.427-.779-.258-1.17-.647-1.17-2.096-1.17l-1.305.005c.01.616.007 1.71.002 2.87-.009 2.489-.02 5.57.088 6.062.041.193.463.35.678.391l.4.055c.416.051.605.074.719.258.098.157.078.32-.053.426-.079.063-.232.063-1.062.033-.443-.016-.995-.036-1.63-.04-.789 0-1.302.026-1.676.045-.43.022-.658.034-.877-.014a.256.256 0 0 1-.155-.186c-.023-.1.001-.206.068-.292.115-.148.224-.16.516-.193a12.9 12.9 0 0 0 .477-.061c.255-.048.784-.261.81-.414.056-.38.075-5.523.084-7.994l.004-.94-1.976.007c-.552.006-.906.214-1.35.793-.101.16-.387.565-.59.829-.118.154-.316.306-.485.233-.062-.028-.164-.109-.14-.34l.689-2.866c.023-.112.11-.302.293-.302.204 0 .24.07.39.364l.066.128c.128.216.228.387 1.114.367l6.698.03c.03 0 .09-.018.102-.053.26-.548.416-.854.615-.854.147 0 .32.084.32.476v2.833c-.017.184-.132.293-.31.293Zm11.029 5.872c-.066.104-1.618 2.54-4.954 2.54-1.714 0-3.175-.58-4.224-1.677-1.026-1.074-1.615-2.604-1.615-4.2 0-1.528.527-2.946 1.484-3.993 1.094-1.196 2.68-1.829 4.59-1.829 1.612 0 3.09.616 4.159 1.734 1.01 1.056 1.566 2.476 1.566 3.997 0 .931-.078 1.964-1.006 3.428ZM62.21 35.117c-1.116 0-2.036.362-2.737 1.076-1.027 1.049-1.393 2.67-1.393 3.839 0 1.145.392 2.883 1.498 4.01.686.7 1.538 1.056 2.531 1.056 1.438 0 2.528-.477 3.24-1.419.647-.853.974-2.062.974-3.596 0-1.656-.437-2.94-1.3-3.82-.977-.996-2.182-1.146-2.813-1.146Zm18.032 4.838c.39.027 1.47.083 2.614.035l-1.314-3.579-1.3 3.544Zm-1.746-12.872v2.965h-.793v-2.965H51.668v26.25h51.737v-26.25H78.496ZM67.146 43.36c-.066.101-1.617 2.476-4.953 2.476-1.714 0-3.175-.565-4.224-1.635-1.026-1.047-1.615-2.54-1.615-4.094 0-1.49.527-2.874 1.484-3.894 1.093-1.168 2.68-1.785 4.589-1.785 1.613 0 3.09.602 4.16 1.692 1.01 1.03 1.565 2.415 1.565 3.897 0 .908-.077 1.914-1.006 3.343Zm8.462 2.19c-.079.062-.232.062-1.063.031a54.785 54.785 0 0 0-1.628-.038c-.814 0-1.342.027-1.69.043-.416.021-.644.032-.862-.013a.25.25 0 0 1-.155-.18.332.332 0 0 1 .068-.286c.114-.144.224-.156.516-.188.136-.016.287-.033.476-.06.255-.047.785-.256.81-.403.057-.375.076-5.43.085-7.86l.003-.852-1.976.006c-.552.006-.906.21-1.35.775-.098.15-.383.545-.59.807-.118.15-.316.299-.484.228-.051-.023-.166-.097-.14-.332l.687-2.793c.024-.11.11-.296.294-.296.205 0 .24.068.391.354l.066.127c.127.21.227.376 1.113.356l6.698.03c.03 0 .09-.016.102-.05.26-.536.416-.835.614-.835.148 0 .322.083.322.465l-.001 2.762c-.016.179-.132.286-.31.286-.245 0-.302-.194-.428-.759-.257-1.141-.646-1.14-2.094-1.14l-1.306.004c.01.6.006 1.668 0 2.798-.007 2.434-.019 5.432.088 5.91.042.188.464.343.678.383.187.027.34.045.44.057.377.045.566.068.68.247.117.183.044.34-.054.415Zm11.795-.212a.3.3 0 0 1-.126.206c-.148.062-.4.054-.914.033a21.69 21.69 0 0 0-1.07-.026c-.35.003-.679.015-.969.024-.7.023-.9.028-.994-.038a.353.353 0 0 1-.089-.396c.07-.172.198-.186.479-.218.128-.014.271-.03.45-.059.096-.02.32-.065.37-.146-.017-.123-.4-1.207-.966-2.763l-.416-1.14c-1.705-.093-2.863-.046-3.22-.026l-.489 1.338-.868 2.387c-.028.085-.03.152-.003.2.054.094.22.127.318.147.164.025.287.037.388.046.297.028.457.043.565.31a.256.256 0 0 1-.015.23.244.244 0 0 1-.191.11c-.37.037-.722.025-1.13.011-.275-.01-.586-.02-.947-.017-.355.003-.676.015-.91.022-.557.017-.662.016-.724-.024a.316.316 0 0 1-.151-.236c-.005-.064.012-.157.117-.245.147-.125.261-.134.537-.16.14-.013.314-.03.55-.062.188-.026.599-.21.706-.427.088-.18 1.047-2.78 1.893-5.075.74-2.004 1.66-4.5 1.899-5.1l.545-.08c.107.108 1.143 2.864 2.6 6.746.698 1.858 1.3 3.463 1.375 3.64.118.204.458.263.64.293.47.079.557.11.677.247a.306.306 0 0 1 .083.248Zm12.243-10.183c-.116.144-.224.155-.517.188-.123.014-.276.031-.477.06-.281.051-.51.19-.508.237.003.058.235 7.969.23 8.651l.023 1.42-.487.16c-1.5-1.495-4.782-5.158-6.743-7.346l-1.3-1.447c.002 1.344.01 6.593.051 7.527.034.17.34.226.486.254.226.033.388.05.495.063.292.032.401.044.516.186.126.16.09.32.005.404-.087.082-.28.08-.94.055a24.49 24.49 0 0 0-1.1-.021c-.344.002-.693.014-.974.025-.717.023-.83.023-.896-.022a.242.242 0 0 1-.099-.164.33.33 0 0 1 .082-.258c.114-.146.224-.157.517-.189.14-.016.29-.033.475-.06.234-.043.497-.18.51-.263.09-.557.037-7.857.036-7.929-.021-.543-.054-.703-.086-.796-.166-.473-.918-.524-1.241-.547a1.052 1.052 0 0 1-.16-.017l-.1-.492 2.298-.14c.196.109.576.398.922.77l6.85 7.69a825.567 825.567 0 0 0-.29-7.42c-.038-.227-.345-.285-.492-.31-.233-.035-.4-.053-.491-.063-.293-.033-.403-.045-.518-.19-.143-.18-.07-.338-.004-.403.086-.08.278-.077.936-.054.314.011.705.024 1.103.02.366-.002.728-.014 1.02-.024.67-.024.783-.024.85.022.055.036.09.096.099.164.01.06.002.153-.081.26Z" fill="#696975"/></svg>