<svg width="123" height="45" fill="none" xmlns="http://www.w3.org/2000/svg"><path d="M13.25 12.43 9.76 44.443h4.818l3.715-32.015H13.25ZM3.117 34.515h4.998L6 22.337H.91l2.207 12.178ZM26.174 0l-7.25 34.514h4.683L31.195 0h-5.02ZM31.982 31.167c.879.527 2.297 1.123 3.715 1.123 2.027 0 2.815-.917 2.815-2.27 0-1.376-.833-1.995-2.837-2.775-2.86-1.1-4.12-2.66-4.12-4.564 0-2.568 2.161-4.724 5.471-4.724 1.576 0 2.995.459 3.828 1.01l-.743 2.247c-.608-.367-1.734-.94-3.175-.94-1.666 0-2.477.848-2.477 2.04 0 1.353.878 1.904 2.905 2.683 2.68 1.01 4.12 2.431 4.12 4.84 0 2.82-2.206 4.815-5.877 4.815-1.71 0-3.287-.458-4.39-1.123l.765-2.362ZM57.403 10.962V30.18c0 1.422.022 3.028.135 4.105h-2.68l-.135-2.751h-.067c-.878 1.765-2.747 3.118-5.292 3.118-3.782 0-6.8-3.256-6.8-8.072 0-5.504 3.333-8.646 7.093-8.646 2.432 0 4.03 1.261 4.706 2.5h.068v-9.472h2.972Zm-3.22 13.898c0-.39-.023-.849-.135-1.238-.406-1.812-1.712-3.211-3.828-3.211-2.927 0-4.751 2.5-4.751 5.985 0 3.257 1.666 5.803 4.706 5.803 1.914 0 3.377-1.216 3.895-3.349.09-.39.135-.78.135-1.261v-2.73h-.022ZM62.446 18.393l2.094 8.05c.405 1.765.833 3.44 1.125 5.09h.09c.36-1.605.879-3.325 1.397-5.068l2.589-8.095h2.184l2.59 7.958a65.77 65.77 0 0 1 1.395 5.183H76c.248-1.606.676-3.28 1.194-5.16l2.229-7.981h2.071l-5.02 15.893h-1.6l-2.386-7.591c-.54-1.812-1.058-3.716-1.441-5.573l-.428-.023a49.647 49.647 0 0 1-1.486 5.619l-2.522 7.568h-1.599L60.308 18.37h2.139v.023ZM89.85 34.652c-4.189 0-7.498-3.165-7.498-8.187 0-5.32 3.444-8.44 7.745-8.44 4.48 0 7.52 3.326 7.52 8.142 0 5.916-4.03 8.485-7.745 8.485h-.022Zm.09-1.422c3.174 0 5.471-3.348 5.471-6.949 0-2.706-1.599-6.834-5.404-6.834-3.828 0-5.516 3.899-5.516 6.926 0 3.486 2.364 6.857 5.403 6.857h.045ZM100.453 23.368c0-1.88-.022-3.485-.135-4.953h1.982l.135 3.119h.09c.698-2.133 2.454-3.486 4.346-3.486.292 0 .517.023.765.092v1.949c-.315-.023-.315-.069-.991-.069-2.004 0-3.67 1.789-4.053 3.922-.067.435-.09 1.376-.09 1.88v8.485h-2.071l.022-10.939ZM112.139 18.393l2.229 3.394a82.505 82.505 0 0 1 1.757 2.89h.247a51.393 51.393 0 0 1 1.757-2.89l2.161-3.394h2.364l-5.336 7.682 5.449 8.21h-2.499l-2.274-3.577c-.608-.917-1.306-2.133-1.847-3.073h-.225c-.518.963-1.238 2.11-1.801 3.073l-2.252 3.577h-2.387l5.539-8.118-5.291-7.797h2.409v.023Z" fill="#696975"/></svg>