<svg width="132" height="52" fill="none" xmlns="http://www.w3.org/2000/svg"><path d="M52.22 29.059c-.456-.304-.695-.77-.695-1.235 0-.728.557-1.295 1.292-1.295.318 0 .616.101.834.243 1.093.627 1.888.87 2.861.87 1.41 0 2.186-.668 2.186-1.598 0-.81-.477-1.296-2.067-1.518l-.715-.101c-2.722-.385-4.212-1.68-4.212-4.088 0-2.489 1.848-4.148 4.729-4.148 1.47 0 2.94.404 3.735.89.477.304.695.708.695 1.174 0 .748-.556 1.275-1.251 1.275-.279 0-.577-.081-.835-.223-.656-.324-1.47-.567-2.305-.567-1.172 0-1.808.608-1.808 1.457 0 .77.537 1.275 2.087 1.498l.715.101c2.761.405 4.192 1.66 4.192 4.108 0 2.448-1.768 4.27-5.245 4.27-1.868.06-3.298-.547-4.192-1.113ZM66.051 28.573v-9.43c0-.08-.04-.121-.119-.121h-2.265c-.874 0-1.45-.547-1.45-1.295 0-.79.576-1.316 1.45-1.316h7.63c.874 0 1.45.547 1.45 1.316 0 .768-.576 1.295-1.45 1.295H69.03c-.079 0-.119.04-.119.121v9.41c0 .93-.616 1.558-1.45 1.558-.815.02-1.41-.607-1.41-1.538ZM80.374 26.145c.16-.506.22-1.174.22-2.934 0-1.761-.06-2.449-.22-2.935-.297-.91-.993-1.477-2.105-1.477-1.113 0-1.808.567-2.106 1.477-.16.506-.219 1.174-.219 2.934 0 1.761.06 2.449.219 2.935.298.91.993 1.477 2.106 1.477 1.112 0 1.807-.567 2.105-1.477Zm-6.973.789c-.298-.951-.378-1.72-.378-3.724 0-2.003.08-2.752.378-3.723.715-2.205 2.523-3.298 4.868-3.298 2.344 0 4.152 1.093 4.867 3.298.298.951.378 1.72.378 3.724 0 2.003-.08 2.752-.378 3.723-.715 2.206-2.523 3.298-4.867 3.298-2.345 0-4.153-1.113-4.868-3.298ZM92.475 20.64c0-1.032-.715-1.7-1.808-1.7h-2.364c-.08 0-.12.041-.12.122V22.2c0 .08.04.121.12.121h2.364c1.113 0 1.808-.648 1.808-1.68Zm.04 8.56-2.245-4.37h-1.967c-.08 0-.12.04-.12.12v3.623c0 .93-.596 1.558-1.43 1.558s-1.45-.627-1.45-1.558V17.706c0-.789.477-1.295 1.251-1.295h4.232c2.742 0 4.55 1.74 4.55 4.21 0 1.659-.815 2.974-2.205 3.682l1.947 3.602c.139.263.198.546.198.81 0 .768-.516 1.396-1.37 1.396-.557.02-1.053-.263-1.391-.91ZM99.903 28.573v-3.966l-3.417-6.192a1.77 1.77 0 0 1-.218-.81c0-.769.596-1.315 1.35-1.315.577 0 .974.324 1.272.87l2.424 4.654h.06l2.443-4.654c.298-.587.735-.87 1.272-.87.775 0 1.311.567 1.311 1.315 0 .263-.079.547-.218.81l-3.437 6.192v3.966c0 .951-.616 1.558-1.451 1.558-.775 0-1.39-.607-1.39-1.558ZM107.812 18.05c0-1.072.636-1.76 1.59-1.76.854 0 1.331.486 1.788 1.518l2.841 6.556h.08l2.781-6.556c.437-1.032.894-1.518 1.768-1.518.954 0 1.57.688 1.57 1.76v10.665c0 .89-.537 1.416-1.311 1.416-.795 0-1.312-.526-1.312-1.416v-6.557h-.099l-2.066 4.877c-.418.951-.755 1.235-1.411 1.235s-.993-.284-1.411-1.235l-2.086-4.877h-.099v6.557c0 .89-.556 1.416-1.291 1.416-.795 0-1.332-.526-1.332-1.416V18.05ZM122.395 17.706c0-.789.476-1.295 1.251-1.295h6.477c.815 0 1.331.547 1.331 1.275 0 .729-.536 1.255-1.331 1.255h-4.728c-.08 0-.12.04-.12.121v2.691c0 .081.04.122.12.122h3.794c.795 0 1.312.526 1.312 1.255 0 .748-.517 1.254-1.312 1.254h-3.794c-.08 0-.12.04-.12.122v2.812c0 .081.04.122.12.122h4.728c.815 0 1.331.546 1.331 1.254 0 .75-.536 1.275-1.331 1.275h-6.477c-.795 0-1.251-.526-1.251-1.295V17.706Z" fill="#696975"/><path d="M4.737 26.893c.397 2.267 1.39 4.351 2.325 6.375 2.026 4.31 4.112 8.762.556 14.63 7.987-.283 15.159-2.044 20.801-5.14 5.96-3.258 10.034-7.912 11.782-13.477l.02-.08a19.043 19.043 0 0 0 1.132-6.517c0-10.421-8.324-18.88-18.536-18.88-10.232 0-18.537 8.48-18.537 18.88 0 1.356.14 2.712.437 4.047l.02.162Zm2.086 24.83h-.04c-1.212 0-2.344-.709-2.92-1.781-.576-1.113-.477-2.428.238-3.521 2.92-4.391 1.59-7.224-.417-11.514-1.053-2.267-2.146-4.594-2.623-7.386v-.04a23.01 23.01 0 0 1-.516-4.797C.545 10.18 10.538 0 22.817 0c12.298 0 22.291 10.179 22.291 22.684 0 2.671-.456 5.282-1.35 7.791-2.067 6.516-6.756 11.919-13.57 15.642-6.358 3.48-14.424 5.403-23.345 5.606h-.02Z" fill="#fff"/><path d="M22.818 1.902c-11.245 0-20.404 9.329-20.404 20.782 0 1.498.159 2.995.477 4.452v.04c.437 2.53 1.49 4.736 2.483 6.88 2.047 4.352 3.795 8.095.279 13.397-.338.506-.398 1.072-.14 1.558.239.465.736.769 1.272.769h.02c8.623-.182 16.39-2.044 22.49-5.383 6.398-3.5 10.788-8.54 12.696-14.59a20.901 20.901 0 0 0 1.251-7.163c0-11.413-9.159-20.742-20.424-20.742Z" fill="#696975"/><path d="M39.406 20.438c0-.04-.02-.08-.02-.121-.04-.304-.08-.607-.14-.91 0-.061-.02-.102-.04-.163-.059-.283-.099-.546-.178-.83v-.04c-.06-.222-.12-.425-.179-.627-.655-2.732-3.08-4.755-5.96-4.755-3.378 0-6.12 2.792-6.12 6.232l-.04 1.66c0 2.205-1.747 3.804-3.913 3.804-2.166 0-3.914-1.599-3.914-3.805v-1.659c0-3.44-2.742-6.232-6.12-6.232-2.602 0-4.807 1.639-5.701 3.966-.04.08-.08.162-.1.243-.139.364-.238.748-.357 1.153v.04c-.06.264-.12.547-.18.83-.019.06-.019.101-.039.162-.06.303-.1.607-.139.91 0 .041-.02.082-.02.122-.08.688-.12 1.396-.12 2.105 0 9.389 7.471 17.018 16.71 17.018 9.218 0 16.709-7.609 16.709-17.018a24.47 24.47 0 0 0-.14-2.085Z" fill="#fff"/><path d="M14.473 19.082c0 .931-.755 1.7-1.67 1.7a1.682 1.682 0 0 1-1.668-1.7c0-.93.735-1.7 1.669-1.7.914.02 1.669.77 1.669 1.7ZM34.559 19.082c0 .931-.736 1.7-1.67 1.7a1.682 1.682 0 0 1-1.668-1.7c0-.93.735-1.7 1.669-1.7.933.02 1.669.77 1.669 1.7Z" fill="#696975"/><path d="M24.963 21.288c0 .85-.953 1.477-2.145 1.477-1.193 0-2.146-.647-2.146-1.477 0-1.194 1.43-2.489 2.146-2.489.755 0 2.145 1.295 2.145 2.49Z" fill="#9B9BA3"/></svg>