<svg width="131" height="54" fill="none" xmlns="http://www.w3.org/2000/svg"><g clip-path="url(#a)" fill="#696975"><path d="M66.449 28.03h-1.2c-.057 0-.057.058-.057.058v.174c0 .93-.457 1.454-1.313 1.454-.857 0-1.314-.524-1.314-1.454v-2.907h3.541c.057 0 .057-.058.057-.058v-1.163c0-.058-.057-.058-.057-.058h-3.541V21.81c0-.058-.057-.058-.057-.058h-1.314c-.057 0-.057.058-.057.058v6.511c0 1.745.97 2.791 2.684 2.791 1.714 0 2.685-.988 2.685-2.79v-.175c.057-.058 0-.116-.057-.116ZM94.13 23.844c-2.114 0-3.6 1.511-3.6 3.604s1.543 3.605 3.6 3.605c1.542 0 2.741-.756 3.313-2.093v-.058l-.058-.058h-1.37s-.058 0-.058.058c-.342.581-.913.814-1.77.814-1.143 0-1.942-.64-2.114-1.686h5.655c.057 0 .057-.059.057-.059v-.465c-.057-2.15-1.6-3.662-3.655-3.662Zm-2.057 2.848c.286-.93 1.028-1.511 2.057-1.511 1.028 0 1.828.581 2.056 1.511h-4.113ZM106.868 23.844c-1.028 0-1.828.465-2.342 1.22-.457-.813-1.314-1.22-2.342-1.22-1.771 0-2.8 1.162-2.8 3.081v3.895c0 .058.058.058.058.058h1.257c.057 0 .057-.058.057-.058v-3.895c0-1.105.514-1.744 1.485-1.744.914 0 1.485.64 1.485 1.744v3.895c0 .058.057.058.057.058h1.371c.057 0 .057-.058.057-.058v-3.895c0-1.105.571-1.744 1.485-1.744.971 0 1.486.64 1.486 1.744v3.895c0 .058.057.058.057.058h1.256c.057 0 .057-.058.057-.058v-3.895c.058-1.919-.971-3.081-2.684-3.081ZM130.898 28.03h-1.257c-.057 0-.057.058-.057.058v.174c0 .93-.457 1.454-1.314 1.454s-1.314-.524-1.314-1.454v-2.907h3.542c.057 0 .057-.058.057-.058v-1.163c0-.058-.057-.058-.057-.058h-3.542V21.81c0-.058-.057-.058-.057-.058h-1.256c-.058 0-.058.058-.058.058v6.511c0 1.745.972 2.791 2.685 2.791 1.714 0 2.685-.988 2.685-2.79v-.175c0-.058-.057-.116-.057-.116ZM71.852 23.844h-.743c-.456 0-.913.116-1.313.29-.4.175-.743.407-1.086.756-.285.29-.57.698-.742 1.105a3.5 3.5 0 0 0-.286 1.337v3.43c0 .058.057.058.057.058h1.314c.057 0 .057-.058.057-.058v-3.43c0-.29.057-.523.172-.756.114-.232.228-.465.4-.64.17-.174.4-.348.628-.406.228-.117.457-.175.742-.175h.743c.057 0 .057-.058.057-.058v-1.279c.057-.116 0-.174 0-.174ZM124.03 23.844h-.743c-.457 0-.913.116-1.313.29-.4.175-.743.407-1.086.756a3.73 3.73 0 0 0-.742 1.105 3.49 3.49 0 0 0-.286 1.337v3.43c0 .058.057.058.057.058h1.314c.057 0 .057-.058.057-.058v-3.43c0-.29.057-.523.172-.756.114-.232.228-.465.399-.64.172-.174.4-.348.629-.406.228-.117.457-.175.742-.175h.743c.057 0 .057-.058.057-.058v-1.279c.057-.116.057-.174 0-.174ZM76.365 23.844c-2.114 0-3.599 1.511-3.599 3.662 0 2.326 1.714 3.547 3.427 3.547 1.086 0 2-.523 2.457-1.395v1.104c0 .058.057.058.057.058h1.142c.057 0 .057-.058.057-.058v-3.314c0-2.093-1.485-3.604-3.541-3.604Zm2.17 3.604c0 1.337-.914 2.268-2.17 2.268-1.257 0-2.17-.93-2.17-2.268 0-1.337.913-2.267 2.17-2.267 1.256 0 2.17.93 2.17 2.267ZM114.732 23.844c-2.114 0-3.599 1.511-3.599 3.662 0 2.326 1.714 3.547 3.427 3.547 1.085 0 1.999-.523 2.456-1.395v1.104c0 .058.058.058.058.058h1.142c.057 0 .057-.058.057-.058v-3.314c.057-2.093-1.428-3.604-3.541-3.604Zm2.17 3.604c0 1.337-.914 2.268-2.17 2.268-1.257 0-2.171-.93-2.171-2.268 0-1.337.914-2.267 2.171-2.267 1.256 0 2.17.93 2.17 2.267ZM88.817 21.111h-1.256c-.058 0-.058.058-.058.058v3.837c-.514-.755-1.37-1.162-2.399-1.162-1.713 0-3.427 1.22-3.427 3.546 0 2.151 1.485 3.663 3.599 3.663 2.113 0 3.598-1.454 3.598-3.663v-6.22c0-.059-.057-.059-.057-.059Zm-1.37 6.337c0 1.337-.915 2.268-2.171 2.268-1.314 0-2.17-.93-2.17-2.268 0-1.337.913-2.267 2.17-2.267 1.256 0 2.17.93 2.17 2.267ZM31.683 26.667c0 3.08-2.43 5.555-5.455 5.555-3.024 0-5.455-2.475-5.455-5.555 0-3.08 2.43-5.556 5.455-5.556 3.024 0 5.454 2.53 5.454 5.556ZM51.32 26.667c0 3.08-2.431 5.555-5.455 5.555-3.025 0-5.455-2.475-5.455-5.555 0-3.08 2.43-5.556 5.455-5.556 3.024 0 5.454 2.53 5.454 5.556ZM31.683 6.667c0 3.08-2.43 5.555-5.455 5.555-3.024 0-5.455-2.475-5.455-5.555 0-3.08 2.43-5.556 5.455-5.556 3.024 0 5.454 2.53 5.454 5.556ZM21.864 16.667c0 3.08-2.43 5.555-5.454 5.555-3.025 0-5.455-2.475-5.455-5.555 0-3.08 2.43-5.556 5.455-5.556 3.024 0 5.454 2.53 5.454 5.556ZM21.864 36.667c0 3.08-2.43 5.555-5.454 5.555-3.025 0-5.455-2.475-5.455-5.555 0-3.08 2.43-5.556 5.455-5.556 3.024 0 5.454 2.53 5.454 5.556ZM41.5 16.667c0 3.08-2.43 5.555-5.454 5.555-3.024 0-5.454-2.475-5.454-5.555 0-3.08 2.43-5.556 5.454-5.556 3.025 0 5.455 2.53 5.455 5.556ZM41.5 36.667c0 3.08-2.43 5.555-5.454 5.555-3.024 0-5.454-2.475-5.454-5.555 0-3.08 2.43-5.556 5.454-5.556 3.025 0 5.455 2.53 5.455 5.556ZM31.683 46.667c0 3.08-2.43 5.555-5.455 5.555-3.024 0-5.455-2.475-5.455-5.555 0-3.08 2.43-5.556 5.455-5.556 3.024 0 5.454 2.53 5.454 5.556ZM12.046 26.667c0 3.08-2.43 5.555-5.455 5.555-3.024 0-5.454-2.475-5.454-5.555 0-3.08 2.43-5.556 5.454-5.556 3.025 0 5.455 2.53 5.455 5.556Z"/></g><defs><clipPath id="a"><path fill="#fff" transform="translate(.045)" d="M0 0h130.909v53.333H0z"/></clipPath></defs></svg>