<svg width="122" height="122" viewBox="0 0 122 122" fill="none" xmlns="http://www.w3.org/2000/svg">
<rect x="1" y="1" width="120" height="120" stroke="#FFA69E" stroke-width="1.5" stroke-linejoin="round"/>
<path d="M45.7862 76.4215C55.2341 80.5749 66.2732 80.8247 76.2174 76.4537M45.7862 76.4215C46.9929 65.7136 52.7104 56.3661 61 50.3113M45.7862 76.4215C45.6291 77.8149 45.5485 79.2313 45.5485 80.6665C45.5485 101.436 62.4389 118.273 83.2742 118.273C104.11 118.273 121 101.436 121 80.6665C121 59.8969 104.11 43.0599 83.2742 43.0599C74.9428 43.0599 67.2422 45.7521 61 50.3113M45.7862 76.4215C38.7112 73.3114 32.5285 68.0123 28.3661 60.8256C17.9484 42.8386 24.1307 19.8388 42.1747 9.45403C60.2186 -0.93074 83.2914 5.23205 93.709 23.219C104.127 41.2059 97.9444 64.2057 79.9004 74.5905C78.6935 75.2851 77.4641 75.9057 76.2174 76.4537M76.2174 76.4537C75.0185 65.7323 69.2979 56.3721 61 50.3113M76.2174 76.4537C76.3721 77.8367 76.4515 79.2423 76.4515 80.6665C76.4515 101.436 59.5611 118.273 38.7258 118.273C17.8904 118.273 1 101.436 1 80.6665C1 59.8969 17.8904 43.0599 38.7258 43.0599C47.0572 43.0599 54.7578 45.7521 61 50.3113M51.9994 59.6287L63.9873 52.7353M48.4936 66.0746L66.8016 55.5469M46.6628 71.5573L69.2534 58.567M45.8548 76.4518L71.3594 61.7859M50.5908 78.1584L73.1239 65.2012M56.2602 79.3283L74.5404 68.8166M63.5743 79.5523L75.5908 72.6425" stroke="#FFA69E" stroke-width="1.5" stroke-linecap="round" stroke-linejoin="round"/>
</svg>
