<svg width="122" height="122" viewBox="0 0 122 122" fill="none" xmlns="http://www.w3.org/2000/svg">
<rect x="1" y="1" width="120" height="120" stroke="#FFEF9E" stroke-width="1.5" stroke-linejoin="round"/>
<path d="M71.5018 13.0698C79.1209 7.97486 86.0376 6.29223 90.8921 9.1017C102.224 15.6599 98.0273 44.2125 81.5183 72.8756C72.0818 89.2596 60.665 102.133 50.4987 108.932M71.5018 13.0698C72.2884 14.4324 71.8242 16.1732 70.4649 16.958C69.1056 17.7428 67.3659 17.2744 66.5793 15.9119C65.7926 14.5493 66.2568 12.8085 67.6161 12.0237C68.9754 11.2389 70.7151 11.7073 71.5018 13.0698ZM66.9879 16.458C58.0729 23.7347 48.5199 35.1702 40.4817 49.1262C23.9728 77.7894 19.776 106.342 31.108 112.9C34.8941 115.091 39.9348 114.55 45.5847 111.788M14.24 46.13C25.2108 40.7249 42.0681 37.2746 60.9753 37.2942C94.0528 37.3286 120.878 47.9704 120.892 61.0633C120.898 66.6721 115.982 71.8209 107.76 75.8717M14.24 46.13C15.0267 47.4925 14.5625 49.2333 13.2032 50.0181C11.8439 50.8029 10.1042 50.3345 9.31753 48.972C8.53084 47.6094 8.99505 45.8686 10.3544 45.0838C11.7137 44.299 13.4533 44.7674 14.24 46.13ZM9.30904 48.9573C4.09248 52.4695 1.10337 56.5641 1.10792 60.9386C1.12152 74.0315 27.9471 84.6732 61.0246 84.7076C77.1574 84.7244 91.8125 82.2075 102.577 78.1129M107.76 75.8717C108.547 77.2343 108.083 78.9751 106.724 79.7599C105.364 80.5447 103.625 80.0763 102.838 78.7137C102.051 77.3511 102.515 75.6104 103.875 74.8256C105.234 74.0408 106.974 74.5091 107.76 75.8717ZM50.4799 108.899C51.2665 110.262 50.8023 112.002 49.443 112.787C48.0837 113.572 46.344 113.104 45.5574 111.741C44.7707 110.378 45.2349 108.638 46.5942 107.853C47.9535 107.068 49.6932 107.536 50.4799 108.899ZM81.4939 49.1688C98.0624 77.8663 102.319 106.428 91.0002 112.962C79.6819 119.497 57.0751 101.53 40.5066 72.8328C23.938 44.1353 19.6819 15.5739 31.0002 9.03928C42.3186 2.50463 64.9254 20.4712 81.4939 49.1688ZM73.9593 53.5189C78.1015 60.6932 75.6573 69.859 68.5001 73.9913C61.3429 78.1235 52.183 75.6573 48.0409 68.4829C43.8988 61.3085 46.3429 52.1427 53.5001 48.0105C60.6573 43.8783 69.8172 46.3445 73.9593 53.5189Z" stroke="#FFEF9E" stroke-width="1.5" stroke-linecap="round" stroke-linejoin="round"/>
</svg>
