<svg width="122" height="122" viewBox="0 0 122 122" fill="none" xmlns="http://www.w3.org/2000/svg">
<rect x="1" y="1" width="120" height="120" stroke="#BEB6F2" stroke-width="1.5" stroke-linejoin="round"/>
<path d="M20.8874 50.1027C20.0336 39.7292 23.1074 16.4244 42.2333 6.19306C66.1407 -6.59616 90.6884 6.83252 97.946 18.556C105.204 30.2794 107.338 39.6583 104.99 55.0053M20.8874 50.1027C25.551 45.6136 35.2458 39.217 47.7833 36.4861M20.8874 50.1027C3.81071 64.5971 0.60889 81.4364 1.03581 88.6836C1.46273 95.9308 4.23769 108.72 20.8874 115.967C34.2072 121.765 51.7678 115.399 58.8831 111.491M104.99 55.0053C103.528 61.0524 99.4086 73.0277 92.6643 83.3548M104.99 55.0053C111.607 62.0394 123.945 80.2001 120.359 96.5703C115.877 117.033 100.721 119.378 94.7442 120.444C88.7673 121.509 73.8252 122.149 58.8831 111.491M84.2847 93.5861C79.5886 91.4548 68.4887 85.1883 61.6581 77.1735M84.2847 93.5861C86.7039 94.2967 91.512 94.9234 93.6411 91.8035C96.7486 87.2498 92.6643 83.3548 92.6643 83.3548M84.2847 93.5861C87.4226 90.6344 90.2163 87.1032 92.6643 83.3548M72.9714 63.958C71.0502 68.0077 64.6465 75.2549 61.6581 77.1735M72.9714 63.958C62.7254 59.6947 51.839 63.1054 51.839 63.1054M72.9714 63.958C80.4851 53.3856 78.9482 42.2162 77.2405 37.953M61.6581 77.1735C61.6581 77.1735 57.4605 73.0665 55.4678 70.1392C52.9063 66.3766 51.839 63.1054 51.839 63.1054M51.839 63.1054C41.593 66.0893 34.7623 73.976 30.0662 80.5838M58.8831 111.491C50.1284 105.247 43.126 97.6545 37.9642 91.4546M30.0662 80.5838C29.2124 82.1469 26.3016 85.1957 28.7854 89.5362C31.103 93.5862 37.9642 91.4546 37.9642 91.4546M30.0662 80.5838C31.1335 82.289 34.316 87.0728 37.9642 91.4546M77.2405 37.953C76.0309 34.5426 71.6052 27.5938 63.5792 27.0822C55.5531 26.5706 49.7044 33.1383 47.7833 36.4861M77.2405 37.953C66.5409 34.4614 56.4784 34.5922 47.7833 36.4861" stroke="#BEB6F2" stroke-width="1.5" stroke-linecap="round" stroke-linejoin="round"/>
</svg>
