<svg width="122" height="122" viewBox="0 0 122 122" fill="none" xmlns="http://www.w3.org/2000/svg">
<rect x="1" y="1" width="120" height="120" stroke="#A3E7F0" stroke-width="1.5" stroke-linejoin="round"/>
<path d="M121 10.1558C121 5.09921 116.894 0.999998 111.829 0.999998M121 10.1558V45.2208M121 10.1558C121 13.5852 119.112 16.5742 116.316 18.1429M111.829 0.999998H77.878M111.829 0.999998C109.274 0.999998 106.962 2.04362 105.299 3.72727M102.659 10.1558C102.659 7.65064 103.666 5.38042 105.299 3.72727M102.659 10.1558L80.6098 20.6753M102.659 10.1558C102.659 10.9638 102.763 11.7473 102.96 12.4935M111.829 19.3117C113.459 19.3117 114.99 18.8872 116.316 18.1429M111.829 19.3117L101.488 42.4935M111.829 19.3117C110.878 19.3117 109.96 19.1671 109.098 18.8986M121 55.5455V68.2078M121 77.9481V87.1039M67.1463 0.999998H54.0732M43.5366 0.999998H35.1463M116.316 18.1429L106.366 58.2727M105.299 3.72727L65 15.8052M109.098 18.8986L67.1463 86.3247M109.098 18.8986C108.358 18.6684 107.658 18.3472 107.012 17.9481M102.96 12.4935L35.1463 56.3247M102.96 12.4935C103.179 13.3249 103.513 14.11 103.943 14.8312M105.299 16.5844L77.878 45.2208M105.299 16.5844C105.812 17.1038 106.387 17.5623 107.012 17.9481M105.299 16.5844C104.78 16.0584 104.323 15.4699 103.943 14.8312M107.012 17.9481L73.5854 60.026M103.943 14.8312L62.4634 49.3117M68.9024 53.5974L44.3171 77.9481M49.3902 59.0519L23.8293 80.4805M62.4634 73.4675L41.3902 99.5714M95.6341 55.5455L91.5366 64.8961M87.6341 73.4675L83.7317 83.2078M102.96 69.3766L96.8049 98.013M67.1463 26.7143L58.1707 31.1948M49.3902 34.8961L40.2195 39.7662M28.3171 45.2208L20.3171 49.3117M93.878 108.922L91.5366 121M52.7073 19.3117L24.6098 27.4935M13.878 30.2208L1 34.3117M78.6585 93.9221L74.561 104.831" stroke="#A3E7F0" stroke-width="1.5" stroke-linejoin="round"/>
</svg>
